%TF.GenerationSoftware,KiCad,Pcbnew,7.0.6*%
%TF.CreationDate,2024-01-21T00:28:06+01:00*%
%TF.ProjectId,ir_remote_control,69725f72-656d-46f7-9465-5f636f6e7472,rev?*%
%TF.SameCoordinates,PX3938700PY55d4a80*%
%TF.FileFunction,Legend,Bot*%
%TF.FilePolarity,Positive*%
%FSLAX46Y46*%
G04 Gerber Fmt 4.6, Leading zero omitted, Abs format (unit mm)*
G04 Created by KiCad (PCBNEW 7.0.6) date 2024-01-21 00:28:06*
%MOMM*%
%LPD*%
G01*
G04 APERTURE LIST*
%ADD10C,0.150000*%
%ADD11C,0.120000*%
G04 APERTURE END LIST*
D10*
X9818666Y24024420D02*
X9866285Y23976800D01*
X9866285Y23976800D02*
X10009142Y23929181D01*
X10009142Y23929181D02*
X10104380Y23929181D01*
X10104380Y23929181D02*
X10247237Y23976800D01*
X10247237Y23976800D02*
X10342475Y24072039D01*
X10342475Y24072039D02*
X10390094Y24167277D01*
X10390094Y24167277D02*
X10437713Y24357753D01*
X10437713Y24357753D02*
X10437713Y24500610D01*
X10437713Y24500610D02*
X10390094Y24691086D01*
X10390094Y24691086D02*
X10342475Y24786324D01*
X10342475Y24786324D02*
X10247237Y24881562D01*
X10247237Y24881562D02*
X10104380Y24929181D01*
X10104380Y24929181D02*
X10009142Y24929181D01*
X10009142Y24929181D02*
X9866285Y24881562D01*
X9866285Y24881562D02*
X9818666Y24833943D01*
X9247237Y24500610D02*
X9342475Y24548229D01*
X9342475Y24548229D02*
X9390094Y24595848D01*
X9390094Y24595848D02*
X9437713Y24691086D01*
X9437713Y24691086D02*
X9437713Y24738705D01*
X9437713Y24738705D02*
X9390094Y24833943D01*
X9390094Y24833943D02*
X9342475Y24881562D01*
X9342475Y24881562D02*
X9247237Y24929181D01*
X9247237Y24929181D02*
X9056761Y24929181D01*
X9056761Y24929181D02*
X8961523Y24881562D01*
X8961523Y24881562D02*
X8913904Y24833943D01*
X8913904Y24833943D02*
X8866285Y24738705D01*
X8866285Y24738705D02*
X8866285Y24691086D01*
X8866285Y24691086D02*
X8913904Y24595848D01*
X8913904Y24595848D02*
X8961523Y24548229D01*
X8961523Y24548229D02*
X9056761Y24500610D01*
X9056761Y24500610D02*
X9247237Y24500610D01*
X9247237Y24500610D02*
X9342475Y24452991D01*
X9342475Y24452991D02*
X9390094Y24405372D01*
X9390094Y24405372D02*
X9437713Y24310134D01*
X9437713Y24310134D02*
X9437713Y24119658D01*
X9437713Y24119658D02*
X9390094Y24024420D01*
X9390094Y24024420D02*
X9342475Y23976800D01*
X9342475Y23976800D02*
X9247237Y23929181D01*
X9247237Y23929181D02*
X9056761Y23929181D01*
X9056761Y23929181D02*
X8961523Y23976800D01*
X8961523Y23976800D02*
X8913904Y24024420D01*
X8913904Y24024420D02*
X8866285Y24119658D01*
X8866285Y24119658D02*
X8866285Y24310134D01*
X8866285Y24310134D02*
X8913904Y24405372D01*
X8913904Y24405372D02*
X8961523Y24452991D01*
X8961523Y24452991D02*
X9056761Y24500610D01*
X40110580Y15660667D02*
X40158200Y15708286D01*
X40158200Y15708286D02*
X40205819Y15851143D01*
X40205819Y15851143D02*
X40205819Y15946381D01*
X40205819Y15946381D02*
X40158200Y16089238D01*
X40158200Y16089238D02*
X40062961Y16184476D01*
X40062961Y16184476D02*
X39967723Y16232095D01*
X39967723Y16232095D02*
X39777247Y16279714D01*
X39777247Y16279714D02*
X39634390Y16279714D01*
X39634390Y16279714D02*
X39443914Y16232095D01*
X39443914Y16232095D02*
X39348676Y16184476D01*
X39348676Y16184476D02*
X39253438Y16089238D01*
X39253438Y16089238D02*
X39205819Y15946381D01*
X39205819Y15946381D02*
X39205819Y15851143D01*
X39205819Y15851143D02*
X39253438Y15708286D01*
X39253438Y15708286D02*
X39301057Y15660667D01*
X39539152Y14803524D02*
X40205819Y14803524D01*
X39158200Y15041619D02*
X39872485Y15279714D01*
X39872485Y15279714D02*
X39872485Y14660667D01*
X35030580Y26328667D02*
X35078200Y26376286D01*
X35078200Y26376286D02*
X35125819Y26519143D01*
X35125819Y26519143D02*
X35125819Y26614381D01*
X35125819Y26614381D02*
X35078200Y26757238D01*
X35078200Y26757238D02*
X34982961Y26852476D01*
X34982961Y26852476D02*
X34887723Y26900095D01*
X34887723Y26900095D02*
X34697247Y26947714D01*
X34697247Y26947714D02*
X34554390Y26947714D01*
X34554390Y26947714D02*
X34363914Y26900095D01*
X34363914Y26900095D02*
X34268676Y26852476D01*
X34268676Y26852476D02*
X34173438Y26757238D01*
X34173438Y26757238D02*
X34125819Y26614381D01*
X34125819Y26614381D02*
X34125819Y26519143D01*
X34125819Y26519143D02*
X34173438Y26376286D01*
X34173438Y26376286D02*
X34221057Y26328667D01*
X34125819Y25995333D02*
X34125819Y25328667D01*
X34125819Y25328667D02*
X35125819Y25757238D01*
X37976666Y25579181D02*
X38309999Y26055372D01*
X38548094Y25579181D02*
X38548094Y26579181D01*
X38548094Y26579181D02*
X38167142Y26579181D01*
X38167142Y26579181D02*
X38071904Y26531562D01*
X38071904Y26531562D02*
X38024285Y26483943D01*
X38024285Y26483943D02*
X37976666Y26388705D01*
X37976666Y26388705D02*
X37976666Y26245848D01*
X37976666Y26245848D02*
X38024285Y26150610D01*
X38024285Y26150610D02*
X38071904Y26102991D01*
X38071904Y26102991D02*
X38167142Y26055372D01*
X38167142Y26055372D02*
X38548094Y26055372D01*
X37643332Y26579181D02*
X37024285Y26579181D01*
X37024285Y26579181D02*
X37357618Y26198229D01*
X37357618Y26198229D02*
X37214761Y26198229D01*
X37214761Y26198229D02*
X37119523Y26150610D01*
X37119523Y26150610D02*
X37071904Y26102991D01*
X37071904Y26102991D02*
X37024285Y26007753D01*
X37024285Y26007753D02*
X37024285Y25769658D01*
X37024285Y25769658D02*
X37071904Y25674420D01*
X37071904Y25674420D02*
X37119523Y25626800D01*
X37119523Y25626800D02*
X37214761Y25579181D01*
X37214761Y25579181D02*
X37500475Y25579181D01*
X37500475Y25579181D02*
X37595713Y25626800D01*
X37595713Y25626800D02*
X37643332Y25674420D01*
X8746666Y36258920D02*
X8794285Y36211300D01*
X8794285Y36211300D02*
X8937142Y36163681D01*
X8937142Y36163681D02*
X9032380Y36163681D01*
X9032380Y36163681D02*
X9175237Y36211300D01*
X9175237Y36211300D02*
X9270475Y36306539D01*
X9270475Y36306539D02*
X9318094Y36401777D01*
X9318094Y36401777D02*
X9365713Y36592253D01*
X9365713Y36592253D02*
X9365713Y36735110D01*
X9365713Y36735110D02*
X9318094Y36925586D01*
X9318094Y36925586D02*
X9270475Y37020824D01*
X9270475Y37020824D02*
X9175237Y37116062D01*
X9175237Y37116062D02*
X9032380Y37163681D01*
X9032380Y37163681D02*
X8937142Y37163681D01*
X8937142Y37163681D02*
X8794285Y37116062D01*
X8794285Y37116062D02*
X8746666Y37068443D01*
X7841904Y37163681D02*
X8318094Y37163681D01*
X8318094Y37163681D02*
X8365713Y36687491D01*
X8365713Y36687491D02*
X8318094Y36735110D01*
X8318094Y36735110D02*
X8222856Y36782729D01*
X8222856Y36782729D02*
X7984761Y36782729D01*
X7984761Y36782729D02*
X7889523Y36735110D01*
X7889523Y36735110D02*
X7841904Y36687491D01*
X7841904Y36687491D02*
X7794285Y36592253D01*
X7794285Y36592253D02*
X7794285Y36354158D01*
X7794285Y36354158D02*
X7841904Y36258920D01*
X7841904Y36258920D02*
X7889523Y36211300D01*
X7889523Y36211300D02*
X7984761Y36163681D01*
X7984761Y36163681D02*
X8222856Y36163681D01*
X8222856Y36163681D02*
X8318094Y36211300D01*
X8318094Y36211300D02*
X8365713Y36258920D01*
X12805580Y20613667D02*
X12853200Y20661286D01*
X12853200Y20661286D02*
X12900819Y20804143D01*
X12900819Y20804143D02*
X12900819Y20899381D01*
X12900819Y20899381D02*
X12853200Y21042238D01*
X12853200Y21042238D02*
X12757961Y21137476D01*
X12757961Y21137476D02*
X12662723Y21185095D01*
X12662723Y21185095D02*
X12472247Y21232714D01*
X12472247Y21232714D02*
X12329390Y21232714D01*
X12329390Y21232714D02*
X12138914Y21185095D01*
X12138914Y21185095D02*
X12043676Y21137476D01*
X12043676Y21137476D02*
X11948438Y21042238D01*
X11948438Y21042238D02*
X11900819Y20899381D01*
X11900819Y20899381D02*
X11900819Y20804143D01*
X11900819Y20804143D02*
X11948438Y20661286D01*
X11948438Y20661286D02*
X11996057Y20613667D01*
X11900819Y19756524D02*
X11900819Y19947000D01*
X11900819Y19947000D02*
X11948438Y20042238D01*
X11948438Y20042238D02*
X11996057Y20089857D01*
X11996057Y20089857D02*
X12138914Y20185095D01*
X12138914Y20185095D02*
X12329390Y20232714D01*
X12329390Y20232714D02*
X12710342Y20232714D01*
X12710342Y20232714D02*
X12805580Y20185095D01*
X12805580Y20185095D02*
X12853200Y20137476D01*
X12853200Y20137476D02*
X12900819Y20042238D01*
X12900819Y20042238D02*
X12900819Y19851762D01*
X12900819Y19851762D02*
X12853200Y19756524D01*
X12853200Y19756524D02*
X12805580Y19708905D01*
X12805580Y19708905D02*
X12710342Y19661286D01*
X12710342Y19661286D02*
X12472247Y19661286D01*
X12472247Y19661286D02*
X12377009Y19708905D01*
X12377009Y19708905D02*
X12329390Y19756524D01*
X12329390Y19756524D02*
X12281771Y19851762D01*
X12281771Y19851762D02*
X12281771Y20042238D01*
X12281771Y20042238D02*
X12329390Y20137476D01*
X12329390Y20137476D02*
X12377009Y20185095D01*
X12377009Y20185095D02*
X12472247Y20232714D01*
X42745819Y15787667D02*
X42269628Y16121000D01*
X42745819Y16359095D02*
X41745819Y16359095D01*
X41745819Y16359095D02*
X41745819Y15978143D01*
X41745819Y15978143D02*
X41793438Y15882905D01*
X41793438Y15882905D02*
X41841057Y15835286D01*
X41841057Y15835286D02*
X41936295Y15787667D01*
X41936295Y15787667D02*
X42079152Y15787667D01*
X42079152Y15787667D02*
X42174390Y15835286D01*
X42174390Y15835286D02*
X42222009Y15882905D01*
X42222009Y15882905D02*
X42269628Y15978143D01*
X42269628Y15978143D02*
X42269628Y16359095D01*
X42079152Y14930524D02*
X42745819Y14930524D01*
X41698200Y15168619D02*
X42412485Y15406714D01*
X42412485Y15406714D02*
X42412485Y14787667D01*
X41786666Y27484181D02*
X42262856Y27484181D01*
X42262856Y27484181D02*
X42262856Y28484181D01*
X41500951Y28388943D02*
X41453332Y28436562D01*
X41453332Y28436562D02*
X41358094Y28484181D01*
X41358094Y28484181D02*
X41119999Y28484181D01*
X41119999Y28484181D02*
X41024761Y28436562D01*
X41024761Y28436562D02*
X40977142Y28388943D01*
X40977142Y28388943D02*
X40929523Y28293705D01*
X40929523Y28293705D02*
X40929523Y28198467D01*
X40929523Y28198467D02*
X40977142Y28055610D01*
X40977142Y28055610D02*
X41548570Y27484181D01*
X41548570Y27484181D02*
X40929523Y27484181D01*
X6851666Y27441181D02*
X7327856Y27441181D01*
X7327856Y27441181D02*
X7327856Y28441181D01*
X5994523Y27441181D02*
X6565951Y27441181D01*
X6280237Y27441181D02*
X6280237Y28441181D01*
X6280237Y28441181D02*
X6375475Y28298324D01*
X6375475Y28298324D02*
X6470713Y28203086D01*
X6470713Y28203086D02*
X6565951Y28155467D01*
X3041666Y25536181D02*
X3374999Y26012372D01*
X3613094Y25536181D02*
X3613094Y26536181D01*
X3613094Y26536181D02*
X3232142Y26536181D01*
X3232142Y26536181D02*
X3136904Y26488562D01*
X3136904Y26488562D02*
X3089285Y26440943D01*
X3089285Y26440943D02*
X3041666Y26345705D01*
X3041666Y26345705D02*
X3041666Y26202848D01*
X3041666Y26202848D02*
X3089285Y26107610D01*
X3089285Y26107610D02*
X3136904Y26059991D01*
X3136904Y26059991D02*
X3232142Y26012372D01*
X3232142Y26012372D02*
X3613094Y26012372D01*
X2089285Y25536181D02*
X2660713Y25536181D01*
X2374999Y25536181D02*
X2374999Y26536181D01*
X2374999Y26536181D02*
X2470237Y26393324D01*
X2470237Y26393324D02*
X2565475Y26298086D01*
X2565475Y26298086D02*
X2660713Y26250467D01*
X2645580Y15787667D02*
X2693200Y15835286D01*
X2693200Y15835286D02*
X2740819Y15978143D01*
X2740819Y15978143D02*
X2740819Y16073381D01*
X2740819Y16073381D02*
X2693200Y16216238D01*
X2693200Y16216238D02*
X2597961Y16311476D01*
X2597961Y16311476D02*
X2502723Y16359095D01*
X2502723Y16359095D02*
X2312247Y16406714D01*
X2312247Y16406714D02*
X2169390Y16406714D01*
X2169390Y16406714D02*
X1978914Y16359095D01*
X1978914Y16359095D02*
X1883676Y16311476D01*
X1883676Y16311476D02*
X1788438Y16216238D01*
X1788438Y16216238D02*
X1740819Y16073381D01*
X1740819Y16073381D02*
X1740819Y15978143D01*
X1740819Y15978143D02*
X1788438Y15835286D01*
X1788438Y15835286D02*
X1836057Y15787667D01*
X2740819Y14835286D02*
X2740819Y15406714D01*
X2740819Y15121000D02*
X1740819Y15121000D01*
X1740819Y15121000D02*
X1883676Y15216238D01*
X1883676Y15216238D02*
X1978914Y15311476D01*
X1978914Y15311476D02*
X2026533Y15406714D01*
X44743666Y24001920D02*
X44791285Y23954300D01*
X44791285Y23954300D02*
X44934142Y23906681D01*
X44934142Y23906681D02*
X45029380Y23906681D01*
X45029380Y23906681D02*
X45172237Y23954300D01*
X45172237Y23954300D02*
X45267475Y24049539D01*
X45267475Y24049539D02*
X45315094Y24144777D01*
X45315094Y24144777D02*
X45362713Y24335253D01*
X45362713Y24335253D02*
X45362713Y24478110D01*
X45362713Y24478110D02*
X45315094Y24668586D01*
X45315094Y24668586D02*
X45267475Y24763824D01*
X45267475Y24763824D02*
X45172237Y24859062D01*
X45172237Y24859062D02*
X45029380Y24906681D01*
X45029380Y24906681D02*
X44934142Y24906681D01*
X44934142Y24906681D02*
X44791285Y24859062D01*
X44791285Y24859062D02*
X44743666Y24811443D01*
X44267475Y23906681D02*
X44076999Y23906681D01*
X44076999Y23906681D02*
X43981761Y23954300D01*
X43981761Y23954300D02*
X43934142Y24001920D01*
X43934142Y24001920D02*
X43838904Y24144777D01*
X43838904Y24144777D02*
X43791285Y24335253D01*
X43791285Y24335253D02*
X43791285Y24716205D01*
X43791285Y24716205D02*
X43838904Y24811443D01*
X43838904Y24811443D02*
X43886523Y24859062D01*
X43886523Y24859062D02*
X43981761Y24906681D01*
X43981761Y24906681D02*
X44172237Y24906681D01*
X44172237Y24906681D02*
X44267475Y24859062D01*
X44267475Y24859062D02*
X44315094Y24811443D01*
X44315094Y24811443D02*
X44362713Y24716205D01*
X44362713Y24716205D02*
X44362713Y24478110D01*
X44362713Y24478110D02*
X44315094Y24382872D01*
X44315094Y24382872D02*
X44267475Y24335253D01*
X44267475Y24335253D02*
X44172237Y24287634D01*
X44172237Y24287634D02*
X43981761Y24287634D01*
X43981761Y24287634D02*
X43886523Y24335253D01*
X43886523Y24335253D02*
X43838904Y24382872D01*
X43838904Y24382872D02*
X43791285Y24478110D01*
X7820819Y15787667D02*
X7344628Y16121000D01*
X7820819Y16359095D02*
X6820819Y16359095D01*
X6820819Y16359095D02*
X6820819Y15978143D01*
X6820819Y15978143D02*
X6868438Y15882905D01*
X6868438Y15882905D02*
X6916057Y15835286D01*
X6916057Y15835286D02*
X7011295Y15787667D01*
X7011295Y15787667D02*
X7154152Y15787667D01*
X7154152Y15787667D02*
X7249390Y15835286D01*
X7249390Y15835286D02*
X7297009Y15882905D01*
X7297009Y15882905D02*
X7344628Y15978143D01*
X7344628Y15978143D02*
X7344628Y16359095D01*
X6916057Y15406714D02*
X6868438Y15359095D01*
X6868438Y15359095D02*
X6820819Y15263857D01*
X6820819Y15263857D02*
X6820819Y15025762D01*
X6820819Y15025762D02*
X6868438Y14930524D01*
X6868438Y14930524D02*
X6916057Y14882905D01*
X6916057Y14882905D02*
X7011295Y14835286D01*
X7011295Y14835286D02*
X7106533Y14835286D01*
X7106533Y14835286D02*
X7249390Y14882905D01*
X7249390Y14882905D02*
X7820819Y15454333D01*
X7820819Y15454333D02*
X7820819Y14835286D01*
X5185580Y15787667D02*
X5233200Y15835286D01*
X5233200Y15835286D02*
X5280819Y15978143D01*
X5280819Y15978143D02*
X5280819Y16073381D01*
X5280819Y16073381D02*
X5233200Y16216238D01*
X5233200Y16216238D02*
X5137961Y16311476D01*
X5137961Y16311476D02*
X5042723Y16359095D01*
X5042723Y16359095D02*
X4852247Y16406714D01*
X4852247Y16406714D02*
X4709390Y16406714D01*
X4709390Y16406714D02*
X4518914Y16359095D01*
X4518914Y16359095D02*
X4423676Y16311476D01*
X4423676Y16311476D02*
X4328438Y16216238D01*
X4328438Y16216238D02*
X4280819Y16073381D01*
X4280819Y16073381D02*
X4280819Y15978143D01*
X4280819Y15978143D02*
X4328438Y15835286D01*
X4328438Y15835286D02*
X4376057Y15787667D01*
X4280819Y15454333D02*
X4280819Y14835286D01*
X4280819Y14835286D02*
X4661771Y15168619D01*
X4661771Y15168619D02*
X4661771Y15025762D01*
X4661771Y15025762D02*
X4709390Y14930524D01*
X4709390Y14930524D02*
X4757009Y14882905D01*
X4757009Y14882905D02*
X4852247Y14835286D01*
X4852247Y14835286D02*
X5090342Y14835286D01*
X5090342Y14835286D02*
X5185580Y14882905D01*
X5185580Y14882905D02*
X5233200Y14930524D01*
X5233200Y14930524D02*
X5280819Y15025762D01*
X5280819Y15025762D02*
X5280819Y15311476D01*
X5280819Y15311476D02*
X5233200Y15406714D01*
X5233200Y15406714D02*
X5185580Y15454333D01*
X37570580Y15660667D02*
X37618200Y15708286D01*
X37618200Y15708286D02*
X37665819Y15851143D01*
X37665819Y15851143D02*
X37665819Y15946381D01*
X37665819Y15946381D02*
X37618200Y16089238D01*
X37618200Y16089238D02*
X37522961Y16184476D01*
X37522961Y16184476D02*
X37427723Y16232095D01*
X37427723Y16232095D02*
X37237247Y16279714D01*
X37237247Y16279714D02*
X37094390Y16279714D01*
X37094390Y16279714D02*
X36903914Y16232095D01*
X36903914Y16232095D02*
X36808676Y16184476D01*
X36808676Y16184476D02*
X36713438Y16089238D01*
X36713438Y16089238D02*
X36665819Y15946381D01*
X36665819Y15946381D02*
X36665819Y15851143D01*
X36665819Y15851143D02*
X36713438Y15708286D01*
X36713438Y15708286D02*
X36761057Y15660667D01*
X36761057Y15279714D02*
X36713438Y15232095D01*
X36713438Y15232095D02*
X36665819Y15136857D01*
X36665819Y15136857D02*
X36665819Y14898762D01*
X36665819Y14898762D02*
X36713438Y14803524D01*
X36713438Y14803524D02*
X36761057Y14755905D01*
X36761057Y14755905D02*
X36856295Y14708286D01*
X36856295Y14708286D02*
X36951533Y14708286D01*
X36951533Y14708286D02*
X37094390Y14755905D01*
X37094390Y14755905D02*
X37665819Y15327333D01*
X37665819Y15327333D02*
X37665819Y14708286D01*
D11*
%TO.C,C8*%
X6423748Y25076000D02*
X6946252Y25076000D01*
X6423748Y23606000D02*
X6946252Y23606000D01*
%TO.C,C4*%
X40450000Y18931252D02*
X40450000Y18408748D01*
X38980000Y18931252D02*
X38980000Y18408748D01*
%TO.C,C7*%
X33900000Y29032748D02*
X33900000Y29555252D01*
X35370000Y29032748D02*
X35370000Y29555252D01*
%TO.C,R3*%
X38037064Y23649000D02*
X37582936Y23649000D01*
X38037064Y25119000D02*
X37582936Y25119000D01*
%TO.C,C5*%
X8318748Y39033500D02*
X8841252Y39033500D01*
X8318748Y37563500D02*
X8841252Y37563500D01*
%TO.C,C6*%
X11665000Y23246248D02*
X11665000Y23768752D01*
X13135000Y23246248D02*
X13135000Y23768752D01*
%TO.C,R4*%
X41520000Y18480436D02*
X41520000Y18934564D01*
X42990000Y18480436D02*
X42990000Y18934564D01*
%TO.C,L2*%
X41881252Y25579000D02*
X41358748Y25579000D01*
X41881252Y26999000D02*
X41358748Y26999000D01*
%TO.C,L1*%
X6946252Y25536000D02*
X6423748Y25536000D01*
X6946252Y26956000D02*
X6423748Y26956000D01*
%TO.C,R1*%
X3102064Y23606000D02*
X2647936Y23606000D01*
X3102064Y25076000D02*
X2647936Y25076000D01*
%TO.C,C1*%
X1505000Y18398748D02*
X1505000Y18921252D01*
X2975000Y18398748D02*
X2975000Y18921252D01*
%TO.C,C9*%
X41358748Y25119000D02*
X41881252Y25119000D01*
X41358748Y23649000D02*
X41881252Y23649000D01*
%TO.C,R2*%
X6585000Y18470436D02*
X6585000Y18924564D01*
X8055000Y18470436D02*
X8055000Y18924564D01*
%TO.C,C3*%
X4045000Y18921252D02*
X4045000Y18398748D01*
X5515000Y18921252D02*
X5515000Y18398748D01*
%TO.C,C2*%
X36440000Y18408748D02*
X36440000Y18931252D01*
X37910000Y18408748D02*
X37910000Y18931252D01*
%TD*%
M02*
