%TF.GenerationSoftware,KiCad,Pcbnew,7.0.6*%
%TF.CreationDate,2024-01-21T00:28:06+01:00*%
%TF.ProjectId,ir_remote_control,69725f72-656d-46f7-9465-5f636f6e7472,rev?*%
%TF.SameCoordinates,PX3938700PY55d4a80*%
%TF.FileFunction,Copper,L2,Bot*%
%TF.FilePolarity,Positive*%
%FSLAX46Y46*%
G04 Gerber Fmt 4.6, Leading zero omitted, Abs format (unit mm)*
G04 Created by KiCad (PCBNEW 7.0.6) date 2024-01-21 00:28:06*
%MOMM*%
%LPD*%
G01*
G04 APERTURE LIST*
G04 Aperture macros list*
%AMRoundRect*
0 Rectangle with rounded corners*
0 $1 Rounding radius*
0 $2 $3 $4 $5 $6 $7 $8 $9 X,Y pos of 4 corners*
0 Add a 4 corners polygon primitive as box body*
4,1,4,$2,$3,$4,$5,$6,$7,$8,$9,$2,$3,0*
0 Add four circle primitives for the rounded corners*
1,1,$1+$1,$2,$3*
1,1,$1+$1,$4,$5*
1,1,$1+$1,$6,$7*
1,1,$1+$1,$8,$9*
0 Add four rect primitives between the rounded corners*
20,1,$1+$1,$2,$3,$4,$5,0*
20,1,$1+$1,$4,$5,$6,$7,0*
20,1,$1+$1,$6,$7,$8,$9,0*
20,1,$1+$1,$8,$9,$2,$3,0*%
G04 Aperture macros list end*
%TA.AperFunction,ComponentPad*%
%ADD10R,1.900000X1.900000*%
%TD*%
%TA.AperFunction,ComponentPad*%
%ADD11C,1.900000*%
%TD*%
%TA.AperFunction,ComponentPad*%
%ADD12R,1.600000X1.600000*%
%TD*%
%TA.AperFunction,ComponentPad*%
%ADD13O,1.600000X1.600000*%
%TD*%
%TA.AperFunction,ComponentPad*%
%ADD14RoundRect,0.248400X0.651600X0.651600X-0.651600X0.651600X-0.651600X-0.651600X0.651600X-0.651600X0*%
%TD*%
%TA.AperFunction,ComponentPad*%
%ADD15C,1.800000*%
%TD*%
%TA.AperFunction,SMDPad,CuDef*%
%ADD16RoundRect,0.250000X-0.337500X-0.475000X0.337500X-0.475000X0.337500X0.475000X-0.337500X0.475000X0*%
%TD*%
%TA.AperFunction,SMDPad,CuDef*%
%ADD17RoundRect,0.250000X-0.475000X0.337500X-0.475000X-0.337500X0.475000X-0.337500X0.475000X0.337500X0*%
%TD*%
%TA.AperFunction,SMDPad,CuDef*%
%ADD18RoundRect,0.250000X0.475000X-0.337500X0.475000X0.337500X-0.475000X0.337500X-0.475000X-0.337500X0*%
%TD*%
%TA.AperFunction,SMDPad,CuDef*%
%ADD19RoundRect,0.250000X0.350000X0.450000X-0.350000X0.450000X-0.350000X-0.450000X0.350000X-0.450000X0*%
%TD*%
%TA.AperFunction,SMDPad,CuDef*%
%ADD20RoundRect,0.250000X0.450000X-0.350000X0.450000X0.350000X-0.450000X0.350000X-0.450000X-0.350000X0*%
%TD*%
%TA.AperFunction,SMDPad,CuDef*%
%ADD21RoundRect,0.250000X0.325000X0.450000X-0.325000X0.450000X-0.325000X-0.450000X0.325000X-0.450000X0*%
%TD*%
%TA.AperFunction,ViaPad*%
%ADD22C,0.800000*%
%TD*%
%TA.AperFunction,Conductor*%
%ADD23C,0.350000*%
%TD*%
G04 APERTURE END LIST*
D10*
%TO.P,J1,R*%
%TO.N,R_IN*%
X38450000Y11410000D03*
D11*
%TO.P,J1,S*%
%TO.N,GND*%
X42950000Y11410000D03*
%TO.P,J1,T*%
%TO.N,L_IN*%
X37800000Y3910000D03*
X43600000Y3910000D03*
%TD*%
D12*
%TO.P,A1,1,D1/TX*%
%TO.N,unconnected-(A1-D1{slash}TX-Pad1)*%
X15770000Y40017500D03*
D13*
%TO.P,A1,2,D0/RX*%
%TO.N,unconnected-(A1-D0{slash}RX-Pad2)*%
X15770000Y37477500D03*
%TO.P,A1,3,~{RESET}*%
%TO.N,unconnected-(A1-~{RESET}-Pad3)*%
X15770000Y34937500D03*
%TO.P,A1,4,GND*%
%TO.N,GND*%
X15770000Y32397500D03*
%TO.P,A1,5,D2*%
%TO.N,IR*%
X15770000Y29857500D03*
%TO.P,A1,6,D3*%
%TO.N,unconnected-(A1-D3-Pad6)*%
X15770000Y27317500D03*
%TO.P,A1,7,D4*%
%TO.N,unconnected-(A1-D4-Pad7)*%
X15770000Y24777500D03*
%TO.P,A1,8,D5*%
%TO.N,unconnected-(A1-D5-Pad8)*%
X15770000Y22237500D03*
%TO.P,A1,9,D6*%
%TO.N,unconnected-(A1-D6-Pad9)*%
X15770000Y19697500D03*
%TO.P,A1,10,D7*%
%TO.N,unconnected-(A1-D7-Pad10)*%
X15770000Y17157500D03*
%TO.P,A1,11,D8*%
%TO.N,unconnected-(A1-D8-Pad11)*%
X15770000Y14617500D03*
%TO.P,A1,12,D9*%
%TO.N,unconnected-(A1-D9-Pad12)*%
X15770000Y12077500D03*
%TO.P,A1,13,D10*%
%TO.N,CS*%
X15770000Y9537500D03*
%TO.P,A1,14,D11*%
%TO.N,SDIO*%
X15770000Y6997500D03*
%TO.P,A1,15,D12*%
%TO.N,unconnected-(A1-D12-Pad15)*%
X15770000Y4457500D03*
%TO.P,A1,16,D13*%
%TO.N,SCK*%
X31010000Y4457500D03*
%TO.P,A1,17,3V3*%
%TO.N,unconnected-(A1-3V3-Pad17)*%
X31010000Y6997500D03*
%TO.P,A1,18,AREF*%
%TO.N,unconnected-(A1-AREF-Pad18)*%
X31010000Y9537500D03*
%TO.P,A1,19,A0*%
%TO.N,unconnected-(A1-A0-Pad19)*%
X31010000Y12077500D03*
%TO.P,A1,20,A1*%
%TO.N,unconnected-(A1-A1-Pad20)*%
X31010000Y14617500D03*
%TO.P,A1,21,A2*%
%TO.N,unconnected-(A1-A2-Pad21)*%
X31010000Y17157500D03*
%TO.P,A1,22,A3*%
%TO.N,unconnected-(A1-A3-Pad22)*%
X31010000Y19697500D03*
%TO.P,A1,23,A4*%
%TO.N,unconnected-(A1-A4-Pad23)*%
X31010000Y22237500D03*
%TO.P,A1,24,A5*%
%TO.N,unconnected-(A1-A5-Pad24)*%
X31010000Y24777500D03*
%TO.P,A1,25,A6*%
%TO.N,unconnected-(A1-A6-Pad25)*%
X31010000Y27317500D03*
%TO.P,A1,26,A7*%
%TO.N,unconnected-(A1-A7-Pad26)*%
X31010000Y29857500D03*
%TO.P,A1,27,+5V*%
%TO.N,+5V*%
X31010000Y32397500D03*
%TO.P,A1,28,~{RESET}*%
%TO.N,unconnected-(A1-~{RESET}-Pad28)*%
X31010000Y34937500D03*
%TO.P,A1,29,GND*%
%TO.N,GND*%
X31010000Y37477500D03*
%TO.P,A1,30,VIN*%
%TO.N,unconnected-(A1-VIN-Pad30)*%
X31010000Y40017500D03*
%TD*%
D10*
%TO.P,J2,R*%
%TO.N,R_OUT*%
X3790000Y11410000D03*
D11*
%TO.P,J2,S*%
%TO.N,GND*%
X8290000Y11410000D03*
%TO.P,J2,T*%
%TO.N,L_OUT*%
X3140000Y3910000D03*
X8940000Y3910000D03*
%TD*%
D12*
%TO.P,U1,1,~{CS}*%
%TO.N,CS*%
X9850000Y29847500D03*
D13*
%TO.P,U1,2,SCK*%
%TO.N,SCK*%
X7310000Y29847500D03*
%TO.P,U1,3,SI*%
%TO.N,SDIO*%
X4770000Y29847500D03*
%TO.P,U1,4,VSS*%
%TO.N,GND*%
X2230000Y29847500D03*
%TO.P,U1,5,PA0*%
%TO.N,Net-(U1-PA0)*%
X2230000Y22227500D03*
%TO.P,U1,6,PW0*%
%TO.N,Net-(U1-PW0)*%
X4770000Y22227500D03*
%TO.P,U1,7,PB0*%
%TO.N,GND*%
X7310000Y22227500D03*
%TO.P,U1,8,VDD*%
%TO.N,+5V*%
X9850000Y22227500D03*
%TD*%
D12*
%TO.P,U2,1,~{CS}*%
%TO.N,CS*%
X44785000Y29857500D03*
D13*
%TO.P,U2,2,SCK*%
%TO.N,SCK*%
X42245000Y29857500D03*
%TO.P,U2,3,SI*%
%TO.N,SDIO*%
X39705000Y29857500D03*
%TO.P,U2,4,VSS*%
%TO.N,GND*%
X37165000Y29857500D03*
%TO.P,U2,5,PA0*%
%TO.N,Net-(U2-PA0)*%
X37165000Y22237500D03*
%TO.P,U2,6,PW0*%
%TO.N,Net-(U2-PW0)*%
X39705000Y22237500D03*
%TO.P,U2,7,PB0*%
%TO.N,GND*%
X42245000Y22237500D03*
%TO.P,U2,8,VDD*%
%TO.N,+5V*%
X44785000Y22237500D03*
%TD*%
D14*
%TO.P,U3,1,OUT*%
%TO.N,IR*%
X12390000Y40767000D03*
D15*
%TO.P,U3,2,GND*%
%TO.N,GND*%
X9850000Y40767000D03*
%TO.P,U3,3,Vs*%
%TO.N,+5V*%
X7310000Y40767000D03*
%TD*%
D16*
%TO.P,C8,1*%
%TO.N,Net-(C8-Pad1)*%
X5647500Y24341000D03*
%TO.P,C8,2*%
%TO.N,GND*%
X7722500Y24341000D03*
%TD*%
D17*
%TO.P,C4,1*%
%TO.N,Net-(U2-PW0)*%
X39715000Y19707500D03*
%TO.P,C4,2*%
%TO.N,L_OUT*%
X39715000Y17632500D03*
%TD*%
D18*
%TO.P,C7,1*%
%TO.N,+5V*%
X34635000Y28256500D03*
%TO.P,C7,2*%
%TO.N,GND*%
X34635000Y30331500D03*
%TD*%
D19*
%TO.P,R3,1*%
%TO.N,Net-(C9-Pad1)*%
X38810000Y24384000D03*
%TO.P,R3,2*%
%TO.N,Net-(U2-PA0)*%
X36810000Y24384000D03*
%TD*%
D16*
%TO.P,C5,1*%
%TO.N,+5V*%
X7542500Y38298500D03*
%TO.P,C5,2*%
%TO.N,GND*%
X9617500Y38298500D03*
%TD*%
D18*
%TO.P,C6,1*%
%TO.N,+5V*%
X12400000Y22470000D03*
%TO.P,C6,2*%
%TO.N,GND*%
X12400000Y24545000D03*
%TD*%
D20*
%TO.P,R4,1*%
%TO.N,Net-(U2-PA0)*%
X42255000Y17707500D03*
%TO.P,R4,2*%
%TO.N,GND*%
X42255000Y19707500D03*
%TD*%
D21*
%TO.P,L2,1,1*%
%TO.N,+5V*%
X42645000Y26289000D03*
%TO.P,L2,2,2*%
%TO.N,Net-(C9-Pad1)*%
X40595000Y26289000D03*
%TD*%
%TO.P,L1,1,1*%
%TO.N,+5V*%
X7710000Y26246000D03*
%TO.P,L1,2,2*%
%TO.N,Net-(C8-Pad1)*%
X5660000Y26246000D03*
%TD*%
D19*
%TO.P,R1,1*%
%TO.N,Net-(C8-Pad1)*%
X3875000Y24341000D03*
%TO.P,R1,2*%
%TO.N,Net-(U1-PA0)*%
X1875000Y24341000D03*
%TD*%
D18*
%TO.P,C1,1*%
%TO.N,R_IN*%
X2240000Y17622500D03*
%TO.P,C1,2*%
%TO.N,Net-(U1-PA0)*%
X2240000Y19697500D03*
%TD*%
D16*
%TO.P,C9,1*%
%TO.N,Net-(C9-Pad1)*%
X40582500Y24384000D03*
%TO.P,C9,2*%
%TO.N,GND*%
X42657500Y24384000D03*
%TD*%
D20*
%TO.P,R2,1*%
%TO.N,Net-(U1-PA0)*%
X7320000Y17697500D03*
%TO.P,R2,2*%
%TO.N,GND*%
X7320000Y19697500D03*
%TD*%
D17*
%TO.P,C3,2*%
%TO.N,R_OUT*%
X4780000Y17622500D03*
%TO.P,C3,1*%
%TO.N,Net-(U1-PW0)*%
X4780000Y19697500D03*
%TD*%
D18*
%TO.P,C2,1*%
%TO.N,L_IN*%
X37175000Y17632500D03*
%TO.P,C2,2*%
%TO.N,Net-(U2-PA0)*%
X37175000Y19707500D03*
%TD*%
D22*
%TO.N,GND*%
X34615000Y31707000D03*
X9596000Y36774500D03*
X10993000Y38298500D03*
X10866000Y24595000D03*
X12390000Y25992000D03*
%TO.N,SCK*%
X19756000Y37676000D03*
X24709000Y32723000D03*
%TO.N,CS*%
X21915000Y31580000D03*
%TO.N,SDIO*%
X23185000Y32469000D03*
X20137000Y35517000D03*
%TO.N,CS*%
X18232000Y38692000D03*
%TO.N,+5V*%
X13914000Y22436000D03*
X7310000Y36139500D03*
%TD*%
D23*
%TO.N,+5V*%
X42645000Y27741000D02*
X42645000Y26289000D01*
X43815000Y26289000D02*
X42645000Y26289000D01*
X44785000Y25319000D02*
X43815000Y26289000D01*
X44785000Y22237500D02*
X44785000Y25319000D01*
%TO.N,Net-(U2-PA0)*%
X37165000Y24029000D02*
X36810000Y24384000D01*
X37165000Y22237500D02*
X37165000Y24029000D01*
%TO.N,SCK*%
X23820000Y31834000D02*
X24709000Y32723000D01*
X23820000Y22055000D02*
X23820000Y31834000D01*
X14432500Y36162500D02*
X18221500Y36162500D01*
%TO.N,CS*%
X22550000Y30945000D02*
X21915000Y31580000D01*
X22550000Y22055000D02*
X22550000Y30945000D01*
%TO.N,SDIO*%
X13924500Y33622500D02*
X18221500Y33622500D01*
X23185000Y14412500D02*
X23185000Y32469000D01*
X15770000Y6997500D02*
X23185000Y14412500D01*
X20126500Y35527500D02*
X18221500Y33622500D01*
X26085000Y41486000D02*
X20126500Y35527500D01*
X34488000Y41486000D02*
X26085000Y41486000D01*
%TO.N,SCK*%
X24145000Y42086000D02*
X18221500Y36162500D01*
X34736528Y42086000D02*
X24145000Y42086000D01*
%TO.N,CS*%
X22226000Y42686000D02*
X18232000Y38692000D01*
X34985056Y42686000D02*
X22226000Y42686000D01*
%TO.N,SDIO*%
X11974000Y31672000D02*
X13924500Y33622500D01*
%TO.N,SCK*%
X11374000Y33104000D02*
X14432500Y36162500D01*
%TO.N,CS*%
X18221500Y38702500D02*
X18232000Y38692000D01*
X14178500Y38702500D02*
X18221500Y38702500D01*
X9850000Y34374000D02*
X14178500Y38702500D01*
%TO.N,SDIO*%
X39705000Y36269000D02*
X39705000Y29857500D01*
X11974000Y28672972D02*
X11974000Y31672000D01*
X8376972Y27932000D02*
X11233028Y27932000D01*
X34488000Y41486000D02*
X39705000Y36269000D01*
X6233014Y28384486D02*
X7924486Y28384486D01*
X11233028Y27932000D02*
X11974000Y28672972D01*
X4770000Y29847500D02*
X6233014Y28384486D01*
X7924486Y28384486D02*
X8376972Y27932000D01*
%TO.N,SCK*%
X42245000Y34577528D02*
X42245000Y29857500D01*
X34736528Y42086000D02*
X42245000Y34577528D01*
X11374000Y28921500D02*
X11374000Y33104000D01*
X10984500Y28532000D02*
X11374000Y28921500D01*
X7310000Y29847500D02*
X8625500Y28532000D01*
X8625500Y28532000D02*
X10984500Y28532000D01*
%TO.N,CS*%
X9850000Y34374000D02*
X9850000Y29847500D01*
X44785000Y29857500D02*
X44785000Y32886056D01*
X44785000Y32886056D02*
X34985056Y42686000D01*
%TO.N,+5V*%
X12434000Y22436000D02*
X12400000Y22470000D01*
X13914000Y22436000D02*
X12434000Y22436000D01*
X7310000Y38066000D02*
X7542500Y38298500D01*
X7310000Y36139500D02*
X7310000Y38066000D01*
%TO.N,SCK*%
X23820000Y11647500D02*
X23820000Y22055000D01*
X31010000Y4457500D02*
X23820000Y11647500D01*
%TO.N,CS*%
X22550000Y14626028D02*
X22550000Y22055000D01*
X15770000Y9537500D02*
X17461472Y9537500D01*
X17461472Y9537500D02*
X22550000Y14626028D01*
%TO.N,R_IN*%
X13181333Y2370000D02*
X38425000Y2370000D01*
X2865000Y9355000D02*
X11312500Y9355000D01*
X2240000Y9980000D02*
X2865000Y9355000D01*
X2240000Y17622500D02*
X2240000Y9980000D01*
X11765000Y8902500D02*
X11765000Y3786333D01*
X38425000Y2370000D02*
X39695000Y3640000D01*
X11765000Y3786333D02*
X13181333Y2370000D01*
X39695000Y8720000D02*
X38450000Y9965000D01*
X39695000Y3640000D02*
X39695000Y8720000D01*
X11312500Y9355000D02*
X11765000Y8902500D01*
X38450000Y9965000D02*
X38450000Y11410000D01*
%TO.N,Net-(U1-PA0)*%
X2230000Y19707500D02*
X2240000Y19697500D01*
X2230000Y22227500D02*
X2230000Y23986000D01*
X2240000Y19697500D02*
X3252500Y18685000D01*
X2230000Y22227500D02*
X2230000Y19707500D01*
X2230000Y23986000D02*
X1875000Y24341000D01*
X6332500Y18685000D02*
X7320000Y17697500D01*
X3252500Y18685000D02*
X6332500Y18685000D01*
%TO.N,L_IN*%
X36530000Y15887500D02*
X36530000Y5180000D01*
X37175000Y16532500D02*
X36530000Y15887500D01*
X37175000Y17632500D02*
X37175000Y16532500D01*
X36530000Y5180000D02*
X37800000Y3910000D01*
%TO.N,Net-(U2-PA0)*%
X37165000Y22237500D02*
X37165000Y19717500D01*
X37175000Y19707500D02*
X38187500Y18695000D01*
X37165000Y19717500D02*
X37175000Y19707500D01*
X38187500Y18695000D02*
X41267500Y18695000D01*
X41267500Y18695000D02*
X42255000Y17707500D01*
%TO.N,Net-(U1-PW0)*%
X4770000Y22227500D02*
X4770000Y19707500D01*
X4770000Y19707500D02*
X4780000Y19697500D01*
%TO.N,R_OUT*%
X4780000Y16522500D02*
X4780000Y17622500D01*
X3790000Y15532500D02*
X3790000Y11410000D01*
X4780000Y16522500D02*
X3790000Y15532500D01*
%TO.N,Net-(U2-PW0)*%
X39705000Y19717500D02*
X39715000Y19707500D01*
X39705000Y22237500D02*
X39705000Y19717500D01*
%TO.N,L_OUT*%
X39705000Y17622500D02*
X39705000Y13982500D01*
X39715000Y17632500D02*
X39705000Y17622500D01*
X40355000Y13332500D02*
X40355000Y3451472D01*
X40355000Y3451472D02*
X38673528Y1770000D01*
X39705000Y13982500D02*
X40355000Y13332500D01*
X11080000Y1770000D02*
X8940000Y3910000D01*
X38673528Y1770000D02*
X11080000Y1770000D01*
%TO.N,+5V*%
X9850000Y22227500D02*
X9850000Y25230000D01*
X8834000Y26246000D02*
X7710000Y26246000D01*
X41854000Y28532000D02*
X34910500Y28532000D01*
X7310000Y40767000D02*
X7310000Y38531000D01*
X42645000Y27741000D02*
X41854000Y28532000D01*
X34635000Y28256500D02*
X33493500Y28256500D01*
X9850000Y22227500D02*
X12157500Y22227500D01*
X9850000Y25230000D02*
X8834000Y26246000D01*
X32710000Y30697500D02*
X31010000Y32397500D01*
X33493500Y28256500D02*
X32710000Y29040000D01*
X32710000Y29040000D02*
X32710000Y30697500D01*
X12157500Y22227500D02*
X12400000Y22470000D01*
X7310000Y38531000D02*
X7542500Y38298500D01*
X34910500Y28532000D02*
X34635000Y28256500D01*
%TO.N,GND*%
X7310000Y19707500D02*
X7320000Y19697500D01*
X7310000Y22227500D02*
X7310000Y19707500D01*
X42245000Y19717500D02*
X42255000Y19707500D01*
X42245000Y22237500D02*
X42245000Y19717500D01*
%TO.N,Net-(C8-Pad1)*%
X5660000Y24353500D02*
X5647500Y24341000D01*
X3875000Y24341000D02*
X5647500Y24341000D01*
X5660000Y26246000D02*
X5660000Y24353500D01*
%TO.N,Net-(C9-Pad1)*%
X40582500Y26276500D02*
X40595000Y26289000D01*
X38810000Y24384000D02*
X40582500Y24384000D01*
X40582500Y24384000D02*
X40582500Y26276500D01*
%TD*%
%TA.AperFunction,Conductor*%
%TO.N,GND*%
G36*
X46642539Y44679815D02*
G01*
X46688294Y44627011D01*
X46699500Y44575500D01*
X46699500Y424500D01*
X46679815Y357461D01*
X46627011Y311706D01*
X46575500Y300500D01*
X424500Y300500D01*
X357461Y320185D01*
X311706Y372989D01*
X300500Y424500D01*
X300500Y3910000D01*
X1934357Y3910000D01*
X1954884Y3688465D01*
X1954885Y3688463D01*
X2015769Y3474477D01*
X2015775Y3474462D01*
X2114938Y3275317D01*
X2114943Y3275309D01*
X2249020Y3097762D01*
X2413437Y2947877D01*
X2413439Y2947875D01*
X2602595Y2830755D01*
X2602596Y2830755D01*
X2602599Y2830753D01*
X2810060Y2750382D01*
X3028757Y2709500D01*
X3028759Y2709500D01*
X3251241Y2709500D01*
X3251243Y2709500D01*
X3469940Y2750382D01*
X3677401Y2830753D01*
X3866562Y2947876D01*
X4030981Y3097764D01*
X4165058Y3275311D01*
X4264229Y3474472D01*
X4325115Y3688464D01*
X4345643Y3910000D01*
X4325115Y4131536D01*
X4264229Y4345528D01*
X4264224Y4345539D01*
X4165061Y4544684D01*
X4165056Y4544692D01*
X4030979Y4722239D01*
X3866562Y4872124D01*
X3866560Y4872126D01*
X3677404Y4989246D01*
X3677398Y4989248D01*
X3469940Y5069618D01*
X3251243Y5110500D01*
X3028757Y5110500D01*
X2810060Y5069618D01*
X2721119Y5035162D01*
X2602601Y4989248D01*
X2602595Y4989246D01*
X2413439Y4872126D01*
X2413437Y4872124D01*
X2249020Y4722239D01*
X2114943Y4544692D01*
X2114938Y4544684D01*
X2015775Y4345539D01*
X2015769Y4345524D01*
X1954885Y4131538D01*
X1954884Y4131536D01*
X1934357Y3910001D01*
X1934357Y3910000D01*
X300500Y3910000D01*
X300500Y7366067D01*
X2785668Y7366067D01*
X2801058Y7278790D01*
X2816135Y7193289D01*
X2885623Y7032196D01*
X2885624Y7032194D01*
X2885626Y7032191D01*
X2911453Y6997500D01*
X2990390Y6891470D01*
X3124786Y6778698D01*
X3202488Y6739675D01*
X3281562Y6699962D01*
X3281563Y6699962D01*
X3281567Y6699960D01*
X3452279Y6659500D01*
X3452282Y6659500D01*
X3583701Y6659500D01*
X3583709Y6659500D01*
X3714255Y6674759D01*
X3879117Y6734763D01*
X4025696Y6831170D01*
X4146092Y6958782D01*
X4233812Y7110719D01*
X4284130Y7278790D01*
X4289213Y7366067D01*
X7785668Y7366067D01*
X7801058Y7278790D01*
X7816135Y7193289D01*
X7885623Y7032196D01*
X7885624Y7032194D01*
X7885626Y7032191D01*
X7911453Y6997500D01*
X7990390Y6891470D01*
X8124786Y6778698D01*
X8202488Y6739675D01*
X8281562Y6699962D01*
X8281563Y6699962D01*
X8281567Y6699960D01*
X8452279Y6659500D01*
X8452282Y6659500D01*
X8583701Y6659500D01*
X8583709Y6659500D01*
X8714255Y6674759D01*
X8879117Y6734763D01*
X9025696Y6831170D01*
X9146092Y6958782D01*
X9233812Y7110719D01*
X9284130Y7278790D01*
X9294331Y7453935D01*
X9263865Y7626711D01*
X9194377Y7787804D01*
X9089610Y7928530D01*
X9036933Y7972731D01*
X8955214Y8041302D01*
X8955212Y8041303D01*
X8798437Y8120039D01*
X8798433Y8120040D01*
X8627721Y8160500D01*
X8496291Y8160500D01*
X8391854Y8148293D01*
X8365743Y8145241D01*
X8365740Y8145240D01*
X8200884Y8085238D01*
X8200880Y8085236D01*
X8054306Y7988833D01*
X8054305Y7988832D01*
X7933910Y7861222D01*
X7846188Y7709282D01*
X7795870Y7541211D01*
X7795869Y7541206D01*
X7785668Y7366067D01*
X4289213Y7366067D01*
X4294331Y7453935D01*
X4263865Y7626711D01*
X4194377Y7787804D01*
X4089610Y7928530D01*
X4036933Y7972731D01*
X3955214Y8041302D01*
X3955212Y8041303D01*
X3798437Y8120039D01*
X3798433Y8120040D01*
X3627721Y8160500D01*
X3496291Y8160500D01*
X3391854Y8148293D01*
X3365743Y8145241D01*
X3365740Y8145240D01*
X3200884Y8085238D01*
X3200880Y8085236D01*
X3054306Y7988833D01*
X3054305Y7988832D01*
X2933910Y7861222D01*
X2846188Y7709282D01*
X2795870Y7541211D01*
X2795869Y7541206D01*
X2785668Y7366067D01*
X300500Y7366067D01*
X300500Y23843130D01*
X1024500Y23843130D01*
X1024501Y23843124D01*
X1030908Y23783517D01*
X1081202Y23648672D01*
X1081206Y23648665D01*
X1167452Y23533456D01*
X1167455Y23533453D01*
X1282664Y23447207D01*
X1282671Y23447203D01*
X1302228Y23439909D01*
X1417517Y23396909D01*
X1477127Y23390500D01*
X1680499Y23390501D01*
X1747538Y23370817D01*
X1793293Y23318013D01*
X1804499Y23266501D01*
X1804499Y23265539D01*
X1784814Y23198500D01*
X1738954Y23156182D01*
X1643549Y23105185D01*
X1483589Y22973911D01*
X1360295Y22823674D01*
X1352315Y22813950D01*
X1352164Y22813667D01*
X1254769Y22631457D01*
X1254768Y22631455D01*
X1254768Y22631454D01*
X1247898Y22608808D01*
X1194699Y22433433D01*
X1174417Y22227500D01*
X1194699Y22021568D01*
X1214775Y21955388D01*
X1254768Y21823546D01*
X1352315Y21641050D01*
X1359742Y21632000D01*
X1483589Y21481090D01*
X1614864Y21373357D01*
X1643546Y21349818D01*
X1643549Y21349816D01*
X1643551Y21349814D01*
X1682054Y21329234D01*
X1738953Y21298821D01*
X1788797Y21249860D01*
X1804500Y21189463D01*
X1804500Y20656277D01*
X1784815Y20589238D01*
X1732011Y20543483D01*
X1693755Y20532987D01*
X1657516Y20529091D01*
X1522671Y20478798D01*
X1522664Y20478794D01*
X1407455Y20392548D01*
X1407452Y20392545D01*
X1321206Y20277336D01*
X1321202Y20277329D01*
X1270910Y20142487D01*
X1270909Y20142483D01*
X1264500Y20082873D01*
X1264500Y20082866D01*
X1264500Y20082865D01*
X1264500Y19312130D01*
X1264501Y19312124D01*
X1270908Y19252517D01*
X1321202Y19117672D01*
X1321206Y19117665D01*
X1407452Y19002456D01*
X1407455Y19002453D01*
X1522664Y18916207D01*
X1522671Y18916203D01*
X1554987Y18904150D01*
X1657517Y18865909D01*
X1717127Y18859500D01*
X2424889Y18859501D01*
X2491928Y18839817D01*
X2512570Y18823182D01*
X2663571Y18672181D01*
X2697056Y18610858D01*
X2692072Y18541166D01*
X2650200Y18485233D01*
X2584736Y18460816D01*
X2575890Y18460500D01*
X1717129Y18460500D01*
X1717123Y18460499D01*
X1657516Y18454092D01*
X1522671Y18403798D01*
X1522664Y18403794D01*
X1407455Y18317548D01*
X1407452Y18317545D01*
X1321206Y18202336D01*
X1321202Y18202329D01*
X1270911Y18067489D01*
X1270909Y18067483D01*
X1264500Y18007873D01*
X1264500Y18007866D01*
X1264500Y18007865D01*
X1264500Y17237130D01*
X1264501Y17237124D01*
X1270908Y17177517D01*
X1321202Y17042672D01*
X1321206Y17042665D01*
X1407452Y16927456D01*
X1407455Y16927453D01*
X1522664Y16841207D01*
X1522671Y16841203D01*
X1657516Y16790909D01*
X1703756Y16785937D01*
X1768307Y16759198D01*
X1808154Y16701805D01*
X1814499Y16662648D01*
X1814499Y9996040D01*
X1814500Y9996030D01*
X1814500Y9912606D01*
X1821962Y9889642D01*
X1826503Y9870727D01*
X1827353Y9865363D01*
X1830281Y9846873D01*
X1841243Y9825359D01*
X1848688Y9807385D01*
X1856150Y9784421D01*
X1856151Y9784419D01*
X1867721Y9768495D01*
X1870341Y9764889D01*
X1880508Y9748297D01*
X1891469Y9726784D01*
X1891471Y9726781D01*
X1891472Y9726780D01*
X1915446Y9702807D01*
X1915446Y9702806D01*
X2516472Y9101780D01*
X2611780Y9006472D01*
X2633300Y8995507D01*
X2649875Y8985351D01*
X2669419Y8971151D01*
X2692381Y8963691D01*
X2710354Y8956247D01*
X2731874Y8945281D01*
X2755724Y8941505D01*
X2774645Y8936961D01*
X2796489Y8929864D01*
X2797607Y8929500D01*
X2831512Y8929500D01*
X11084890Y8929500D01*
X11151929Y8909815D01*
X11172566Y8893186D01*
X11303182Y8762571D01*
X11336666Y8701250D01*
X11339500Y8674891D01*
X11339500Y3718939D01*
X11346962Y3695975D01*
X11351503Y3677060D01*
X11354470Y3658323D01*
X11355281Y3653206D01*
X11366243Y3631692D01*
X11373688Y3613718D01*
X11381150Y3590753D01*
X11395340Y3571223D01*
X11405508Y3554630D01*
X11416470Y3533115D01*
X12542404Y2407181D01*
X12575889Y2345858D01*
X12570905Y2276166D01*
X12529033Y2220233D01*
X12463569Y2195816D01*
X12454723Y2195500D01*
X11307610Y2195500D01*
X11240571Y2215185D01*
X11219929Y2231819D01*
X10096495Y3355253D01*
X10063010Y3416576D01*
X10064909Y3476866D01*
X10125115Y3688464D01*
X10145643Y3910000D01*
X10125115Y4131536D01*
X10064229Y4345528D01*
X10064224Y4345539D01*
X9965061Y4544684D01*
X9965056Y4544692D01*
X9830979Y4722239D01*
X9666562Y4872124D01*
X9666560Y4872126D01*
X9477404Y4989246D01*
X9477398Y4989248D01*
X9269940Y5069618D01*
X9051243Y5110500D01*
X8828757Y5110500D01*
X8610060Y5069618D01*
X8521119Y5035162D01*
X8402601Y4989248D01*
X8402595Y4989246D01*
X8213439Y4872126D01*
X8213437Y4872124D01*
X8049020Y4722239D01*
X7914943Y4544692D01*
X7914938Y4544684D01*
X7815775Y4345539D01*
X7815769Y4345524D01*
X7754885Y4131538D01*
X7754884Y4131536D01*
X7734357Y3910001D01*
X7734357Y3910000D01*
X7754884Y3688465D01*
X7754885Y3688463D01*
X7815769Y3474477D01*
X7815775Y3474462D01*
X7914938Y3275317D01*
X7914943Y3275309D01*
X8049020Y3097762D01*
X8213437Y2947877D01*
X8213439Y2947875D01*
X8402595Y2830755D01*
X8402596Y2830755D01*
X8402599Y2830753D01*
X8610060Y2750382D01*
X8828757Y2709500D01*
X8828759Y2709500D01*
X9051241Y2709500D01*
X9051243Y2709500D01*
X9269940Y2750382D01*
X9358883Y2784840D01*
X9428506Y2790702D01*
X9490246Y2757993D01*
X9491357Y2756895D01*
X10731472Y1516780D01*
X10826780Y1421472D01*
X10848299Y1410508D01*
X10864878Y1400349D01*
X10884419Y1386151D01*
X10907381Y1378691D01*
X10925354Y1371247D01*
X10946874Y1360281D01*
X10970724Y1356505D01*
X10989645Y1351961D01*
X11011489Y1344864D01*
X11012607Y1344500D01*
X11012608Y1344500D01*
X38740920Y1344500D01*
X38740921Y1344500D01*
X38763888Y1351964D01*
X38782804Y1356505D01*
X38806654Y1360281D01*
X38828164Y1371243D01*
X38846142Y1378690D01*
X38869109Y1386151D01*
X38888646Y1400347D01*
X38905234Y1410512D01*
X38926748Y1421472D01*
X39022056Y1516780D01*
X39022056Y1516781D01*
X40679554Y3174278D01*
X40679553Y3174279D01*
X40703525Y3198249D01*
X40703525Y3198250D01*
X40703528Y3198252D01*
X40714490Y3219768D01*
X40724652Y3236352D01*
X40738850Y3255892D01*
X40746314Y3278867D01*
X40753751Y3296822D01*
X40764719Y3318346D01*
X40768496Y3342201D01*
X40773034Y3361106D01*
X40780500Y3384079D01*
X40780500Y3518865D01*
X40780500Y3518866D01*
X40780500Y3910000D01*
X42394357Y3910000D01*
X42414884Y3688465D01*
X42414885Y3688463D01*
X42475769Y3474477D01*
X42475775Y3474462D01*
X42574938Y3275317D01*
X42574943Y3275309D01*
X42709020Y3097762D01*
X42873437Y2947877D01*
X42873439Y2947875D01*
X43062595Y2830755D01*
X43062596Y2830755D01*
X43062599Y2830753D01*
X43270060Y2750382D01*
X43488757Y2709500D01*
X43488759Y2709500D01*
X43711241Y2709500D01*
X43711243Y2709500D01*
X43929940Y2750382D01*
X44137401Y2830753D01*
X44326562Y2947876D01*
X44490981Y3097764D01*
X44625058Y3275311D01*
X44724229Y3474472D01*
X44785115Y3688464D01*
X44805643Y3910000D01*
X44785115Y4131536D01*
X44724229Y4345528D01*
X44724224Y4345539D01*
X44625061Y4544684D01*
X44625056Y4544692D01*
X44490979Y4722239D01*
X44326562Y4872124D01*
X44326560Y4872126D01*
X44137404Y4989246D01*
X44137398Y4989248D01*
X43929940Y5069618D01*
X43711243Y5110500D01*
X43488757Y5110500D01*
X43270060Y5069618D01*
X43181119Y5035162D01*
X43062601Y4989248D01*
X43062595Y4989246D01*
X42873439Y4872126D01*
X42873437Y4872124D01*
X42709020Y4722239D01*
X42574943Y4544692D01*
X42574938Y4544684D01*
X42475775Y4345539D01*
X42475769Y4345524D01*
X42414885Y4131538D01*
X42414884Y4131536D01*
X42394357Y3910001D01*
X42394357Y3910000D01*
X40780500Y3910000D01*
X40780500Y7366067D01*
X42445668Y7366067D01*
X42461058Y7278790D01*
X42476135Y7193289D01*
X42545623Y7032196D01*
X42545624Y7032194D01*
X42545626Y7032191D01*
X42571453Y6997500D01*
X42650390Y6891470D01*
X42784786Y6778698D01*
X42862488Y6739675D01*
X42941562Y6699962D01*
X42941563Y6699962D01*
X42941567Y6699960D01*
X43112279Y6659500D01*
X43112282Y6659500D01*
X43243701Y6659500D01*
X43243709Y6659500D01*
X43374255Y6674759D01*
X43539117Y6734763D01*
X43685696Y6831170D01*
X43806092Y6958782D01*
X43893812Y7110719D01*
X43944130Y7278790D01*
X43954331Y7453935D01*
X43923865Y7626711D01*
X43854377Y7787804D01*
X43749610Y7928530D01*
X43696933Y7972731D01*
X43615214Y8041302D01*
X43615212Y8041303D01*
X43458437Y8120039D01*
X43458433Y8120040D01*
X43287721Y8160500D01*
X43156291Y8160500D01*
X43051854Y8148293D01*
X43025743Y8145241D01*
X43025740Y8145240D01*
X42860884Y8085238D01*
X42860880Y8085236D01*
X42714306Y7988833D01*
X42714305Y7988832D01*
X42593910Y7861222D01*
X42506188Y7709282D01*
X42455870Y7541211D01*
X42455869Y7541206D01*
X42445668Y7366067D01*
X40780500Y7366067D01*
X40780500Y11410000D01*
X41744859Y11410000D01*
X41765378Y11188561D01*
X41826240Y10974650D01*
X41925364Y10775581D01*
X41925369Y10775573D01*
X42017197Y10653975D01*
X42445323Y11082101D01*
X42522075Y10982075D01*
X42622099Y10905324D01*
X42193040Y10476265D01*
X42223741Y10448277D01*
X42412820Y10331203D01*
X42412822Y10331202D01*
X42620195Y10250866D01*
X42838807Y10210000D01*
X43061193Y10210000D01*
X43279804Y10250866D01*
X43487177Y10331202D01*
X43487179Y10331203D01*
X43676258Y10448276D01*
X43676258Y10448277D01*
X43706959Y10476265D01*
X43277899Y10905324D01*
X43377925Y10982075D01*
X43454677Y11082100D01*
X43882801Y10653976D01*
X43974630Y10775573D01*
X43974635Y10775581D01*
X44073759Y10974650D01*
X44134621Y11188561D01*
X44155141Y11410000D01*
X44155141Y11410001D01*
X44134621Y11631440D01*
X44073759Y11845351D01*
X43974635Y12044420D01*
X43974630Y12044428D01*
X43882801Y12166027D01*
X43454675Y11737901D01*
X43377925Y11837925D01*
X43277899Y11914677D01*
X43706959Y12343737D01*
X43676258Y12371724D01*
X43487179Y12488798D01*
X43487177Y12488799D01*
X43279804Y12569135D01*
X43061193Y12610000D01*
X42838807Y12610000D01*
X42620195Y12569135D01*
X42412822Y12488799D01*
X42412820Y12488798D01*
X42223738Y12371722D01*
X42223737Y12371722D01*
X42193040Y12343738D01*
X42193040Y12343737D01*
X42622100Y11914677D01*
X42522075Y11837925D01*
X42445323Y11737901D01*
X42017197Y12166027D01*
X41925368Y12044426D01*
X41826240Y11845351D01*
X41765378Y11631440D01*
X41744859Y11410001D01*
X41744859Y11410000D01*
X40780500Y11410000D01*
X40780500Y13365988D01*
X40780500Y13365989D01*
X40780500Y13399893D01*
X40780500Y13399894D01*
X40780499Y13399899D01*
X40773039Y13422857D01*
X40768495Y13441781D01*
X40764719Y13465626D01*
X40753757Y13487138D01*
X40746309Y13505121D01*
X40738850Y13528080D01*
X40738850Y13528081D01*
X40724653Y13547622D01*
X40714491Y13564204D01*
X40703528Y13585720D01*
X40608220Y13681028D01*
X40397106Y13892142D01*
X40166819Y14122430D01*
X40133334Y14183753D01*
X40130500Y14210111D01*
X40130500Y16671574D01*
X40150185Y16738613D01*
X40202989Y16784368D01*
X40241245Y16794864D01*
X40297483Y16800909D01*
X40432331Y16851204D01*
X40547546Y16937454D01*
X40633796Y17052669D01*
X40684091Y17187517D01*
X40690500Y17247127D01*
X40690499Y18017872D01*
X40684091Y18077483D01*
X40684089Y18077489D01*
X40674885Y18102168D01*
X40669901Y18171860D01*
X40703387Y18233182D01*
X40764711Y18266667D01*
X40791067Y18269500D01*
X41039890Y18269500D01*
X41106929Y18249815D01*
X41127571Y18233181D01*
X41268181Y18092571D01*
X41301666Y18031248D01*
X41304500Y18004890D01*
X41304500Y17309630D01*
X41304501Y17309624D01*
X41310908Y17250017D01*
X41361202Y17115172D01*
X41361206Y17115165D01*
X41447452Y16999956D01*
X41447455Y16999953D01*
X41562664Y16913707D01*
X41562671Y16913703D01*
X41697517Y16863409D01*
X41697516Y16863409D01*
X41704444Y16862665D01*
X41757127Y16857000D01*
X42752872Y16857001D01*
X42812483Y16863409D01*
X42947331Y16913704D01*
X43062546Y16999954D01*
X43148796Y17115169D01*
X43199091Y17250017D01*
X43205500Y17309627D01*
X43205499Y18105372D01*
X43199091Y18164983D01*
X43187145Y18197011D01*
X43148797Y18299829D01*
X43148793Y18299836D01*
X43062547Y18415045D01*
X43062544Y18415048D01*
X42947335Y18501294D01*
X42947328Y18501298D01*
X42812482Y18551592D01*
X42812483Y18551592D01*
X42752883Y18557999D01*
X42752881Y18558000D01*
X42752873Y18558000D01*
X42752865Y18558000D01*
X42057610Y18558000D01*
X41990571Y18577685D01*
X41969929Y18594319D01*
X41918429Y18645819D01*
X41884944Y18707142D01*
X41889928Y18776834D01*
X41931800Y18832767D01*
X41997264Y18857184D01*
X42006110Y18857500D01*
X42130000Y18857500D01*
X42130000Y19582500D01*
X42380000Y19582500D01*
X42380000Y18857500D01*
X42752828Y18857500D01*
X42752844Y18857501D01*
X42812372Y18863902D01*
X42812379Y18863904D01*
X42947086Y18914146D01*
X42947093Y18914150D01*
X43062187Y19000310D01*
X43062190Y19000313D01*
X43148350Y19115407D01*
X43148354Y19115414D01*
X43198596Y19250121D01*
X43198598Y19250128D01*
X43204999Y19309656D01*
X43205000Y19309673D01*
X43205000Y19582500D01*
X42380000Y19582500D01*
X42130000Y19582500D01*
X41305000Y19582500D01*
X41305000Y19309656D01*
X41310581Y19257756D01*
X41298176Y19188996D01*
X41250566Y19137859D01*
X41187292Y19120500D01*
X40806868Y19120500D01*
X40739829Y19140185D01*
X40694074Y19192989D01*
X40683579Y19257756D01*
X40684091Y19262517D01*
X40690500Y19322127D01*
X40690499Y19832500D01*
X41305000Y19832500D01*
X42130000Y19832500D01*
X42130000Y20557500D01*
X42380000Y20557500D01*
X42380000Y19832500D01*
X43205000Y19832500D01*
X43205000Y20105328D01*
X43204999Y20105345D01*
X43198598Y20164873D01*
X43198596Y20164880D01*
X43148354Y20299587D01*
X43148350Y20299594D01*
X43062190Y20414688D01*
X43062187Y20414691D01*
X42947093Y20500851D01*
X42947086Y20500855D01*
X42812379Y20551097D01*
X42812372Y20551099D01*
X42752844Y20557500D01*
X42380000Y20557500D01*
X42130000Y20557500D01*
X41757155Y20557500D01*
X41697627Y20551099D01*
X41697620Y20551097D01*
X41562913Y20500855D01*
X41562906Y20500851D01*
X41447812Y20414691D01*
X41447809Y20414688D01*
X41361649Y20299594D01*
X41361645Y20299587D01*
X41311403Y20164880D01*
X41311401Y20164873D01*
X41305000Y20105345D01*
X41305000Y19832500D01*
X40690499Y19832500D01*
X40690499Y20092872D01*
X40684091Y20152483D01*
X40679467Y20164880D01*
X40633797Y20287329D01*
X40633793Y20287336D01*
X40547547Y20402545D01*
X40547544Y20402548D01*
X40432335Y20488794D01*
X40432328Y20488798D01*
X40297482Y20539092D01*
X40297484Y20539092D01*
X40241243Y20545138D01*
X40176692Y20571876D01*
X40136844Y20629269D01*
X40130499Y20668422D01*
X40130499Y21199464D01*
X40150184Y21266502D01*
X40196044Y21308820D01*
X40291450Y21359815D01*
X40451410Y21491090D01*
X40582685Y21651050D01*
X40680232Y21833546D01*
X40740300Y22031566D01*
X40760583Y22237500D01*
X40748271Y22362500D01*
X41202229Y22362500D01*
X41859812Y22362500D01*
X41840014Y22237500D01*
X41859812Y22112500D01*
X41202230Y22112500D01*
X41210191Y22031666D01*
X41270233Y21833734D01*
X41367728Y21651334D01*
X41367732Y21651327D01*
X41498944Y21491445D01*
X41658826Y21360233D01*
X41658833Y21360229D01*
X41841233Y21262734D01*
X42039165Y21202692D01*
X42119998Y21194732D01*
X42119999Y21194732D01*
X42119999Y21852312D01*
X42213519Y21837500D01*
X42276481Y21837500D01*
X42370000Y21852312D01*
X42370000Y21194731D01*
X42450834Y21202692D01*
X42648766Y21262734D01*
X42831166Y21360229D01*
X42831173Y21360233D01*
X42991055Y21491445D01*
X43122267Y21651327D01*
X43122271Y21651334D01*
X43219766Y21833734D01*
X43279808Y22031666D01*
X43287770Y22112500D01*
X42630188Y22112500D01*
X42649986Y22237500D01*
X42630188Y22362500D01*
X43287770Y22362500D01*
X43279808Y22443335D01*
X43219766Y22641267D01*
X43122271Y22823667D01*
X43122267Y22823674D01*
X42991055Y22983556D01*
X42831173Y23114768D01*
X42831166Y23114772D01*
X42717286Y23175642D01*
X42667442Y23224604D01*
X42651981Y23292742D01*
X42675813Y23358421D01*
X42731370Y23400790D01*
X42775739Y23409000D01*
X43042828Y23409000D01*
X43042844Y23409001D01*
X43102372Y23415402D01*
X43102379Y23415404D01*
X43237086Y23465646D01*
X43237093Y23465650D01*
X43352187Y23551810D01*
X43352190Y23551813D01*
X43438350Y23666907D01*
X43438354Y23666914D01*
X43488596Y23801621D01*
X43488598Y23801628D01*
X43494999Y23861156D01*
X43495000Y23861173D01*
X43495000Y24259000D01*
X41820000Y24259000D01*
X41820000Y23861156D01*
X41826401Y23801628D01*
X41826403Y23801621D01*
X41876645Y23666914D01*
X41876649Y23666907D01*
X41962809Y23551814D01*
X42054412Y23483239D01*
X42096283Y23427305D01*
X42101267Y23357613D01*
X42067782Y23296290D01*
X42016097Y23265312D01*
X41841236Y23212268D01*
X41658833Y23114772D01*
X41658826Y23114768D01*
X41498944Y22983556D01*
X41367732Y22823674D01*
X41367728Y22823667D01*
X41270233Y22641267D01*
X41210191Y22443335D01*
X41202229Y22362500D01*
X40748271Y22362500D01*
X40740300Y22443434D01*
X40680232Y22641454D01*
X40582685Y22823950D01*
X40507977Y22914983D01*
X40451410Y22983911D01*
X40304138Y23104772D01*
X40291450Y23115185D01*
X40198169Y23165045D01*
X40179278Y23175143D01*
X40129434Y23224106D01*
X40113974Y23292244D01*
X40137806Y23357923D01*
X40193364Y23400292D01*
X40237726Y23408501D01*
X40967872Y23408501D01*
X41027483Y23414909D01*
X41162331Y23465204D01*
X41277546Y23551454D01*
X41363796Y23666669D01*
X41414091Y23801517D01*
X41420500Y23861127D01*
X41420499Y24906872D01*
X41414091Y24966483D01*
X41405364Y24989880D01*
X41363797Y25101329D01*
X41363793Y25101336D01*
X41296261Y25191546D01*
X41277546Y25216546D01*
X41233211Y25249735D01*
X41191342Y25305667D01*
X41186358Y25375359D01*
X41219843Y25436682D01*
X41233207Y25448262D01*
X41277546Y25481454D01*
X41363796Y25596669D01*
X41414091Y25731517D01*
X41420500Y25791127D01*
X41420499Y26786872D01*
X41414091Y26846483D01*
X41363796Y26981331D01*
X41363795Y26981332D01*
X41363793Y26981336D01*
X41277547Y27096545D01*
X41277544Y27096548D01*
X41162335Y27182794D01*
X41162328Y27182798D01*
X41027486Y27233090D01*
X41027485Y27233091D01*
X41027483Y27233091D01*
X40967873Y27239500D01*
X40967863Y27239500D01*
X40222129Y27239500D01*
X40222123Y27239499D01*
X40162516Y27233092D01*
X40027671Y27182798D01*
X40027664Y27182794D01*
X39912455Y27096548D01*
X39912452Y27096545D01*
X39826206Y26981336D01*
X39826202Y26981329D01*
X39775908Y26846483D01*
X39769512Y26786989D01*
X39769501Y26786877D01*
X39769500Y26786865D01*
X39769500Y25791130D01*
X39769501Y25791124D01*
X39775908Y25731517D01*
X39826202Y25596672D01*
X39826206Y25596665D01*
X39912452Y25481456D01*
X39912455Y25481453D01*
X39944286Y25457624D01*
X39986157Y25401690D01*
X39991141Y25331999D01*
X39957655Y25270676D01*
X39944287Y25259092D01*
X39887452Y25216545D01*
X39795888Y25094231D01*
X39794244Y25095462D01*
X39753097Y25054326D01*
X39684822Y25039484D01*
X39619361Y25063911D01*
X39594422Y25088853D01*
X39517546Y25191546D01*
X39469283Y25227676D01*
X39402335Y25277794D01*
X39402328Y25277798D01*
X39267482Y25328092D01*
X39267483Y25328092D01*
X39207883Y25334499D01*
X39207881Y25334500D01*
X39207873Y25334500D01*
X39207864Y25334500D01*
X38412129Y25334500D01*
X38412123Y25334499D01*
X38352516Y25328092D01*
X38217671Y25277798D01*
X38217664Y25277794D01*
X38102455Y25191548D01*
X38102452Y25191545D01*
X38016206Y25076336D01*
X38016202Y25076329D01*
X37965908Y24941483D01*
X37959501Y24881884D01*
X37959501Y24881877D01*
X37959500Y24881865D01*
X37959500Y23886130D01*
X37959501Y23886124D01*
X37965908Y23826517D01*
X38016202Y23691672D01*
X38016206Y23691665D01*
X38102452Y23576456D01*
X38102455Y23576453D01*
X38217664Y23490207D01*
X38217671Y23490203D01*
X38352517Y23439909D01*
X38352516Y23439909D01*
X38359444Y23439165D01*
X38412127Y23433500D01*
X39207872Y23433501D01*
X39207873Y23433502D01*
X39211195Y23433679D01*
X39211251Y23432617D01*
X39275680Y23420994D01*
X39326818Y23373384D01*
X39344098Y23305685D01*
X39322034Y23239390D01*
X39278630Y23200751D01*
X39118550Y23115185D01*
X39118548Y23115184D01*
X39118547Y23115183D01*
X38958589Y22983911D01*
X38853096Y22855365D01*
X38827315Y22823950D01*
X38788643Y22751603D01*
X38729769Y22641457D01*
X38729768Y22641455D01*
X38729768Y22641454D01*
X38722898Y22618808D01*
X38669699Y22443433D01*
X38649417Y22237500D01*
X38669699Y22031568D01*
X38682474Y21989455D01*
X38724068Y21852335D01*
X38729769Y21833544D01*
X38736502Y21820947D01*
X38827315Y21651050D01*
X38837689Y21638409D01*
X38958589Y21491090D01*
X39089864Y21383357D01*
X39118546Y21359818D01*
X39118549Y21359816D01*
X39118551Y21359814D01*
X39137260Y21349814D01*
X39213953Y21308821D01*
X39263797Y21259860D01*
X39279500Y21199463D01*
X39279500Y20666277D01*
X39259815Y20599238D01*
X39207011Y20553483D01*
X39168755Y20542987D01*
X39132516Y20539091D01*
X38997671Y20488798D01*
X38997664Y20488794D01*
X38882455Y20402548D01*
X38882452Y20402545D01*
X38796206Y20287336D01*
X38796202Y20287329D01*
X38750530Y20164873D01*
X38745909Y20152483D01*
X38739500Y20092873D01*
X38739500Y20092866D01*
X38739500Y20092865D01*
X38739500Y19322130D01*
X38739501Y19322124D01*
X38746421Y19257753D01*
X38734014Y19188994D01*
X38686403Y19137857D01*
X38623131Y19120500D01*
X38415110Y19120500D01*
X38348071Y19140185D01*
X38327429Y19156819D01*
X38186818Y19297430D01*
X38153333Y19358753D01*
X38150499Y19385111D01*
X38150499Y20092871D01*
X38150498Y20092877D01*
X38144091Y20152484D01*
X38093797Y20287329D01*
X38093793Y20287336D01*
X38007547Y20402545D01*
X38007544Y20402548D01*
X37892335Y20488794D01*
X37892328Y20488798D01*
X37757482Y20539092D01*
X37757484Y20539092D01*
X37701243Y20545138D01*
X37636692Y20571876D01*
X37596844Y20629269D01*
X37590499Y20668422D01*
X37590499Y21199464D01*
X37610184Y21266502D01*
X37656044Y21308820D01*
X37751450Y21359815D01*
X37911410Y21491090D01*
X38042685Y21651050D01*
X38140232Y21833546D01*
X38200300Y22031566D01*
X38220583Y22237500D01*
X38200300Y22443434D01*
X38140232Y22641454D01*
X38042685Y22823950D01*
X37967977Y22914983D01*
X37911410Y22983911D01*
X37751451Y23115185D01*
X37656045Y23166182D01*
X37606202Y23215145D01*
X37590500Y23275539D01*
X37590500Y23635670D01*
X37602501Y23682686D01*
X37600697Y23683359D01*
X37638053Y23783518D01*
X37654091Y23826517D01*
X37660500Y23886127D01*
X37660499Y24881872D01*
X37654091Y24941483D01*
X37644766Y24966484D01*
X37603797Y25076329D01*
X37603793Y25076336D01*
X37517547Y25191545D01*
X37517544Y25191548D01*
X37402335Y25277794D01*
X37402328Y25277798D01*
X37267482Y25328092D01*
X37267483Y25328092D01*
X37207883Y25334499D01*
X37207881Y25334500D01*
X37207873Y25334500D01*
X37207864Y25334500D01*
X36412129Y25334500D01*
X36412123Y25334499D01*
X36352516Y25328092D01*
X36217671Y25277798D01*
X36217664Y25277794D01*
X36102455Y25191548D01*
X36102452Y25191545D01*
X36016206Y25076336D01*
X36016202Y25076329D01*
X35965908Y24941483D01*
X35959501Y24881884D01*
X35959501Y24881877D01*
X35959500Y24881865D01*
X35959500Y23886130D01*
X35959501Y23886124D01*
X35965908Y23826517D01*
X36016202Y23691672D01*
X36016206Y23691665D01*
X36102452Y23576456D01*
X36102455Y23576453D01*
X36217664Y23490207D01*
X36217671Y23490203D01*
X36236343Y23483239D01*
X36352517Y23439909D01*
X36412127Y23433500D01*
X36615500Y23433501D01*
X36682539Y23413817D01*
X36728294Y23361013D01*
X36739500Y23309501D01*
X36739500Y23275539D01*
X36719815Y23208500D01*
X36673955Y23166182D01*
X36578548Y23115185D01*
X36418589Y22983911D01*
X36313096Y22855365D01*
X36287315Y22823950D01*
X36248643Y22751603D01*
X36189769Y22641457D01*
X36189768Y22641455D01*
X36189768Y22641454D01*
X36182898Y22618808D01*
X36129699Y22443433D01*
X36109417Y22237500D01*
X36129699Y22031568D01*
X36142474Y21989455D01*
X36184068Y21852335D01*
X36189769Y21833544D01*
X36196502Y21820947D01*
X36287315Y21651050D01*
X36297689Y21638409D01*
X36418589Y21491090D01*
X36549864Y21383357D01*
X36578546Y21359818D01*
X36578549Y21359816D01*
X36578551Y21359814D01*
X36597260Y21349814D01*
X36673953Y21308821D01*
X36723797Y21259860D01*
X36739500Y21199463D01*
X36739500Y20666277D01*
X36719815Y20599238D01*
X36667011Y20553483D01*
X36628755Y20542987D01*
X36592516Y20539091D01*
X36457671Y20488798D01*
X36457664Y20488794D01*
X36342455Y20402548D01*
X36342452Y20402545D01*
X36256206Y20287336D01*
X36256202Y20287329D01*
X36210530Y20164873D01*
X36205909Y20152483D01*
X36199500Y20092873D01*
X36199500Y20092866D01*
X36199500Y20092865D01*
X36199500Y19322130D01*
X36199501Y19322124D01*
X36205908Y19262517D01*
X36256202Y19127672D01*
X36256206Y19127665D01*
X36342452Y19012456D01*
X36342455Y19012453D01*
X36457664Y18926207D01*
X36457671Y18926203D01*
X36484472Y18916207D01*
X36592517Y18875909D01*
X36652127Y18869500D01*
X37359889Y18869501D01*
X37426928Y18849817D01*
X37447570Y18833182D01*
X37598571Y18682181D01*
X37632056Y18620858D01*
X37627072Y18551166D01*
X37585200Y18495233D01*
X37519736Y18470816D01*
X37510890Y18470500D01*
X36652129Y18470500D01*
X36652123Y18470499D01*
X36592516Y18464092D01*
X36457671Y18413798D01*
X36457664Y18413794D01*
X36342455Y18327548D01*
X36342452Y18327545D01*
X36256206Y18212336D01*
X36256202Y18212329D01*
X36205911Y18077489D01*
X36205909Y18077483D01*
X36199500Y18017873D01*
X36199500Y18017866D01*
X36199500Y18017865D01*
X36199500Y17247130D01*
X36199501Y17247124D01*
X36205908Y17187517D01*
X36256202Y17052672D01*
X36256206Y17052665D01*
X36342452Y16937456D01*
X36342455Y16937453D01*
X36457664Y16851207D01*
X36457671Y16851203D01*
X36484472Y16841207D01*
X36592517Y16800909D01*
X36593196Y16800656D01*
X36649129Y16758785D01*
X36673547Y16693321D01*
X36658696Y16625048D01*
X36637544Y16596793D01*
X36181472Y16140722D01*
X36170510Y16119207D01*
X36160346Y16102622D01*
X36146152Y16083086D01*
X36146151Y16083083D01*
X36138688Y16060115D01*
X36131243Y16042142D01*
X36120280Y16020627D01*
X36116503Y15996778D01*
X36111962Y15977861D01*
X36104500Y15954896D01*
X36104500Y5112606D01*
X36111962Y5089642D01*
X36116503Y5070727D01*
X36117710Y5063108D01*
X36120281Y5046873D01*
X36131243Y5025359D01*
X36138688Y5007385D01*
X36146150Y4984421D01*
X36160341Y4964889D01*
X36170508Y4948297D01*
X36181469Y4926784D01*
X36181471Y4926781D01*
X36181472Y4926780D01*
X36205446Y4902807D01*
X36205446Y4902806D01*
X36444818Y4663434D01*
X36643503Y4464749D01*
X36676988Y4403426D01*
X36675089Y4343135D01*
X36614884Y4131534D01*
X36594357Y3910001D01*
X36594357Y3910000D01*
X36614884Y3688465D01*
X36614885Y3688463D01*
X36675769Y3474477D01*
X36675775Y3474462D01*
X36774938Y3275317D01*
X36774943Y3275309D01*
X36909020Y3097762D01*
X37004044Y3011137D01*
X37040326Y2951426D01*
X37038565Y2881579D01*
X36999322Y2823771D01*
X36935055Y2796356D01*
X36920506Y2795500D01*
X13408943Y2795500D01*
X13341904Y2815185D01*
X13321262Y2831819D01*
X12226819Y3926262D01*
X12193334Y3987585D01*
X12190500Y4013943D01*
X12190500Y4457500D01*
X14714417Y4457500D01*
X14734699Y4251568D01*
X14734700Y4251566D01*
X14794768Y4053546D01*
X14892315Y3871050D01*
X14919809Y3837548D01*
X15023589Y3711090D01*
X15094121Y3653207D01*
X15183550Y3579815D01*
X15366046Y3482268D01*
X15564066Y3422200D01*
X15564065Y3422200D01*
X15582529Y3420382D01*
X15770000Y3401917D01*
X15975934Y3422200D01*
X16173954Y3482268D01*
X16356450Y3579815D01*
X16516410Y3711090D01*
X16647685Y3871050D01*
X16745232Y4053546D01*
X16805300Y4251566D01*
X16825583Y4457500D01*
X16805300Y4663434D01*
X16745232Y4861454D01*
X16647685Y5043950D01*
X16591340Y5112607D01*
X16516410Y5203911D01*
X16398677Y5300531D01*
X16356450Y5335185D01*
X16173954Y5432732D01*
X15975934Y5492800D01*
X15975932Y5492801D01*
X15975934Y5492801D01*
X15770000Y5513083D01*
X15564067Y5492801D01*
X15366043Y5432731D01*
X15255898Y5373857D01*
X15183550Y5335185D01*
X15183548Y5335184D01*
X15183547Y5335183D01*
X15023589Y5203911D01*
X14892317Y5043953D01*
X14892315Y5043950D01*
X14872016Y5005974D01*
X14794769Y4861457D01*
X14734699Y4663433D01*
X14714417Y4457500D01*
X12190500Y4457500D01*
X12190500Y6997500D01*
X14714417Y6997500D01*
X14734699Y6791568D01*
X14734700Y6791566D01*
X14794768Y6593546D01*
X14892315Y6411050D01*
X14892317Y6411048D01*
X15023589Y6251090D01*
X15120209Y6171798D01*
X15183550Y6119815D01*
X15366046Y6022268D01*
X15564066Y5962200D01*
X15564065Y5962200D01*
X15582529Y5960382D01*
X15770000Y5941917D01*
X15975934Y5962200D01*
X16173954Y6022268D01*
X16356450Y6119815D01*
X16516410Y6251090D01*
X16647685Y6411050D01*
X16745232Y6593546D01*
X16805300Y6791566D01*
X16825583Y6997500D01*
X16805300Y7203434D01*
X16773896Y7306956D01*
X16773274Y7376822D01*
X16804875Y7430629D01*
X23182821Y13808574D01*
X23244142Y13842057D01*
X23313834Y13837073D01*
X23369767Y13795201D01*
X23394184Y13729737D01*
X23394500Y13720891D01*
X23394500Y11580106D01*
X23401962Y11557142D01*
X23406503Y11538227D01*
X23409470Y11519490D01*
X23410281Y11514373D01*
X23421243Y11492859D01*
X23428688Y11474885D01*
X23436150Y11451920D01*
X23450340Y11432390D01*
X23460508Y11415797D01*
X23471470Y11394282D01*
X29975122Y4890630D01*
X30008607Y4829307D01*
X30006102Y4766955D01*
X29974699Y4663433D01*
X29954417Y4457500D01*
X29974699Y4251568D01*
X29974700Y4251566D01*
X30034768Y4053546D01*
X30132315Y3871050D01*
X30159809Y3837548D01*
X30263589Y3711090D01*
X30334121Y3653207D01*
X30423550Y3579815D01*
X30606046Y3482268D01*
X30804066Y3422200D01*
X30804065Y3422200D01*
X30822529Y3420382D01*
X31010000Y3401917D01*
X31215934Y3422200D01*
X31413954Y3482268D01*
X31596450Y3579815D01*
X31756410Y3711090D01*
X31887685Y3871050D01*
X31985232Y4053546D01*
X32045300Y4251566D01*
X32065583Y4457500D01*
X32045300Y4663434D01*
X31985232Y4861454D01*
X31887685Y5043950D01*
X31831340Y5112607D01*
X31756410Y5203911D01*
X31638677Y5300531D01*
X31596450Y5335185D01*
X31413954Y5432732D01*
X31215934Y5492800D01*
X31215932Y5492801D01*
X31215934Y5492801D01*
X31010000Y5513083D01*
X30804067Y5492801D01*
X30700545Y5461398D01*
X30630678Y5460775D01*
X30576870Y5492378D01*
X29071747Y6997501D01*
X29954417Y6997501D01*
X29974699Y6791568D01*
X29974700Y6791566D01*
X30034768Y6593546D01*
X30132315Y6411050D01*
X30132317Y6411048D01*
X30263589Y6251090D01*
X30360209Y6171798D01*
X30423550Y6119815D01*
X30606046Y6022268D01*
X30804066Y5962200D01*
X30804065Y5962200D01*
X30824348Y5960203D01*
X31010000Y5941917D01*
X31215934Y5962200D01*
X31413954Y6022268D01*
X31596450Y6119815D01*
X31756410Y6251090D01*
X31887685Y6411050D01*
X31985232Y6593546D01*
X32045300Y6791566D01*
X32065583Y6997500D01*
X32045300Y7203434D01*
X31985232Y7401454D01*
X31887685Y7583950D01*
X31835702Y7647291D01*
X31756410Y7743911D01*
X31596452Y7875183D01*
X31596453Y7875183D01*
X31596450Y7875185D01*
X31413954Y7972732D01*
X31215934Y8032800D01*
X31215932Y8032801D01*
X31215934Y8032801D01*
X31010000Y8053083D01*
X30804067Y8032801D01*
X30606043Y7972731D01*
X30495898Y7913857D01*
X30423550Y7875185D01*
X30423548Y7875184D01*
X30423547Y7875183D01*
X30263589Y7743911D01*
X30132317Y7583953D01*
X30034769Y7401457D01*
X29974699Y7203433D01*
X29954417Y6997501D01*
X29071747Y6997501D01*
X26531747Y9537501D01*
X29954417Y9537501D01*
X29974699Y9331568D01*
X29992218Y9273817D01*
X30034768Y9133546D01*
X30132315Y8951050D01*
X30144676Y8935988D01*
X30263589Y8791090D01*
X30360209Y8711798D01*
X30423550Y8659815D01*
X30606046Y8562268D01*
X30804066Y8502200D01*
X30804065Y8502200D01*
X30822529Y8500382D01*
X31010000Y8481917D01*
X31215934Y8502200D01*
X31413954Y8562268D01*
X31596450Y8659815D01*
X31756410Y8791090D01*
X31887685Y8951050D01*
X31985232Y9133546D01*
X32045300Y9331566D01*
X32065583Y9537500D01*
X32045300Y9743434D01*
X31985232Y9941454D01*
X31887685Y10123950D01*
X31817736Y10209184D01*
X31756410Y10283911D01*
X31596452Y10415183D01*
X31596453Y10415183D01*
X31596450Y10415185D01*
X31413954Y10512732D01*
X31215934Y10572800D01*
X31215932Y10572801D01*
X31215934Y10572801D01*
X31028463Y10591265D01*
X31010000Y10593083D01*
X31009999Y10593083D01*
X30804067Y10572801D01*
X30606043Y10512731D01*
X30495898Y10453857D01*
X30423550Y10415185D01*
X30423548Y10415184D01*
X30423547Y10415183D01*
X30263589Y10283911D01*
X30136323Y10128834D01*
X30132315Y10123950D01*
X30111763Y10085500D01*
X30034769Y9941457D01*
X29974699Y9743433D01*
X29954417Y9537501D01*
X26531747Y9537501D01*
X24281819Y11787429D01*
X24248334Y11848752D01*
X24245500Y11875110D01*
X24245500Y12077500D01*
X29954417Y12077500D01*
X29974699Y11871568D01*
X29974700Y11871566D01*
X30034768Y11673546D01*
X30132315Y11491050D01*
X30132317Y11491048D01*
X30263589Y11331090D01*
X30358294Y11253369D01*
X30423550Y11199815D01*
X30606046Y11102268D01*
X30804066Y11042200D01*
X30804065Y11042200D01*
X30824347Y11040203D01*
X31010000Y11021917D01*
X31215934Y11042200D01*
X31413954Y11102268D01*
X31596450Y11199815D01*
X31756410Y11331090D01*
X31887685Y11491050D01*
X31985232Y11673546D01*
X32045300Y11871566D01*
X32065583Y12077500D01*
X32045300Y12283434D01*
X31985232Y12481454D01*
X31887685Y12663950D01*
X31832008Y12731793D01*
X31756410Y12823911D01*
X31596452Y12955183D01*
X31596453Y12955183D01*
X31596450Y12955185D01*
X31413954Y13052732D01*
X31215934Y13112800D01*
X31215932Y13112801D01*
X31215934Y13112801D01*
X31010000Y13133083D01*
X30804067Y13112801D01*
X30606043Y13052731D01*
X30495898Y12993857D01*
X30423550Y12955185D01*
X30423548Y12955184D01*
X30423547Y12955183D01*
X30263589Y12823911D01*
X30135196Y12667461D01*
X30132315Y12663950D01*
X30093643Y12591603D01*
X30034769Y12481457D01*
X29974699Y12283433D01*
X29954417Y12077500D01*
X24245500Y12077500D01*
X24245500Y14617500D01*
X29954417Y14617500D01*
X29974699Y14411568D01*
X29974700Y14411566D01*
X30034768Y14213546D01*
X30132315Y14031050D01*
X30132317Y14031048D01*
X30263589Y13871090D01*
X30305040Y13837073D01*
X30423550Y13739815D01*
X30606046Y13642268D01*
X30804066Y13582200D01*
X30804065Y13582200D01*
X30822529Y13580382D01*
X31010000Y13561917D01*
X31215934Y13582200D01*
X31413954Y13642268D01*
X31596450Y13739815D01*
X31756410Y13871090D01*
X31887685Y14031050D01*
X31985232Y14213546D01*
X32045300Y14411566D01*
X32065583Y14617500D01*
X32045300Y14823434D01*
X31985232Y15021454D01*
X31887685Y15203950D01*
X31762695Y15356252D01*
X31756410Y15363911D01*
X31596452Y15495183D01*
X31596453Y15495183D01*
X31596450Y15495185D01*
X31413954Y15592732D01*
X31215934Y15652800D01*
X31215932Y15652801D01*
X31215934Y15652801D01*
X31010000Y15673083D01*
X30804067Y15652801D01*
X30606043Y15592731D01*
X30509884Y15541332D01*
X30423550Y15495185D01*
X30423548Y15495184D01*
X30423547Y15495183D01*
X30263589Y15363911D01*
X30132317Y15203953D01*
X30034769Y15021457D01*
X29974699Y14823433D01*
X29954417Y14617500D01*
X24245500Y14617500D01*
X24245500Y17157501D01*
X29954417Y17157501D01*
X29974699Y16951568D01*
X29989219Y16903703D01*
X30034768Y16753546D01*
X30132315Y16571050D01*
X30132317Y16571048D01*
X30263589Y16411090D01*
X30353966Y16336921D01*
X30423550Y16279815D01*
X30606046Y16182268D01*
X30804066Y16122200D01*
X30804065Y16122200D01*
X30822529Y16120382D01*
X31010000Y16101917D01*
X31215934Y16122200D01*
X31413954Y16182268D01*
X31596450Y16279815D01*
X31756410Y16411090D01*
X31887685Y16571050D01*
X31985232Y16753546D01*
X32045300Y16951566D01*
X32065583Y17157500D01*
X32045300Y17363434D01*
X31985232Y17561454D01*
X31887685Y17743950D01*
X31835702Y17807291D01*
X31756410Y17903911D01*
X31629725Y18007877D01*
X31596450Y18035185D01*
X31413954Y18132732D01*
X31215934Y18192800D01*
X31215932Y18192801D01*
X31215934Y18192801D01*
X31010000Y18213083D01*
X30804067Y18192801D01*
X30606043Y18132731D01*
X30502691Y18077487D01*
X30423550Y18035185D01*
X30423548Y18035184D01*
X30423547Y18035183D01*
X30263589Y17903911D01*
X30132317Y17743953D01*
X30034769Y17561457D01*
X29974699Y17363433D01*
X29954417Y17157501D01*
X24245500Y17157501D01*
X24245500Y19697500D01*
X29954417Y19697500D01*
X29974699Y19491568D01*
X29974700Y19491566D01*
X30034768Y19293546D01*
X30132315Y19111050D01*
X30150143Y19089326D01*
X30263589Y18951090D01*
X30355196Y18875911D01*
X30423550Y18819815D01*
X30606046Y18722268D01*
X30804066Y18662200D01*
X30804065Y18662200D01*
X30822529Y18660382D01*
X31010000Y18641917D01*
X31215934Y18662200D01*
X31413954Y18722268D01*
X31596450Y18819815D01*
X31756410Y18951090D01*
X31887685Y19111050D01*
X31985232Y19293546D01*
X32045300Y19491566D01*
X32065583Y19697500D01*
X32045300Y19903434D01*
X31985232Y20101454D01*
X31887685Y20283950D01*
X31798563Y20392546D01*
X31756410Y20443911D01*
X31596452Y20575183D01*
X31596453Y20575183D01*
X31596450Y20575185D01*
X31413954Y20672732D01*
X31215934Y20732800D01*
X31215932Y20732801D01*
X31215934Y20732801D01*
X31010000Y20753083D01*
X30804067Y20732801D01*
X30606043Y20672731D01*
X30524733Y20629269D01*
X30423550Y20575185D01*
X30423548Y20575184D01*
X30423547Y20575183D01*
X30263589Y20443911D01*
X30132317Y20283953D01*
X30034769Y20101457D01*
X29974699Y19903433D01*
X29954417Y19697500D01*
X24245500Y19697500D01*
X24245500Y22237500D01*
X29954417Y22237500D01*
X29974699Y22031568D01*
X29987474Y21989455D01*
X30029068Y21852335D01*
X30034769Y21833544D01*
X30041502Y21820947D01*
X30132315Y21651050D01*
X30142689Y21638409D01*
X30263589Y21491090D01*
X30360209Y21411798D01*
X30423550Y21359815D01*
X30606046Y21262268D01*
X30804066Y21202200D01*
X30804065Y21202200D01*
X30822529Y21200382D01*
X31010000Y21181917D01*
X31215934Y21202200D01*
X31413954Y21262268D01*
X31596450Y21359815D01*
X31756410Y21491090D01*
X31887685Y21651050D01*
X31985232Y21833546D01*
X32045300Y22031566D01*
X32065583Y22237500D01*
X32045300Y22443434D01*
X31985232Y22641454D01*
X31887685Y22823950D01*
X31812977Y22914983D01*
X31756410Y22983911D01*
X31609138Y23104772D01*
X31596450Y23115185D01*
X31413954Y23212732D01*
X31215934Y23272800D01*
X31215932Y23272801D01*
X31215934Y23272801D01*
X31018518Y23292244D01*
X31010000Y23293083D01*
X31009999Y23293083D01*
X30804067Y23272801D01*
X30606043Y23212731D01*
X30502047Y23157143D01*
X30423550Y23115185D01*
X30423548Y23115184D01*
X30423547Y23115183D01*
X30263589Y22983911D01*
X30158096Y22855365D01*
X30132315Y22823950D01*
X30093643Y22751603D01*
X30034769Y22641457D01*
X30034768Y22641455D01*
X30034768Y22641454D01*
X30027898Y22618808D01*
X29974699Y22443433D01*
X29954417Y22237500D01*
X24245500Y22237500D01*
X24245500Y24777500D01*
X29954417Y24777500D01*
X29974699Y24571568D01*
X29974700Y24571566D01*
X30034768Y24373546D01*
X30132315Y24191050D01*
X30132317Y24191048D01*
X30263589Y24031090D01*
X30343617Y23965414D01*
X30423550Y23899815D01*
X30606046Y23802268D01*
X30804066Y23742200D01*
X30804065Y23742200D01*
X30824347Y23740203D01*
X31010000Y23721917D01*
X31215934Y23742200D01*
X31413954Y23802268D01*
X31596450Y23899815D01*
X31756410Y24031090D01*
X31887685Y24191050D01*
X31985232Y24373546D01*
X32045300Y24571566D01*
X32065583Y24777500D01*
X32045300Y24983434D01*
X31985232Y25181454D01*
X31887685Y25363950D01*
X31814596Y25453010D01*
X31756410Y25523911D01*
X31596452Y25655183D01*
X31596453Y25655183D01*
X31596450Y25655185D01*
X31422552Y25748136D01*
X31413956Y25752731D01*
X31413955Y25752732D01*
X31413954Y25752732D01*
X31215934Y25812800D01*
X31215932Y25812801D01*
X31215934Y25812801D01*
X31010000Y25833083D01*
X30804067Y25812801D01*
X30606043Y25752731D01*
X30566350Y25731514D01*
X30423550Y25655185D01*
X30423548Y25655184D01*
X30423547Y25655183D01*
X30263589Y25523911D01*
X30141678Y25375359D01*
X30132315Y25363950D01*
X30109013Y25320355D01*
X30034769Y25181457D01*
X30034768Y25181455D01*
X30034768Y25181454D01*
X30032369Y25173546D01*
X29974699Y24983433D01*
X29954417Y24777500D01*
X24245500Y24777500D01*
X24245500Y27317500D01*
X29954417Y27317500D01*
X29974699Y27111568D01*
X29992299Y27053548D01*
X30034768Y26913546D01*
X30132315Y26731050D01*
X30132317Y26731048D01*
X30263589Y26571090D01*
X30360209Y26491798D01*
X30423550Y26439815D01*
X30606046Y26342268D01*
X30804066Y26282200D01*
X30804065Y26282200D01*
X30822529Y26280382D01*
X31010000Y26261917D01*
X31215934Y26282200D01*
X31413954Y26342268D01*
X31596450Y26439815D01*
X31756410Y26571090D01*
X31887685Y26731050D01*
X31985232Y26913546D01*
X32045300Y27111566D01*
X32065583Y27317500D01*
X32045300Y27523434D01*
X31985232Y27721454D01*
X31887685Y27903950D01*
X31813603Y27994220D01*
X31756410Y28063911D01*
X31596452Y28195183D01*
X31596453Y28195183D01*
X31596450Y28195185D01*
X31413954Y28292732D01*
X31215934Y28352800D01*
X31215932Y28352801D01*
X31215934Y28352801D01*
X31028463Y28371265D01*
X31010000Y28373083D01*
X31009999Y28373083D01*
X30804067Y28352801D01*
X30606043Y28292731D01*
X30495898Y28233857D01*
X30423550Y28195185D01*
X30423548Y28195184D01*
X30423547Y28195183D01*
X30263589Y28063911D01*
X30132317Y27903953D01*
X30132315Y27903950D01*
X30114771Y27871127D01*
X30034769Y27721457D01*
X29974699Y27523433D01*
X29954417Y27317500D01*
X24245500Y27317500D01*
X24245500Y31606391D01*
X24265185Y31673430D01*
X24281814Y31694067D01*
X24623928Y32036181D01*
X24685252Y32069666D01*
X24711610Y32072500D01*
X24787985Y32072500D01*
X24941365Y32110304D01*
X24958477Y32119285D01*
X25081240Y32183717D01*
X25199483Y32288470D01*
X25289220Y32418477D01*
X25345237Y32566182D01*
X25364278Y32723000D01*
X25358144Y32773523D01*
X25345237Y32879819D01*
X25321112Y32943430D01*
X25289220Y33027523D01*
X25199483Y33157530D01*
X25081240Y33262283D01*
X25081238Y33262284D01*
X25081237Y33262285D01*
X24941365Y33335697D01*
X24787986Y33373500D01*
X24787985Y33373500D01*
X24630015Y33373500D01*
X24630014Y33373500D01*
X24476634Y33335697D01*
X24336762Y33262285D01*
X24218516Y33157529D01*
X24128781Y33027525D01*
X24128780Y33027524D01*
X24072762Y32879819D01*
X24053722Y32723001D01*
X24053722Y32720834D01*
X24053273Y32719307D01*
X24052818Y32715555D01*
X24052194Y32715631D01*
X24034037Y32653795D01*
X24017403Y32633153D01*
X24008774Y32624524D01*
X23947451Y32591039D01*
X23877759Y32596023D01*
X23821826Y32637895D01*
X23805151Y32668234D01*
X23784380Y32723001D01*
X23765220Y32773523D01*
X23675483Y32903530D01*
X23557240Y33008283D01*
X23557238Y33008284D01*
X23557237Y33008285D01*
X23417365Y33081697D01*
X23263986Y33119500D01*
X23263985Y33119500D01*
X23106015Y33119500D01*
X23106014Y33119500D01*
X22952634Y33081697D01*
X22812762Y33008285D01*
X22694516Y32903529D01*
X22604781Y32773525D01*
X22604780Y32773524D01*
X22548762Y32625819D01*
X22529722Y32469001D01*
X22529722Y32469000D01*
X22548762Y32312182D01*
X22604780Y32164477D01*
X22604781Y32164476D01*
X22694515Y32034472D01*
X22694516Y32034471D01*
X22694517Y32034470D01*
X22717727Y32013908D01*
X22754853Y31954721D01*
X22759500Y31921093D01*
X22759500Y31864320D01*
X22739815Y31797281D01*
X22687011Y31751526D01*
X22617853Y31741582D01*
X22554297Y31770607D01*
X22519558Y31820349D01*
X22502882Y31864320D01*
X22495220Y31884523D01*
X22405483Y32014530D01*
X22287240Y32119283D01*
X22287238Y32119284D01*
X22287237Y32119285D01*
X22147365Y32192697D01*
X21993986Y32230500D01*
X21993985Y32230500D01*
X21836015Y32230500D01*
X21836014Y32230500D01*
X21682634Y32192697D01*
X21542762Y32119285D01*
X21489952Y32072500D01*
X21427221Y32016925D01*
X21424516Y32014529D01*
X21334781Y31884525D01*
X21334780Y31884524D01*
X21278762Y31736819D01*
X21259722Y31580001D01*
X21259722Y31580000D01*
X21278762Y31423182D01*
X21311353Y31337248D01*
X21334780Y31275477D01*
X21424517Y31145470D01*
X21542760Y31040717D01*
X21542762Y31040716D01*
X21682634Y30967304D01*
X21836014Y30929500D01*
X21836015Y30929500D01*
X21912389Y30929500D01*
X21979428Y30909815D01*
X22000070Y30893182D01*
X22088181Y30805072D01*
X22121666Y30743749D01*
X22124500Y30717390D01*
X22124500Y14853639D01*
X22104815Y14786600D01*
X22088181Y14765958D01*
X17321543Y9999319D01*
X17260220Y9965834D01*
X17233862Y9963000D01*
X16808038Y9963000D01*
X16740999Y9982685D01*
X16698680Y10028547D01*
X16647689Y10123945D01*
X16647684Y10123951D01*
X16647682Y10123953D01*
X16597774Y10184767D01*
X16516410Y10283911D01*
X16356452Y10415183D01*
X16356453Y10415183D01*
X16356450Y10415185D01*
X16173954Y10512732D01*
X15975934Y10572800D01*
X15975932Y10572801D01*
X15975934Y10572801D01*
X15770000Y10593083D01*
X15564067Y10572801D01*
X15366043Y10512731D01*
X15255898Y10453857D01*
X15183550Y10415185D01*
X15183548Y10415184D01*
X15183547Y10415183D01*
X15023589Y10283911D01*
X14896323Y10128834D01*
X14892315Y10123950D01*
X14871763Y10085500D01*
X14794769Y9941457D01*
X14734699Y9743433D01*
X14714417Y9537500D01*
X14734699Y9331568D01*
X14752218Y9273817D01*
X14794768Y9133546D01*
X14892315Y8951050D01*
X14904676Y8935988D01*
X15023589Y8791090D01*
X15120209Y8711798D01*
X15183550Y8659815D01*
X15366046Y8562268D01*
X15564066Y8502200D01*
X15564065Y8502200D01*
X15584347Y8500203D01*
X15770000Y8481917D01*
X15975934Y8502200D01*
X16173954Y8562268D01*
X16356450Y8659815D01*
X16516410Y8791090D01*
X16647685Y8951050D01*
X16647686Y8951054D01*
X16647689Y8951056D01*
X16698680Y9046453D01*
X16747642Y9096298D01*
X16808038Y9112000D01*
X16983390Y9112000D01*
X17050429Y9092315D01*
X17096184Y9039511D01*
X17106128Y8970353D01*
X17077103Y8906797D01*
X17071071Y8900319D01*
X16203129Y8032379D01*
X16141806Y7998894D01*
X16079454Y8001399D01*
X15975933Y8032801D01*
X15975934Y8032801D01*
X15788463Y8051265D01*
X15770000Y8053083D01*
X15769999Y8053083D01*
X15564067Y8032801D01*
X15366043Y7972731D01*
X15255898Y7913857D01*
X15183550Y7875185D01*
X15183548Y7875184D01*
X15183547Y7875183D01*
X15023589Y7743911D01*
X14892317Y7583953D01*
X14794769Y7401457D01*
X14734699Y7203433D01*
X14714417Y6997500D01*
X12190500Y6997500D01*
X12190500Y8969894D01*
X12190499Y8969899D01*
X12183039Y8992857D01*
X12178495Y9011781D01*
X12174719Y9035626D01*
X12163757Y9057138D01*
X12156309Y9075121D01*
X12152369Y9087248D01*
X12148850Y9098081D01*
X12134653Y9117622D01*
X12124491Y9134204D01*
X12113528Y9155720D01*
X12018220Y9251028D01*
X11589694Y9679554D01*
X11565720Y9703528D01*
X11565718Y9703530D01*
X11544203Y9714492D01*
X11527610Y9724660D01*
X11508080Y9738850D01*
X11485115Y9746312D01*
X11467141Y9753757D01*
X11445627Y9764719D01*
X11440510Y9765530D01*
X11421773Y9768497D01*
X11402858Y9773038D01*
X11379894Y9780500D01*
X11379893Y9780500D01*
X11345988Y9780500D01*
X3092610Y9780500D01*
X3025571Y9800185D01*
X3004929Y9816819D01*
X2823929Y9997819D01*
X2790444Y10059142D01*
X2795428Y10128834D01*
X2837300Y10184767D01*
X2902764Y10209184D01*
X2911610Y10209500D01*
X4764676Y10209500D01*
X4764677Y10209501D01*
X4837740Y10224034D01*
X4920601Y10279399D01*
X4975966Y10362260D01*
X4990500Y10435326D01*
X4990500Y11410000D01*
X7084859Y11410000D01*
X7105378Y11188561D01*
X7166240Y10974650D01*
X7265364Y10775581D01*
X7265369Y10775573D01*
X7357197Y10653975D01*
X7785323Y11082101D01*
X7862075Y10982075D01*
X7962099Y10905324D01*
X7533040Y10476265D01*
X7563741Y10448277D01*
X7752820Y10331203D01*
X7752822Y10331202D01*
X7960195Y10250866D01*
X8178807Y10210000D01*
X8401193Y10210000D01*
X8619804Y10250866D01*
X8827177Y10331202D01*
X8827179Y10331203D01*
X9016258Y10448276D01*
X9016258Y10448277D01*
X9046959Y10476265D01*
X8617899Y10905324D01*
X8717925Y10982075D01*
X8794677Y11082100D01*
X9222801Y10653976D01*
X9314630Y10775573D01*
X9314635Y10775581D01*
X9413759Y10974650D01*
X9474621Y11188561D01*
X9495141Y11410000D01*
X9495141Y11410001D01*
X9474621Y11631440D01*
X9413759Y11845351D01*
X9314635Y12044420D01*
X9314630Y12044428D01*
X9289655Y12077500D01*
X14714417Y12077500D01*
X14734699Y11871568D01*
X14734700Y11871566D01*
X14794768Y11673546D01*
X14892315Y11491050D01*
X14892317Y11491048D01*
X15023589Y11331090D01*
X15118294Y11253369D01*
X15183550Y11199815D01*
X15366046Y11102268D01*
X15564066Y11042200D01*
X15564065Y11042200D01*
X15582529Y11040382D01*
X15770000Y11021917D01*
X15975934Y11042200D01*
X16173954Y11102268D01*
X16356450Y11199815D01*
X16516410Y11331090D01*
X16647685Y11491050D01*
X16745232Y11673546D01*
X16805300Y11871566D01*
X16825583Y12077500D01*
X16805300Y12283434D01*
X16745232Y12481454D01*
X16647685Y12663950D01*
X16592008Y12731793D01*
X16516410Y12823911D01*
X16356452Y12955183D01*
X16356453Y12955183D01*
X16356450Y12955185D01*
X16173954Y13052732D01*
X15975934Y13112800D01*
X15975932Y13112801D01*
X15975934Y13112801D01*
X15770000Y13133083D01*
X15564067Y13112801D01*
X15366043Y13052731D01*
X15255898Y12993857D01*
X15183550Y12955185D01*
X15183548Y12955184D01*
X15183547Y12955183D01*
X15023589Y12823911D01*
X14895196Y12667461D01*
X14892315Y12663950D01*
X14853643Y12591603D01*
X14794769Y12481457D01*
X14734699Y12283433D01*
X14714417Y12077500D01*
X9289655Y12077500D01*
X9222801Y12166027D01*
X8794675Y11737901D01*
X8717925Y11837925D01*
X8617899Y11914677D01*
X9046959Y12343737D01*
X9016258Y12371724D01*
X8827179Y12488798D01*
X8827177Y12488799D01*
X8619804Y12569135D01*
X8401193Y12610000D01*
X8178807Y12610000D01*
X7960195Y12569135D01*
X7752822Y12488799D01*
X7752820Y12488798D01*
X7563738Y12371722D01*
X7563737Y12371722D01*
X7533040Y12343738D01*
X7533040Y12343737D01*
X7962100Y11914677D01*
X7862075Y11837925D01*
X7785323Y11737901D01*
X7357197Y12166027D01*
X7265368Y12044426D01*
X7166240Y11845351D01*
X7105378Y11631440D01*
X7084859Y11410001D01*
X7084859Y11410000D01*
X4990500Y11410000D01*
X4990500Y12384674D01*
X4990500Y12384677D01*
X4990499Y12384679D01*
X4975967Y12457736D01*
X4975966Y12457740D01*
X4955213Y12488799D01*
X4920601Y12540601D01*
X4837740Y12595966D01*
X4837739Y12595967D01*
X4837735Y12595968D01*
X4764677Y12610500D01*
X4764674Y12610500D01*
X4339500Y12610500D01*
X4272461Y12630185D01*
X4226706Y12682989D01*
X4215500Y12734500D01*
X4215500Y14617501D01*
X14714417Y14617501D01*
X14734699Y14411568D01*
X14734700Y14411566D01*
X14794768Y14213546D01*
X14892315Y14031050D01*
X14892317Y14031048D01*
X15023589Y13871090D01*
X15065040Y13837073D01*
X15183550Y13739815D01*
X15366046Y13642268D01*
X15564066Y13582200D01*
X15564065Y13582200D01*
X15582529Y13580382D01*
X15770000Y13561917D01*
X15975934Y13582200D01*
X16173954Y13642268D01*
X16356450Y13739815D01*
X16516410Y13871090D01*
X16647685Y14031050D01*
X16745232Y14213546D01*
X16805300Y14411566D01*
X16825583Y14617500D01*
X16805300Y14823434D01*
X16745232Y15021454D01*
X16647685Y15203950D01*
X16522695Y15356252D01*
X16516410Y15363911D01*
X16356452Y15495183D01*
X16356453Y15495183D01*
X16356450Y15495185D01*
X16173954Y15592732D01*
X15975934Y15652800D01*
X15975932Y15652801D01*
X15975934Y15652801D01*
X15770000Y15673083D01*
X15564067Y15652801D01*
X15366043Y15592731D01*
X15269884Y15541332D01*
X15183550Y15495185D01*
X15183548Y15495184D01*
X15183547Y15495183D01*
X15023589Y15363911D01*
X14892317Y15203953D01*
X14794769Y15021457D01*
X14734699Y14823433D01*
X14714417Y14617501D01*
X4215500Y14617501D01*
X4215500Y15304890D01*
X4235185Y15371929D01*
X4251819Y15392571D01*
X4644970Y15785722D01*
X5104553Y16245305D01*
X5104553Y16245306D01*
X5128528Y16269280D01*
X5139498Y16290811D01*
X5149647Y16307374D01*
X5163849Y16326919D01*
X5171309Y16349884D01*
X5178759Y16367866D01*
X5179423Y16369168D01*
X5189719Y16389374D01*
X5193495Y16413224D01*
X5198036Y16432140D01*
X5205500Y16455107D01*
X5205500Y16589893D01*
X5205500Y16589894D01*
X5205500Y16662649D01*
X5225185Y16729688D01*
X5277989Y16775443D01*
X5316247Y16785939D01*
X5362483Y16790909D01*
X5497331Y16841204D01*
X5612546Y16927454D01*
X5698796Y17042669D01*
X5749091Y17177517D01*
X5755500Y17237127D01*
X5755499Y18007872D01*
X5749091Y18067483D01*
X5749089Y18067489D01*
X5739885Y18092168D01*
X5734901Y18161860D01*
X5768387Y18223182D01*
X5829711Y18256667D01*
X5856067Y18259500D01*
X6104890Y18259500D01*
X6171929Y18239815D01*
X6192571Y18223181D01*
X6333181Y18082571D01*
X6366666Y18021248D01*
X6369500Y17994890D01*
X6369500Y17299630D01*
X6369501Y17299624D01*
X6375908Y17240017D01*
X6426202Y17105172D01*
X6426206Y17105165D01*
X6512452Y16989956D01*
X6512455Y16989953D01*
X6627664Y16903707D01*
X6627671Y16903703D01*
X6762517Y16853409D01*
X6762516Y16853409D01*
X6769444Y16852665D01*
X6822127Y16847000D01*
X7817872Y16847001D01*
X7877483Y16853409D01*
X8012331Y16903704D01*
X8127546Y16989954D01*
X8213796Y17105169D01*
X8233315Y17157501D01*
X14714417Y17157501D01*
X14734699Y16951568D01*
X14749219Y16903703D01*
X14794768Y16753546D01*
X14892315Y16571050D01*
X14892317Y16571048D01*
X15023589Y16411090D01*
X15113966Y16336921D01*
X15183550Y16279815D01*
X15366046Y16182268D01*
X15564066Y16122200D01*
X15564065Y16122200D01*
X15582529Y16120382D01*
X15770000Y16101917D01*
X15975934Y16122200D01*
X16173954Y16182268D01*
X16356450Y16279815D01*
X16516410Y16411090D01*
X16647685Y16571050D01*
X16745232Y16753546D01*
X16805300Y16951566D01*
X16825583Y17157500D01*
X16805300Y17363434D01*
X16745232Y17561454D01*
X16647685Y17743950D01*
X16595702Y17807291D01*
X16516410Y17903911D01*
X16389725Y18007877D01*
X16356450Y18035185D01*
X16173954Y18132732D01*
X15975934Y18192800D01*
X15975932Y18192801D01*
X15975934Y18192801D01*
X15770000Y18213083D01*
X15564067Y18192801D01*
X15366043Y18132731D01*
X15262691Y18077487D01*
X15183550Y18035185D01*
X15183548Y18035184D01*
X15183547Y18035183D01*
X15023589Y17903911D01*
X14892317Y17743953D01*
X14794769Y17561457D01*
X14734699Y17363433D01*
X14714417Y17157501D01*
X8233315Y17157501D01*
X8264091Y17240017D01*
X8270500Y17299627D01*
X8270499Y18095372D01*
X8264091Y18154983D01*
X8260361Y18164983D01*
X8213797Y18289829D01*
X8213793Y18289836D01*
X8127547Y18405045D01*
X8127544Y18405048D01*
X8012335Y18491294D01*
X8012328Y18491298D01*
X7877482Y18541592D01*
X7877483Y18541592D01*
X7817883Y18547999D01*
X7817881Y18548000D01*
X7817873Y18548000D01*
X7817865Y18548000D01*
X7122610Y18548000D01*
X7055571Y18567685D01*
X7034929Y18584319D01*
X6983429Y18635819D01*
X6949944Y18697142D01*
X6954928Y18766834D01*
X6996800Y18822767D01*
X7062264Y18847184D01*
X7071110Y18847500D01*
X7195000Y18847500D01*
X7195000Y19572500D01*
X7445000Y19572500D01*
X7445000Y18847500D01*
X7817828Y18847500D01*
X7817844Y18847501D01*
X7877372Y18853902D01*
X7877379Y18853904D01*
X8012086Y18904146D01*
X8012093Y18904150D01*
X8127187Y18990310D01*
X8127190Y18990313D01*
X8213350Y19105407D01*
X8213354Y19105414D01*
X8263596Y19240121D01*
X8263598Y19240128D01*
X8269999Y19299656D01*
X8270000Y19299673D01*
X8270000Y19572500D01*
X7445000Y19572500D01*
X7195000Y19572500D01*
X6370000Y19572500D01*
X6370000Y19299656D01*
X6375581Y19247756D01*
X6363176Y19178996D01*
X6315566Y19127859D01*
X6252292Y19110500D01*
X5871868Y19110500D01*
X5804829Y19130185D01*
X5759074Y19182989D01*
X5748579Y19247756D01*
X5750166Y19262517D01*
X5755500Y19312127D01*
X5755499Y19697501D01*
X14714417Y19697501D01*
X14734699Y19491568D01*
X14734700Y19491566D01*
X14794768Y19293546D01*
X14892315Y19111050D01*
X14910143Y19089326D01*
X15023589Y18951090D01*
X15115196Y18875911D01*
X15183550Y18819815D01*
X15366046Y18722268D01*
X15564066Y18662200D01*
X15564065Y18662200D01*
X15582529Y18660382D01*
X15770000Y18641917D01*
X15975934Y18662200D01*
X16173954Y18722268D01*
X16356450Y18819815D01*
X16516410Y18951090D01*
X16647685Y19111050D01*
X16745232Y19293546D01*
X16805300Y19491566D01*
X16825583Y19697500D01*
X16805300Y19903434D01*
X16745232Y20101454D01*
X16647685Y20283950D01*
X16558563Y20392546D01*
X16516410Y20443911D01*
X16356452Y20575183D01*
X16356453Y20575183D01*
X16356450Y20575185D01*
X16173954Y20672732D01*
X15975934Y20732800D01*
X15975932Y20732801D01*
X15975934Y20732801D01*
X15770000Y20753083D01*
X15564067Y20732801D01*
X15366043Y20672731D01*
X15284733Y20629269D01*
X15183550Y20575185D01*
X15183548Y20575184D01*
X15183547Y20575183D01*
X15023589Y20443911D01*
X14892317Y20283953D01*
X14794769Y20101457D01*
X14734699Y19903433D01*
X14714417Y19697501D01*
X5755499Y19697501D01*
X5755499Y19822500D01*
X6370000Y19822500D01*
X7195000Y19822500D01*
X7195000Y20547500D01*
X7445000Y20547500D01*
X7445000Y19822500D01*
X8270000Y19822500D01*
X8270000Y20095328D01*
X8269999Y20095345D01*
X8263598Y20154873D01*
X8263596Y20154880D01*
X8213354Y20289587D01*
X8213350Y20289594D01*
X8127190Y20404688D01*
X8127187Y20404691D01*
X8012093Y20490851D01*
X8012086Y20490855D01*
X7877379Y20541097D01*
X7877372Y20541099D01*
X7817844Y20547500D01*
X7445000Y20547500D01*
X7195000Y20547500D01*
X6822155Y20547500D01*
X6762627Y20541099D01*
X6762620Y20541097D01*
X6627913Y20490855D01*
X6627906Y20490851D01*
X6512812Y20404691D01*
X6512809Y20404688D01*
X6426649Y20289594D01*
X6426645Y20289587D01*
X6376403Y20154880D01*
X6376401Y20154873D01*
X6370000Y20095345D01*
X6370000Y19822500D01*
X5755499Y19822500D01*
X5755499Y20082872D01*
X5749091Y20142483D01*
X5745361Y20152483D01*
X5698797Y20277329D01*
X5698793Y20277336D01*
X5612547Y20392545D01*
X5612544Y20392548D01*
X5497335Y20478794D01*
X5497328Y20478798D01*
X5362482Y20529092D01*
X5362484Y20529092D01*
X5306244Y20535138D01*
X5241693Y20561876D01*
X5201845Y20619269D01*
X5195500Y20658427D01*
X5195500Y21189463D01*
X5215185Y21256502D01*
X5261046Y21298821D01*
X5356450Y21349815D01*
X5516410Y21481090D01*
X5647685Y21641050D01*
X5745232Y21823546D01*
X5805300Y22021566D01*
X5825583Y22227500D01*
X5813271Y22352500D01*
X6267229Y22352500D01*
X6924812Y22352500D01*
X6905014Y22227500D01*
X6924812Y22102500D01*
X6267230Y22102500D01*
X6275191Y22021666D01*
X6335233Y21823734D01*
X6432728Y21641334D01*
X6432732Y21641327D01*
X6563944Y21481445D01*
X6723826Y21350233D01*
X6723833Y21350229D01*
X6906233Y21252734D01*
X7104165Y21192692D01*
X7184999Y21184731D01*
X7185000Y21184732D01*
X7185000Y21842312D01*
X7278519Y21827500D01*
X7341481Y21827500D01*
X7435000Y21842312D01*
X7435000Y21184731D01*
X7515834Y21192692D01*
X7713766Y21252734D01*
X7896166Y21350229D01*
X7896173Y21350233D01*
X8056055Y21481445D01*
X8187267Y21641327D01*
X8187271Y21641334D01*
X8284766Y21823734D01*
X8344808Y22021666D01*
X8352770Y22102500D01*
X7695188Y22102500D01*
X7714986Y22227500D01*
X7695188Y22352500D01*
X8352770Y22352500D01*
X8344808Y22433335D01*
X8284766Y22631267D01*
X8187271Y22813667D01*
X8187267Y22813674D01*
X8056055Y22973556D01*
X7896173Y23104768D01*
X7896166Y23104772D01*
X7844025Y23132642D01*
X7794181Y23181604D01*
X7778720Y23249742D01*
X7802552Y23315421D01*
X7858109Y23357790D01*
X7902478Y23366000D01*
X8107828Y23366000D01*
X8107844Y23366001D01*
X8167372Y23372402D01*
X8167379Y23372404D01*
X8302086Y23422646D01*
X8302093Y23422650D01*
X8417187Y23508810D01*
X8417190Y23508813D01*
X8503350Y23623907D01*
X8503354Y23623914D01*
X8553596Y23758621D01*
X8553598Y23758628D01*
X8559999Y23818156D01*
X8560000Y23818173D01*
X8560000Y24216000D01*
X6885000Y24216000D01*
X6885000Y23818156D01*
X6891401Y23758628D01*
X6891403Y23758621D01*
X6941645Y23623914D01*
X6941649Y23623907D01*
X7027808Y23508814D01*
X7088042Y23463723D01*
X7129913Y23407789D01*
X7134897Y23338097D01*
X7101412Y23276774D01*
X7049727Y23245796D01*
X6906236Y23202268D01*
X6723833Y23104772D01*
X6723826Y23104768D01*
X6563944Y22973556D01*
X6432732Y22813674D01*
X6432728Y22813667D01*
X6335233Y22631267D01*
X6275191Y22433335D01*
X6267229Y22352500D01*
X5813271Y22352500D01*
X5805300Y22433434D01*
X5745232Y22631454D01*
X5647685Y22813950D01*
X5547985Y22935436D01*
X5516410Y22973911D01*
X5356451Y23105185D01*
X5306015Y23132144D01*
X5256172Y23181107D01*
X5240712Y23249245D01*
X5264545Y23314924D01*
X5320103Y23357292D01*
X5364465Y23365501D01*
X6032872Y23365501D01*
X6092483Y23371909D01*
X6227331Y23422204D01*
X6342546Y23508454D01*
X6428796Y23623669D01*
X6479091Y23758517D01*
X6485500Y23818127D01*
X6485499Y24863872D01*
X6479091Y24923483D01*
X6472377Y24941483D01*
X6428797Y25058329D01*
X6428793Y25058336D01*
X6377123Y25127357D01*
X6342546Y25173546D01*
X6298211Y25206735D01*
X6256342Y25262667D01*
X6251358Y25332359D01*
X6284843Y25393682D01*
X6298207Y25405262D01*
X6342546Y25438454D01*
X6428796Y25553669D01*
X6479091Y25688517D01*
X6485500Y25748127D01*
X6485500Y25748130D01*
X6884500Y25748130D01*
X6884501Y25748124D01*
X6890908Y25688517D01*
X6941202Y25553672D01*
X6941206Y25553665D01*
X7027452Y25438456D01*
X7027453Y25438456D01*
X7027454Y25438454D01*
X7053925Y25418638D01*
X7072204Y25404954D01*
X7114074Y25349020D01*
X7119058Y25279328D01*
X7085572Y25218006D01*
X7072204Y25206422D01*
X7027809Y25173188D01*
X6941649Y25058094D01*
X6941645Y25058087D01*
X6891403Y24923380D01*
X6891401Y24923373D01*
X6885000Y24863845D01*
X6885000Y24466000D01*
X8560000Y24466000D01*
X8560000Y24863828D01*
X8559999Y24863845D01*
X8553598Y24923373D01*
X8553596Y24923380D01*
X8503354Y25058087D01*
X8503350Y25058094D01*
X8417190Y25173188D01*
X8360295Y25215780D01*
X8318425Y25271714D01*
X8313441Y25341406D01*
X8346927Y25402728D01*
X8360291Y25414309D01*
X8392546Y25438454D01*
X8478796Y25553669D01*
X8529091Y25688517D01*
X8529090Y25688517D01*
X8531802Y25695785D01*
X8534510Y25694775D01*
X8562338Y25743658D01*
X8624244Y25776052D01*
X8693837Y25769834D01*
X8736131Y25742121D01*
X9041571Y25436682D01*
X9388181Y25090072D01*
X9421666Y25028749D01*
X9424500Y25002391D01*
X9424500Y23265539D01*
X9404815Y23198500D01*
X9358955Y23156182D01*
X9263548Y23105185D01*
X9103589Y22973911D01*
X8980295Y22823674D01*
X8972315Y22813950D01*
X8972164Y22813667D01*
X8874769Y22631457D01*
X8874768Y22631455D01*
X8874768Y22631454D01*
X8867898Y22608808D01*
X8814699Y22433433D01*
X8794417Y22227501D01*
X8814699Y22021568D01*
X8834775Y21955388D01*
X8874768Y21823546D01*
X8972315Y21641050D01*
X8979742Y21632000D01*
X9103589Y21481090D01*
X9200209Y21401798D01*
X9263550Y21349815D01*
X9446046Y21252268D01*
X9644066Y21192200D01*
X9644065Y21192200D01*
X9662529Y21190382D01*
X9850000Y21171917D01*
X10055934Y21192200D01*
X10253954Y21252268D01*
X10436450Y21349815D01*
X10596410Y21481090D01*
X10727685Y21641050D01*
X10727686Y21641054D01*
X10727689Y21641056D01*
X10778680Y21736453D01*
X10827642Y21786298D01*
X10888038Y21802000D01*
X11490054Y21802000D01*
X11557093Y21782315D01*
X11564365Y21777266D01*
X11682664Y21688707D01*
X11682671Y21688703D01*
X11817517Y21638409D01*
X11817516Y21638409D01*
X11824444Y21637665D01*
X11877127Y21632000D01*
X12922872Y21632001D01*
X12982483Y21638409D01*
X13117331Y21688704D01*
X13232546Y21774954D01*
X13318796Y21890169D01*
X13318798Y21890176D01*
X13319314Y21891119D01*
X13320086Y21891892D01*
X13324112Y21897269D01*
X13324884Y21896691D01*
X13368714Y21940529D01*
X13436986Y21955388D01*
X13502453Y21930978D01*
X13510365Y21924531D01*
X13541760Y21896717D01*
X13541762Y21896716D01*
X13681634Y21823304D01*
X13835014Y21785500D01*
X13835015Y21785500D01*
X13992985Y21785500D01*
X14146365Y21823304D01*
X14201678Y21852335D01*
X14286240Y21896717D01*
X14404483Y22001470D01*
X14494220Y22131477D01*
X14494224Y22131491D01*
X14495828Y22134543D01*
X14497602Y22136378D01*
X14498481Y22137650D01*
X14498692Y22137505D01*
X14544406Y22184761D01*
X14612424Y22200744D01*
X14678284Y22177416D01*
X14721078Y22122185D01*
X14729034Y22089086D01*
X14734699Y22031568D01*
X14747474Y21989455D01*
X14789068Y21852335D01*
X14794769Y21833544D01*
X14801502Y21820947D01*
X14892315Y21651050D01*
X14902689Y21638409D01*
X15023589Y21491090D01*
X15120209Y21411798D01*
X15183550Y21359815D01*
X15366046Y21262268D01*
X15564066Y21202200D01*
X15564065Y21202200D01*
X15582529Y21200382D01*
X15770000Y21181917D01*
X15975934Y21202200D01*
X16173954Y21262268D01*
X16356450Y21359815D01*
X16516410Y21491090D01*
X16647685Y21651050D01*
X16745232Y21833546D01*
X16805300Y22031566D01*
X16825583Y22237500D01*
X16805300Y22443434D01*
X16745232Y22641454D01*
X16647685Y22823950D01*
X16572977Y22914983D01*
X16516410Y22983911D01*
X16369138Y23104772D01*
X16356450Y23115185D01*
X16173954Y23212732D01*
X15975934Y23272800D01*
X15975932Y23272801D01*
X15975934Y23272801D01*
X15770000Y23293083D01*
X15564067Y23272801D01*
X15366043Y23212731D01*
X15262047Y23157143D01*
X15183550Y23115185D01*
X15183548Y23115184D01*
X15183547Y23115183D01*
X15023589Y22983911D01*
X14918096Y22855365D01*
X14892315Y22823950D01*
X14850775Y22746237D01*
X14794768Y22641455D01*
X14783502Y22604317D01*
X14745204Y22545879D01*
X14681391Y22517423D01*
X14612324Y22527985D01*
X14559931Y22574210D01*
X14548900Y22596343D01*
X14542710Y22612665D01*
X14494220Y22740523D01*
X14404483Y22870530D01*
X14286240Y22975283D01*
X14286238Y22975284D01*
X14286237Y22975285D01*
X14146365Y23048697D01*
X13992986Y23086500D01*
X13992985Y23086500D01*
X13835015Y23086500D01*
X13835014Y23086500D01*
X13681634Y23048697D01*
X13541761Y22975285D01*
X13541759Y22975283D01*
X13530325Y22965154D01*
X13467090Y22935436D01*
X13397827Y22944623D01*
X13344527Y22989798D01*
X13331921Y23014642D01*
X13318798Y23049827D01*
X13318793Y23049836D01*
X13232547Y23165045D01*
X13232544Y23165048D01*
X13117335Y23251294D01*
X13117328Y23251298D01*
X12982482Y23301592D01*
X12982483Y23301592D01*
X12922883Y23307999D01*
X12922881Y23308000D01*
X12922873Y23308000D01*
X12922864Y23308000D01*
X11877129Y23308000D01*
X11877123Y23307999D01*
X11817516Y23301592D01*
X11682671Y23251298D01*
X11682664Y23251294D01*
X11567455Y23165048D01*
X11567452Y23165045D01*
X11481206Y23049836D01*
X11481202Y23049829D01*
X11430908Y22914983D01*
X11424501Y22855384D01*
X11424500Y22855365D01*
X11424500Y22777000D01*
X11404815Y22709961D01*
X11352011Y22664206D01*
X11300500Y22653000D01*
X10888038Y22653000D01*
X10820999Y22672685D01*
X10778680Y22718547D01*
X10727689Y22813945D01*
X10727684Y22813951D01*
X10727682Y22813953D01*
X10627985Y22935436D01*
X10596410Y22973911D01*
X10436451Y23105185D01*
X10341045Y23156182D01*
X10291202Y23205145D01*
X10275500Y23265539D01*
X10275500Y24420000D01*
X11425000Y24420000D01*
X11425000Y24159656D01*
X11431401Y24100128D01*
X11431403Y24100121D01*
X11481645Y23965414D01*
X11481649Y23965407D01*
X11567809Y23850313D01*
X11567812Y23850310D01*
X11682906Y23764150D01*
X11682913Y23764146D01*
X11817620Y23713904D01*
X11817627Y23713902D01*
X11877155Y23707501D01*
X11877172Y23707500D01*
X12275000Y23707500D01*
X12275000Y24420000D01*
X12525000Y24420000D01*
X12525000Y23707500D01*
X12922828Y23707500D01*
X12922844Y23707501D01*
X12982372Y23713902D01*
X12982379Y23713904D01*
X13117086Y23764146D01*
X13117093Y23764150D01*
X13232187Y23850310D01*
X13232190Y23850313D01*
X13318350Y23965407D01*
X13318354Y23965414D01*
X13368596Y24100121D01*
X13368598Y24100128D01*
X13374999Y24159656D01*
X13375000Y24159673D01*
X13375000Y24420000D01*
X12525000Y24420000D01*
X12275000Y24420000D01*
X11425000Y24420000D01*
X10275500Y24420000D01*
X10275500Y24670000D01*
X11425000Y24670000D01*
X12275000Y24670000D01*
X12275000Y25382500D01*
X12525000Y25382500D01*
X12525000Y24670000D01*
X13375000Y24670000D01*
X13375000Y24777500D01*
X14714417Y24777500D01*
X14734699Y24571568D01*
X14734700Y24571566D01*
X14794768Y24373546D01*
X14892315Y24191050D01*
X14892317Y24191048D01*
X15023589Y24031090D01*
X15103617Y23965414D01*
X15183550Y23899815D01*
X15366046Y23802268D01*
X15564066Y23742200D01*
X15564065Y23742200D01*
X15582529Y23740382D01*
X15770000Y23721917D01*
X15975934Y23742200D01*
X16173954Y23802268D01*
X16356450Y23899815D01*
X16516410Y24031090D01*
X16647685Y24191050D01*
X16745232Y24373546D01*
X16805300Y24571566D01*
X16825583Y24777500D01*
X16805300Y24983434D01*
X16745232Y25181454D01*
X16647685Y25363950D01*
X16574596Y25453010D01*
X16516410Y25523911D01*
X16356452Y25655183D01*
X16356453Y25655183D01*
X16356450Y25655185D01*
X16182552Y25748136D01*
X16173956Y25752731D01*
X16173955Y25752732D01*
X16173954Y25752732D01*
X15975934Y25812800D01*
X15975932Y25812801D01*
X15975934Y25812801D01*
X15770000Y25833083D01*
X15564067Y25812801D01*
X15366043Y25752731D01*
X15326350Y25731514D01*
X15183550Y25655185D01*
X15183548Y25655184D01*
X15183547Y25655183D01*
X15023589Y25523911D01*
X14901678Y25375359D01*
X14892315Y25363950D01*
X14869013Y25320355D01*
X14794769Y25181457D01*
X14794768Y25181455D01*
X14794768Y25181454D01*
X14792369Y25173546D01*
X14734699Y24983433D01*
X14714417Y24777500D01*
X13375000Y24777500D01*
X13375000Y24930328D01*
X13374999Y24930345D01*
X13368598Y24989873D01*
X13368596Y24989880D01*
X13318354Y25124587D01*
X13318350Y25124594D01*
X13232190Y25239688D01*
X13232187Y25239691D01*
X13117093Y25325851D01*
X13117086Y25325855D01*
X12982379Y25376097D01*
X12982372Y25376099D01*
X12922844Y25382500D01*
X12525000Y25382500D01*
X12275000Y25382500D01*
X11877155Y25382500D01*
X11817627Y25376099D01*
X11817620Y25376097D01*
X11682913Y25325855D01*
X11682906Y25325851D01*
X11567812Y25239691D01*
X11567809Y25239688D01*
X11481649Y25124594D01*
X11481645Y25124587D01*
X11431403Y24989880D01*
X11431401Y24989873D01*
X11425000Y24930345D01*
X11425000Y24670000D01*
X10275500Y24670000D01*
X10275500Y25297392D01*
X10275499Y25297396D01*
X10268039Y25320355D01*
X10263495Y25339279D01*
X10263158Y25341406D01*
X10259719Y25363126D01*
X10248753Y25384646D01*
X10241308Y25402622D01*
X10240550Y25404954D01*
X10233849Y25425581D01*
X10219651Y25445122D01*
X10209492Y25461701D01*
X10198528Y25483220D01*
X10103220Y25578528D01*
X9111194Y26570554D01*
X9111193Y26570554D01*
X9087220Y26594528D01*
X9087219Y26594529D01*
X9087216Y26594531D01*
X9065703Y26605492D01*
X9049111Y26615659D01*
X9029581Y26629849D01*
X9029579Y26629850D01*
X9029580Y26629850D01*
X9006615Y26637312D01*
X8988641Y26644757D01*
X8967127Y26655719D01*
X8962010Y26656530D01*
X8943273Y26659497D01*
X8924358Y26664038D01*
X8901394Y26671500D01*
X8901393Y26671500D01*
X8867488Y26671500D01*
X8654664Y26671500D01*
X8587625Y26691185D01*
X8541870Y26743989D01*
X8531374Y26782246D01*
X8530877Y26786872D01*
X8529091Y26803483D01*
X8478796Y26938331D01*
X8478795Y26938332D01*
X8478793Y26938336D01*
X8392547Y27053545D01*
X8392544Y27053548D01*
X8277335Y27139794D01*
X8277328Y27139798D01*
X8142486Y27190090D01*
X8142485Y27190091D01*
X8142483Y27190091D01*
X8082873Y27196500D01*
X8082863Y27196500D01*
X7337129Y27196500D01*
X7337123Y27196499D01*
X7277516Y27190092D01*
X7142671Y27139798D01*
X7142664Y27139794D01*
X7027455Y27053548D01*
X7027452Y27053545D01*
X6941206Y26938336D01*
X6941202Y26938329D01*
X6890908Y26803483D01*
X6884512Y26743989D01*
X6884501Y26743877D01*
X6884500Y26743865D01*
X6884500Y25748130D01*
X6485500Y25748130D01*
X6485499Y26743872D01*
X6479091Y26803483D01*
X6428796Y26938331D01*
X6428795Y26938332D01*
X6428793Y26938336D01*
X6342547Y27053545D01*
X6342544Y27053548D01*
X6227335Y27139794D01*
X6227328Y27139798D01*
X6092486Y27190090D01*
X6092485Y27190091D01*
X6092483Y27190091D01*
X6032873Y27196500D01*
X6032863Y27196500D01*
X5287129Y27196500D01*
X5287123Y27196499D01*
X5227516Y27190092D01*
X5092671Y27139798D01*
X5092664Y27139794D01*
X4977455Y27053548D01*
X4977452Y27053545D01*
X4891206Y26938336D01*
X4891202Y26938329D01*
X4840908Y26803483D01*
X4834512Y26743989D01*
X4834501Y26743877D01*
X4834500Y26743865D01*
X4834500Y25748130D01*
X4834501Y25748124D01*
X4840908Y25688517D01*
X4891202Y25553672D01*
X4891206Y25553665D01*
X4977452Y25438456D01*
X4977455Y25438453D01*
X5009286Y25414624D01*
X5051157Y25358690D01*
X5056141Y25288999D01*
X5022655Y25227676D01*
X5009287Y25216092D01*
X4952452Y25173545D01*
X4860888Y25051231D01*
X4859244Y25052462D01*
X4818097Y25011326D01*
X4749822Y24996484D01*
X4684361Y25020911D01*
X4659422Y25045853D01*
X4582546Y25148546D01*
X4525107Y25191545D01*
X4467335Y25234794D01*
X4467328Y25234798D01*
X4332482Y25285092D01*
X4332483Y25285092D01*
X4272883Y25291499D01*
X4272881Y25291500D01*
X4272873Y25291500D01*
X4272864Y25291500D01*
X3477129Y25291500D01*
X3477123Y25291499D01*
X3417516Y25285092D01*
X3282671Y25234798D01*
X3282664Y25234794D01*
X3167455Y25148548D01*
X3167452Y25148545D01*
X3081206Y25033336D01*
X3081202Y25033329D01*
X3030908Y24898483D01*
X3027183Y24863828D01*
X3024501Y24838877D01*
X3024500Y24838865D01*
X3024500Y23843130D01*
X3024501Y23843124D01*
X3030908Y23783517D01*
X3081202Y23648672D01*
X3081206Y23648665D01*
X3167452Y23533456D01*
X3167455Y23533453D01*
X3282664Y23447207D01*
X3282671Y23447203D01*
X3417517Y23396909D01*
X3417516Y23396909D01*
X3422549Y23396368D01*
X3477127Y23390500D01*
X4222302Y23390501D01*
X4289341Y23370817D01*
X4335096Y23318013D01*
X4345040Y23248854D01*
X4316015Y23185298D01*
X4280756Y23157144D01*
X4183550Y23105185D01*
X4183548Y23105184D01*
X4183547Y23105183D01*
X4023589Y22973911D01*
X3900295Y22823674D01*
X3892315Y22813950D01*
X3892164Y22813667D01*
X3794769Y22631457D01*
X3794768Y22631455D01*
X3794768Y22631454D01*
X3787898Y22608808D01*
X3734699Y22433433D01*
X3714417Y22227501D01*
X3734699Y22021568D01*
X3754775Y21955388D01*
X3794768Y21823546D01*
X3892315Y21641050D01*
X3899742Y21632000D01*
X4023589Y21481090D01*
X4154864Y21373357D01*
X4183550Y21349815D01*
X4183552Y21349814D01*
X4183555Y21349812D01*
X4278952Y21298821D01*
X4328796Y21249859D01*
X4344499Y21189463D01*
X4344499Y20656277D01*
X4324814Y20589238D01*
X4272010Y20543483D01*
X4233754Y20532988D01*
X4197520Y20529093D01*
X4062671Y20478798D01*
X4062664Y20478794D01*
X3947455Y20392548D01*
X3947452Y20392545D01*
X3861206Y20277336D01*
X3861202Y20277329D01*
X3810910Y20142487D01*
X3810909Y20142483D01*
X3804500Y20082873D01*
X3804500Y20082866D01*
X3804500Y20082865D01*
X3804500Y19312130D01*
X3804501Y19312124D01*
X3811421Y19247753D01*
X3799014Y19178994D01*
X3751403Y19127857D01*
X3688131Y19110500D01*
X3480110Y19110500D01*
X3413071Y19130185D01*
X3392429Y19146819D01*
X3251818Y19287430D01*
X3218333Y19348753D01*
X3215499Y19375111D01*
X3215499Y19697501D01*
X3215499Y20082872D01*
X3209091Y20142483D01*
X3205361Y20152483D01*
X3158797Y20277329D01*
X3158793Y20277336D01*
X3072547Y20392545D01*
X3072544Y20392548D01*
X2957335Y20478794D01*
X2957328Y20478798D01*
X2822482Y20529092D01*
X2822484Y20529092D01*
X2766243Y20535138D01*
X2701692Y20561876D01*
X2661844Y20619269D01*
X2655499Y20658427D01*
X2655499Y20753083D01*
X2655499Y21189467D01*
X2675184Y21256502D01*
X2721043Y21298820D01*
X2816450Y21349815D01*
X2976410Y21481090D01*
X3107685Y21641050D01*
X3205232Y21823546D01*
X3265300Y22021566D01*
X3285583Y22227500D01*
X3265300Y22433434D01*
X3205232Y22631454D01*
X3107685Y22813950D01*
X3007985Y22935436D01*
X2976410Y22973911D01*
X2816451Y23105185D01*
X2721045Y23156182D01*
X2671202Y23205145D01*
X2655500Y23265539D01*
X2655500Y23592670D01*
X2667501Y23639686D01*
X2665697Y23640359D01*
X2703681Y23742200D01*
X2719091Y23783517D01*
X2725500Y23843127D01*
X2725499Y24838872D01*
X2719091Y24898483D01*
X2715972Y24906845D01*
X2668797Y25033329D01*
X2668793Y25033336D01*
X2582547Y25148545D01*
X2582544Y25148548D01*
X2467335Y25234794D01*
X2467328Y25234798D01*
X2332482Y25285092D01*
X2332483Y25285092D01*
X2272883Y25291499D01*
X2272881Y25291500D01*
X2272873Y25291500D01*
X2272864Y25291500D01*
X1477129Y25291500D01*
X1477123Y25291499D01*
X1417516Y25285092D01*
X1282671Y25234798D01*
X1282664Y25234794D01*
X1167455Y25148548D01*
X1167452Y25148545D01*
X1081206Y25033336D01*
X1081202Y25033329D01*
X1030908Y24898483D01*
X1027183Y24863828D01*
X1024501Y24838877D01*
X1024500Y24838865D01*
X1024500Y23843130D01*
X300500Y23843130D01*
X300500Y27317500D01*
X14714417Y27317500D01*
X14734699Y27111568D01*
X14752299Y27053548D01*
X14794768Y26913546D01*
X14892315Y26731050D01*
X14892317Y26731048D01*
X15023589Y26571090D01*
X15120209Y26491798D01*
X15183550Y26439815D01*
X15366046Y26342268D01*
X15564066Y26282200D01*
X15564065Y26282200D01*
X15582529Y26280382D01*
X15770000Y26261917D01*
X15975934Y26282200D01*
X16173954Y26342268D01*
X16356450Y26439815D01*
X16516410Y26571090D01*
X16647685Y26731050D01*
X16745232Y26913546D01*
X16805300Y27111566D01*
X16825583Y27317500D01*
X16805300Y27523434D01*
X16745232Y27721454D01*
X16647685Y27903950D01*
X16573603Y27994220D01*
X16516410Y28063911D01*
X16356452Y28195183D01*
X16356453Y28195183D01*
X16356450Y28195185D01*
X16173954Y28292732D01*
X15975934Y28352800D01*
X15975932Y28352801D01*
X15975934Y28352801D01*
X15770000Y28373083D01*
X15564067Y28352801D01*
X15366043Y28292731D01*
X15255898Y28233857D01*
X15183550Y28195185D01*
X15183548Y28195184D01*
X15183547Y28195183D01*
X15023589Y28063911D01*
X14892317Y27903953D01*
X14892315Y27903950D01*
X14874771Y27871127D01*
X14794769Y27721457D01*
X14734699Y27523433D01*
X14714417Y27317500D01*
X300500Y27317500D01*
X300500Y29972500D01*
X1187229Y29972500D01*
X1844812Y29972500D01*
X1825014Y29847500D01*
X1844812Y29722500D01*
X1187230Y29722500D01*
X1195191Y29641666D01*
X1255233Y29443734D01*
X1352728Y29261334D01*
X1352732Y29261327D01*
X1483944Y29101445D01*
X1643826Y28970233D01*
X1643833Y28970229D01*
X1826233Y28872734D01*
X2024165Y28812692D01*
X2104999Y28804731D01*
X2105000Y28804732D01*
X2105000Y29462312D01*
X2198519Y29447500D01*
X2261481Y29447500D01*
X2355000Y29462312D01*
X2355000Y28804731D01*
X2435834Y28812692D01*
X2633766Y28872734D01*
X2816166Y28970229D01*
X2816173Y28970233D01*
X2976055Y29101445D01*
X3107267Y29261327D01*
X3107271Y29261334D01*
X3204766Y29443734D01*
X3264808Y29641666D01*
X3272770Y29722500D01*
X2615188Y29722500D01*
X2634986Y29847500D01*
X3714417Y29847500D01*
X3734699Y29641568D01*
X3746046Y29604163D01*
X3794768Y29443546D01*
X3892315Y29261050D01*
X3892317Y29261048D01*
X4023589Y29101090D01*
X4100712Y29037798D01*
X4183550Y28969815D01*
X4366046Y28872268D01*
X4564066Y28812200D01*
X4564065Y28812200D01*
X4582529Y28810382D01*
X4770000Y28791917D01*
X4975934Y28812200D01*
X5079452Y28843603D01*
X5149319Y28844226D01*
X5203129Y28812623D01*
X5884486Y28131266D01*
X5979794Y28035958D01*
X6001314Y28024993D01*
X6017889Y28014837D01*
X6037433Y28000637D01*
X6060395Y27993177D01*
X6078368Y27985733D01*
X6099888Y27974767D01*
X6123738Y27970991D01*
X6142659Y27966447D01*
X6164503Y27959350D01*
X6165621Y27958986D01*
X6199526Y27958986D01*
X7696876Y27958986D01*
X7763915Y27939301D01*
X7784557Y27922667D01*
X8028444Y27678780D01*
X8123752Y27583472D01*
X8145271Y27572508D01*
X8161850Y27562349D01*
X8181391Y27548151D01*
X8204353Y27540691D01*
X8222326Y27533247D01*
X8243846Y27522281D01*
X8267696Y27518505D01*
X8286617Y27513961D01*
X8308461Y27506864D01*
X8309579Y27506500D01*
X8309580Y27506500D01*
X11300420Y27506500D01*
X11300421Y27506500D01*
X11323388Y27513964D01*
X11342304Y27518505D01*
X11366154Y27522281D01*
X11387664Y27533243D01*
X11405642Y27540690D01*
X11428609Y27548151D01*
X11448146Y27562347D01*
X11464734Y27572512D01*
X11486248Y27583472D01*
X11581556Y27678780D01*
X11640115Y27737339D01*
X11640127Y27737353D01*
X12298554Y28395778D01*
X12298554Y28395779D01*
X12322528Y28419752D01*
X12333493Y28441273D01*
X12343650Y28457847D01*
X12357850Y28477391D01*
X12365311Y28500358D01*
X12372760Y28518339D01*
X12383718Y28539843D01*
X12383718Y28539844D01*
X12383718Y28539845D01*
X12383719Y28539846D01*
X12387496Y28563699D01*
X12392035Y28582606D01*
X12399500Y28605579D01*
X12399500Y28740365D01*
X12399500Y29857500D01*
X14714417Y29857500D01*
X14734699Y29651568D01*
X14747474Y29609455D01*
X14794768Y29453546D01*
X14892315Y29271050D01*
X14926969Y29228823D01*
X15023589Y29111090D01*
X15112902Y29037794D01*
X15183550Y28979815D01*
X15366046Y28882268D01*
X15564066Y28822200D01*
X15564065Y28822200D01*
X15576138Y28821011D01*
X15770000Y28801917D01*
X15975934Y28822200D01*
X16173954Y28882268D01*
X16356450Y28979815D01*
X16516410Y29111090D01*
X16647685Y29271050D01*
X16745232Y29453546D01*
X16805300Y29651566D01*
X16825583Y29857500D01*
X16805300Y30063434D01*
X16745232Y30261454D01*
X16647685Y30443950D01*
X16595702Y30507291D01*
X16516410Y30603911D01*
X16369138Y30724772D01*
X16356450Y30735185D01*
X16173954Y30832732D01*
X15975934Y30892800D01*
X15975932Y30892801D01*
X15975934Y30892801D01*
X15770000Y30913083D01*
X15564067Y30892801D01*
X15451233Y30858573D01*
X15373998Y30835144D01*
X15366043Y30832731D01*
X15282088Y30787855D01*
X15183550Y30735185D01*
X15183548Y30735184D01*
X15183547Y30735183D01*
X15023589Y30603911D01*
X14902614Y30456500D01*
X14892315Y30443950D01*
X14886819Y30433667D01*
X14794769Y30261457D01*
X14794768Y30261455D01*
X14794768Y30261454D01*
X14787898Y30238808D01*
X14734699Y30063433D01*
X14714417Y29857500D01*
X12399500Y29857500D01*
X12399500Y31444391D01*
X12419185Y31511429D01*
X12435819Y31532071D01*
X14064429Y33160681D01*
X14125752Y33194166D01*
X14152110Y33197000D01*
X14805629Y33197000D01*
X14872668Y33177315D01*
X14918423Y33124511D01*
X14928367Y33055353D01*
X14901484Y32994337D01*
X14892732Y32983673D01*
X14892728Y32983667D01*
X14795233Y32801267D01*
X14735191Y32603335D01*
X14727229Y32522500D01*
X15285595Y32522500D01*
X15270000Y32469389D01*
X15270000Y32325611D01*
X15285595Y32272500D01*
X14727230Y32272500D01*
X14735191Y32191666D01*
X14795233Y31993734D01*
X14892728Y31811334D01*
X14892732Y31811327D01*
X15023944Y31651445D01*
X15183826Y31520233D01*
X15183833Y31520229D01*
X15366233Y31422734D01*
X15564165Y31362692D01*
X15644999Y31354731D01*
X15645000Y31354732D01*
X15645000Y31910331D01*
X15734237Y31897500D01*
X15805763Y31897500D01*
X15895000Y31910331D01*
X15895000Y31354731D01*
X15975834Y31362692D01*
X16173766Y31422734D01*
X16356166Y31520229D01*
X16356173Y31520233D01*
X16516055Y31651445D01*
X16647267Y31811327D01*
X16647271Y31811334D01*
X16744766Y31993734D01*
X16804808Y32191666D01*
X16812770Y32272500D01*
X16254405Y32272500D01*
X16270000Y32325611D01*
X16270000Y32469389D01*
X16254405Y32522500D01*
X16812770Y32522500D01*
X16804808Y32603335D01*
X16744766Y32801267D01*
X16647271Y32983667D01*
X16647267Y32983673D01*
X16638516Y32994337D01*
X16611204Y33058647D01*
X16622997Y33127515D01*
X16670150Y33179074D01*
X16734371Y33197000D01*
X18288892Y33197000D01*
X18288893Y33197000D01*
X18311860Y33204464D01*
X18330776Y33209005D01*
X18354626Y33212781D01*
X18376136Y33223743D01*
X18394114Y33231190D01*
X18417081Y33238651D01*
X18436618Y33252847D01*
X18453206Y33263012D01*
X18474720Y33273972D01*
X18570028Y33369280D01*
X20030929Y34830181D01*
X20092252Y34863666D01*
X20118610Y34866500D01*
X20215985Y34866500D01*
X20369365Y34904304D01*
X20369365Y34904305D01*
X20432615Y34937501D01*
X29954417Y34937501D01*
X29974699Y34731568D01*
X30004733Y34632556D01*
X30034768Y34533546D01*
X30132315Y34351050D01*
X30133244Y34349918D01*
X30263589Y34191090D01*
X30293570Y34166486D01*
X30423550Y34059815D01*
X30606046Y33962268D01*
X30804066Y33902200D01*
X30804065Y33902200D01*
X30824347Y33900203D01*
X31010000Y33881917D01*
X31215934Y33902200D01*
X31413954Y33962268D01*
X31596450Y34059815D01*
X31756410Y34191090D01*
X31887685Y34351050D01*
X31985232Y34533546D01*
X32045300Y34731566D01*
X32065583Y34937500D01*
X32045300Y35143434D01*
X31985232Y35341454D01*
X31887685Y35523950D01*
X31826383Y35598647D01*
X31756410Y35683911D01*
X31596452Y35815183D01*
X31596453Y35815183D01*
X31596450Y35815185D01*
X31413954Y35912732D01*
X31215934Y35972800D01*
X31215932Y35972801D01*
X31215934Y35972801D01*
X31028463Y35991265D01*
X31010000Y35993083D01*
X31009999Y35993083D01*
X30804067Y35972801D01*
X30628692Y35919602D01*
X30609096Y35913657D01*
X30606043Y35912731D01*
X30542190Y35878600D01*
X30423550Y35815185D01*
X30423548Y35815184D01*
X30423547Y35815183D01*
X30263589Y35683911D01*
X30134657Y35526804D01*
X30132315Y35523950D01*
X30097211Y35458276D01*
X30034769Y35341457D01*
X29974699Y35143433D01*
X29954417Y34937501D01*
X20432615Y34937501D01*
X20509240Y34977717D01*
X20627483Y35082470D01*
X20717220Y35212477D01*
X20773237Y35360182D01*
X20792278Y35517000D01*
X20791486Y35523523D01*
X20802944Y35592446D01*
X20826897Y35626151D01*
X22803246Y37602500D01*
X29967229Y37602500D01*
X30525595Y37602500D01*
X30510000Y37549389D01*
X30510000Y37405611D01*
X30525595Y37352500D01*
X29967230Y37352500D01*
X29975191Y37271666D01*
X30035233Y37073734D01*
X30132728Y36891334D01*
X30132732Y36891327D01*
X30263944Y36731445D01*
X30423826Y36600233D01*
X30423833Y36600229D01*
X30606233Y36502734D01*
X30804165Y36442692D01*
X30884999Y36434731D01*
X30885000Y36434732D01*
X30885000Y36990331D01*
X30974237Y36977500D01*
X31045763Y36977500D01*
X31135000Y36990331D01*
X31135000Y36434731D01*
X31215834Y36442692D01*
X31413766Y36502734D01*
X31596166Y36600229D01*
X31596173Y36600233D01*
X31756055Y36731445D01*
X31887267Y36891327D01*
X31887271Y36891334D01*
X31984766Y37073734D01*
X32044808Y37271666D01*
X32052770Y37352500D01*
X31494405Y37352500D01*
X31510000Y37405611D01*
X31510000Y37549389D01*
X31494405Y37602500D01*
X32052770Y37602500D01*
X32044808Y37683335D01*
X31984766Y37881267D01*
X31887271Y38063667D01*
X31887267Y38063674D01*
X31756055Y38223556D01*
X31596173Y38354768D01*
X31596166Y38354772D01*
X31413766Y38452267D01*
X31215834Y38512309D01*
X31135000Y38520271D01*
X31135000Y37964670D01*
X31045763Y37977500D01*
X30974237Y37977500D01*
X30885000Y37964670D01*
X30885000Y38520271D01*
X30804165Y38512309D01*
X30606233Y38452267D01*
X30423833Y38354772D01*
X30423826Y38354768D01*
X30263944Y38223556D01*
X30132732Y38063674D01*
X30132728Y38063667D01*
X30035233Y37881267D01*
X29975191Y37683335D01*
X29967229Y37602500D01*
X22803246Y37602500D01*
X26224928Y41024181D01*
X26286252Y41057666D01*
X26312610Y41060500D01*
X30278429Y41060500D01*
X30345468Y41040815D01*
X30391223Y40988011D01*
X30401167Y40918853D01*
X30372142Y40855297D01*
X30357094Y40840647D01*
X30263590Y40763911D01*
X30132317Y40603953D01*
X30132315Y40603950D01*
X30105985Y40554690D01*
X30034769Y40421457D01*
X29974699Y40223433D01*
X29954417Y40017501D01*
X29974699Y39811568D01*
X29998623Y39732702D01*
X30033720Y39617000D01*
X30034769Y39613544D01*
X30041502Y39600947D01*
X30132315Y39431050D01*
X30132317Y39431048D01*
X30263589Y39271090D01*
X30349618Y39200489D01*
X30423550Y39139815D01*
X30606046Y39042268D01*
X30804066Y38982200D01*
X30804065Y38982200D01*
X30822529Y38980382D01*
X31010000Y38961917D01*
X31215934Y38982200D01*
X31413954Y39042268D01*
X31596450Y39139815D01*
X31756410Y39271090D01*
X31887685Y39431050D01*
X31985232Y39613546D01*
X32045300Y39811566D01*
X32065583Y40017500D01*
X32045300Y40223434D01*
X31985232Y40421454D01*
X31887685Y40603950D01*
X31756410Y40763910D01*
X31752644Y40767001D01*
X31662906Y40840647D01*
X31623572Y40898392D01*
X31621701Y40968237D01*
X31657888Y41028005D01*
X31720644Y41058721D01*
X31741571Y41060500D01*
X34260390Y41060500D01*
X34327429Y41040815D01*
X34348071Y41024181D01*
X39243181Y36129072D01*
X39276666Y36067749D01*
X39279500Y36041391D01*
X39279499Y30895539D01*
X39259814Y30828500D01*
X39213954Y30786182D01*
X39118549Y30735185D01*
X38958589Y30603911D01*
X38837614Y30456500D01*
X38827315Y30443950D01*
X38821819Y30433667D01*
X38729769Y30261457D01*
X38729768Y30261455D01*
X38729768Y30261454D01*
X38722898Y30238808D01*
X38669699Y30063433D01*
X38649417Y29857500D01*
X38669699Y29651568D01*
X38682474Y29609455D01*
X38729768Y29453546D01*
X38827315Y29271050D01*
X38872290Y29216248D01*
X38918316Y29160164D01*
X38945628Y29095854D01*
X38933837Y29026987D01*
X38886684Y28975427D01*
X38822462Y28957500D01*
X38046892Y28957500D01*
X37979853Y28977185D01*
X37934098Y29029989D01*
X37924154Y29099147D01*
X37951039Y29160165D01*
X38042267Y29271327D01*
X38042271Y29271334D01*
X38139766Y29453734D01*
X38199808Y29651666D01*
X38207770Y29732500D01*
X37550188Y29732500D01*
X37569986Y29857500D01*
X37550188Y29982500D01*
X38207770Y29982500D01*
X38199808Y30063335D01*
X38139766Y30261267D01*
X38042271Y30443667D01*
X38042267Y30443674D01*
X37911055Y30603556D01*
X37751173Y30734768D01*
X37751166Y30734772D01*
X37568766Y30832267D01*
X37370834Y30892309D01*
X37290000Y30900271D01*
X37290000Y30242689D01*
X37196481Y30257500D01*
X37133519Y30257500D01*
X37040000Y30242689D01*
X37040000Y30900271D01*
X36959165Y30892309D01*
X36761233Y30832267D01*
X36578833Y30734772D01*
X36578826Y30734768D01*
X36418944Y30603556D01*
X36287732Y30443674D01*
X36287728Y30443667D01*
X36190233Y30261267D01*
X36130191Y30063335D01*
X36122229Y29982500D01*
X36779812Y29982500D01*
X36760014Y29857500D01*
X36779812Y29732500D01*
X36122230Y29732500D01*
X36130191Y29651666D01*
X36190233Y29453734D01*
X36287728Y29271334D01*
X36287732Y29271327D01*
X36378961Y29160165D01*
X36406274Y29095855D01*
X36394483Y29026987D01*
X36347331Y28975427D01*
X36283108Y28957500D01*
X35500863Y28957500D01*
X35433824Y28977185D01*
X35426562Y28982227D01*
X35352331Y29037796D01*
X35352328Y29037798D01*
X35217482Y29088092D01*
X35217483Y29088092D01*
X35157883Y29094499D01*
X35157881Y29094500D01*
X35157873Y29094500D01*
X35157864Y29094500D01*
X34112129Y29094500D01*
X34112123Y29094499D01*
X34052516Y29088092D01*
X33917671Y29037798D01*
X33917664Y29037794D01*
X33802455Y28951548D01*
X33716002Y28836062D01*
X33660068Y28794192D01*
X33590376Y28789208D01*
X33529055Y28822693D01*
X33171819Y29179929D01*
X33138334Y29241252D01*
X33135500Y29267610D01*
X33135500Y30206500D01*
X33660000Y30206500D01*
X33660000Y29946156D01*
X33666401Y29886628D01*
X33666403Y29886621D01*
X33716645Y29751914D01*
X33716649Y29751907D01*
X33802809Y29636813D01*
X33802812Y29636810D01*
X33917906Y29550650D01*
X33917913Y29550646D01*
X34052620Y29500404D01*
X34052627Y29500402D01*
X34112155Y29494001D01*
X34112172Y29494000D01*
X34510000Y29494000D01*
X34510000Y30206500D01*
X34760000Y30206500D01*
X34760000Y29494000D01*
X35157828Y29494000D01*
X35157844Y29494001D01*
X35217372Y29500402D01*
X35217379Y29500404D01*
X35352086Y29550646D01*
X35352093Y29550650D01*
X35467187Y29636810D01*
X35467190Y29636813D01*
X35553350Y29751907D01*
X35553354Y29751914D01*
X35603596Y29886621D01*
X35603598Y29886628D01*
X35609999Y29946156D01*
X35610000Y29946181D01*
X35610000Y30206500D01*
X34760000Y30206500D01*
X34510000Y30206500D01*
X33660000Y30206500D01*
X33135500Y30206500D01*
X33135500Y30456500D01*
X33660000Y30456500D01*
X34510000Y30456500D01*
X34510000Y31169000D01*
X34760000Y31169000D01*
X34760000Y30456500D01*
X35610000Y30456500D01*
X35610000Y30716828D01*
X35609999Y30716845D01*
X35603598Y30776373D01*
X35603596Y30776380D01*
X35553354Y30911087D01*
X35553350Y30911094D01*
X35467190Y31026188D01*
X35467187Y31026191D01*
X35352093Y31112351D01*
X35352086Y31112355D01*
X35217379Y31162597D01*
X35217372Y31162599D01*
X35157844Y31169000D01*
X34760000Y31169000D01*
X34510000Y31169000D01*
X34112155Y31169000D01*
X34052627Y31162599D01*
X34052620Y31162597D01*
X33917913Y31112355D01*
X33917906Y31112351D01*
X33802812Y31026191D01*
X33802809Y31026188D01*
X33716649Y30911094D01*
X33716645Y30911087D01*
X33666403Y30776380D01*
X33666401Y30776373D01*
X33660000Y30716845D01*
X33660000Y30456500D01*
X33135500Y30456500D01*
X33135500Y30764892D01*
X33135499Y30764896D01*
X33128039Y30787855D01*
X33123495Y30806779D01*
X33119719Y30830626D01*
X33108753Y30852146D01*
X33101308Y30870122D01*
X33093849Y30893081D01*
X33079653Y30912620D01*
X33069493Y30929199D01*
X33058528Y30950720D01*
X32963220Y31046028D01*
X32956155Y31053093D01*
X32956148Y31053099D01*
X32044877Y31964371D01*
X32011392Y32025694D01*
X32013898Y32088048D01*
X32045300Y32191566D01*
X32065583Y32397500D01*
X32045300Y32603434D01*
X31985232Y32801454D01*
X31887685Y32983950D01*
X31807513Y33081641D01*
X31756410Y33143911D01*
X31596452Y33275183D01*
X31596453Y33275183D01*
X31596450Y33275185D01*
X31413954Y33372732D01*
X31215934Y33432800D01*
X31215932Y33432801D01*
X31215934Y33432801D01*
X31028463Y33451265D01*
X31010000Y33453083D01*
X31009999Y33453083D01*
X30804067Y33432801D01*
X30606043Y33372731D01*
X30536759Y33335697D01*
X30423550Y33275185D01*
X30423548Y33275184D01*
X30423547Y33275183D01*
X30263589Y33143911D01*
X30132317Y32983953D01*
X30132315Y32983950D01*
X30102277Y32927753D01*
X30034769Y32801457D01*
X29974699Y32603433D01*
X29954417Y32397500D01*
X29974699Y32191568D01*
X29999350Y32110304D01*
X30034768Y31993546D01*
X30132315Y31811050D01*
X30132317Y31811048D01*
X30263589Y31651090D01*
X30318056Y31606391D01*
X30423550Y31519815D01*
X30606046Y31422268D01*
X30804066Y31362200D01*
X30804065Y31362200D01*
X30822529Y31360382D01*
X31010000Y31341917D01*
X31215934Y31362200D01*
X31319452Y31393603D01*
X31389319Y31394226D01*
X31443129Y31362623D01*
X32248181Y30557572D01*
X32281666Y30496249D01*
X32284500Y30469891D01*
X32284500Y30110838D01*
X32264815Y30043799D01*
X32212011Y29998044D01*
X32142853Y29988100D01*
X32079297Y30017125D01*
X32041839Y30074843D01*
X32011414Y30175141D01*
X31985232Y30261454D01*
X31887685Y30443950D01*
X31835702Y30507291D01*
X31756410Y30603911D01*
X31609138Y30724772D01*
X31596450Y30735185D01*
X31413954Y30832732D01*
X31215934Y30892800D01*
X31215932Y30892801D01*
X31215934Y30892801D01*
X31010000Y30913083D01*
X30804067Y30892801D01*
X30691233Y30858573D01*
X30613998Y30835144D01*
X30606043Y30832731D01*
X30522088Y30787855D01*
X30423550Y30735185D01*
X30423548Y30735184D01*
X30423547Y30735183D01*
X30263589Y30603911D01*
X30142614Y30456500D01*
X30132315Y30443950D01*
X30126819Y30433667D01*
X30034769Y30261457D01*
X30034768Y30261455D01*
X30034768Y30261454D01*
X30027898Y30238808D01*
X29974699Y30063433D01*
X29954417Y29857501D01*
X29974699Y29651568D01*
X29987474Y29609455D01*
X30034768Y29453546D01*
X30132315Y29271050D01*
X30166969Y29228823D01*
X30263589Y29111090D01*
X30352902Y29037794D01*
X30423550Y28979815D01*
X30606046Y28882268D01*
X30804066Y28822200D01*
X30804065Y28822200D01*
X30816138Y28821011D01*
X31010000Y28801917D01*
X31215934Y28822200D01*
X31413954Y28882268D01*
X31596450Y28979815D01*
X31756410Y29111090D01*
X31887685Y29271050D01*
X31985232Y29453546D01*
X32041839Y29640160D01*
X32080137Y29698597D01*
X32143949Y29727053D01*
X32213016Y29716493D01*
X32265409Y29670269D01*
X32284500Y29604163D01*
X32284500Y28972606D01*
X32291962Y28949642D01*
X32296503Y28930727D01*
X32299470Y28911990D01*
X32300281Y28906873D01*
X32311243Y28885359D01*
X32318688Y28867385D01*
X32326150Y28844420D01*
X32340340Y28824890D01*
X32350508Y28808297D01*
X32361470Y28786782D01*
X32361472Y28786780D01*
X32385445Y28762807D01*
X32385446Y28762806D01*
X33144972Y28003280D01*
X33240280Y27907972D01*
X33261800Y27897007D01*
X33278375Y27886851D01*
X33297919Y27872651D01*
X33320881Y27865191D01*
X33338854Y27857747D01*
X33360374Y27846781D01*
X33384224Y27843005D01*
X33403145Y27838461D01*
X33424989Y27831364D01*
X33426107Y27831000D01*
X33460012Y27831000D01*
X33572547Y27831000D01*
X33639586Y27811315D01*
X33685341Y27758511D01*
X33688729Y27750333D01*
X33716202Y27676672D01*
X33716206Y27676665D01*
X33802452Y27561456D01*
X33802455Y27561453D01*
X33917664Y27475207D01*
X33917671Y27475203D01*
X34052517Y27424909D01*
X34052516Y27424909D01*
X34059444Y27424165D01*
X34112127Y27418500D01*
X35157872Y27418501D01*
X35217483Y27424909D01*
X35352331Y27475204D01*
X35467546Y27561454D01*
X35553796Y27676669D01*
X35604091Y27811517D01*
X35610500Y27871127D01*
X35610500Y27982500D01*
X35630185Y28049539D01*
X35682989Y28095294D01*
X35734500Y28106500D01*
X41626390Y28106500D01*
X41693429Y28086815D01*
X41714071Y28070181D01*
X42183181Y27601071D01*
X42216666Y27539748D01*
X42219500Y27513390D01*
X42219500Y27321791D01*
X42199815Y27254752D01*
X42147011Y27208997D01*
X42138833Y27205609D01*
X42077671Y27182798D01*
X42077664Y27182794D01*
X41962455Y27096548D01*
X41962452Y27096545D01*
X41876206Y26981336D01*
X41876202Y26981329D01*
X41825908Y26846483D01*
X41819512Y26786989D01*
X41819501Y26786877D01*
X41819500Y26786865D01*
X41819500Y25791130D01*
X41819501Y25791124D01*
X41825908Y25731517D01*
X41876202Y25596672D01*
X41876206Y25596665D01*
X41962452Y25481456D01*
X41962453Y25481456D01*
X41962454Y25481454D01*
X41988830Y25461709D01*
X42007204Y25447954D01*
X42049074Y25392020D01*
X42054058Y25322328D01*
X42020572Y25261006D01*
X42007204Y25249422D01*
X41962809Y25216188D01*
X41876649Y25101094D01*
X41876645Y25101087D01*
X41826403Y24966380D01*
X41826401Y24966373D01*
X41820000Y24906845D01*
X41820000Y24509000D01*
X43495000Y24509000D01*
X43495000Y24906828D01*
X43494999Y24906845D01*
X43488598Y24966373D01*
X43488596Y24966380D01*
X43438354Y25101087D01*
X43438350Y25101094D01*
X43352190Y25216188D01*
X43295295Y25258780D01*
X43253425Y25314714D01*
X43248441Y25384406D01*
X43281927Y25445728D01*
X43295291Y25457309D01*
X43327546Y25481454D01*
X43413796Y25596669D01*
X43464091Y25731517D01*
X43466153Y25750704D01*
X43492888Y25815251D01*
X43550279Y25855101D01*
X43620104Y25857597D01*
X43677123Y25825129D01*
X44323181Y25179072D01*
X44356666Y25117749D01*
X44359500Y25091391D01*
X44359500Y23275539D01*
X44339815Y23208500D01*
X44293955Y23166182D01*
X44198548Y23115185D01*
X44038589Y22983911D01*
X43933096Y22855365D01*
X43907315Y22823950D01*
X43868643Y22751603D01*
X43809769Y22641457D01*
X43809768Y22641455D01*
X43809768Y22641454D01*
X43802898Y22618808D01*
X43749699Y22443433D01*
X43729417Y22237501D01*
X43749699Y22031568D01*
X43762474Y21989455D01*
X43804068Y21852335D01*
X43809769Y21833544D01*
X43816502Y21820947D01*
X43907315Y21651050D01*
X43917689Y21638409D01*
X44038589Y21491090D01*
X44135209Y21411798D01*
X44198550Y21359815D01*
X44381046Y21262268D01*
X44579066Y21202200D01*
X44579065Y21202200D01*
X44599347Y21200203D01*
X44785000Y21181917D01*
X44990934Y21202200D01*
X45188954Y21262268D01*
X45371450Y21359815D01*
X45531410Y21491090D01*
X45662685Y21651050D01*
X45760232Y21833546D01*
X45820300Y22031566D01*
X45840583Y22237500D01*
X45820300Y22443434D01*
X45760232Y22641454D01*
X45662685Y22823950D01*
X45587977Y22914983D01*
X45531410Y22983911D01*
X45371451Y23115185D01*
X45276045Y23166182D01*
X45226202Y23215145D01*
X45210500Y23275539D01*
X45210500Y25386392D01*
X45210499Y25386396D01*
X45203039Y25409355D01*
X45198495Y25428279D01*
X45194719Y25452126D01*
X45183753Y25473646D01*
X45176308Y25491622D01*
X45168849Y25514581D01*
X45154653Y25534120D01*
X45144493Y25550699D01*
X45133528Y25572220D01*
X45038220Y25667528D01*
X45031155Y25674593D01*
X45031148Y25674599D01*
X44109635Y26596113D01*
X44109631Y26596119D01*
X44068221Y26637527D01*
X44068220Y26637528D01*
X44046696Y26648495D01*
X44030112Y26658659D01*
X44010581Y26672849D01*
X44010580Y26672850D01*
X43987615Y26680312D01*
X43969641Y26687757D01*
X43948127Y26698719D01*
X43943010Y26699530D01*
X43924273Y26702497D01*
X43905358Y26707038D01*
X43882394Y26714500D01*
X43882393Y26714500D01*
X43848488Y26714500D01*
X43589664Y26714500D01*
X43522625Y26734185D01*
X43476870Y26786989D01*
X43466374Y26825246D01*
X43466170Y26827143D01*
X43464091Y26846483D01*
X43413796Y26981331D01*
X43413795Y26981332D01*
X43413793Y26981336D01*
X43327547Y27096545D01*
X43327544Y27096548D01*
X43212335Y27182794D01*
X43212328Y27182798D01*
X43151167Y27205609D01*
X43095233Y27247480D01*
X43070816Y27312944D01*
X43070500Y27321791D01*
X43070500Y27808392D01*
X43070499Y27808396D01*
X43063039Y27831355D01*
X43058495Y27850279D01*
X43057313Y27857744D01*
X43054719Y27874126D01*
X43043753Y27895646D01*
X43036308Y27913622D01*
X43033369Y27922667D01*
X43028849Y27936581D01*
X43014651Y27956122D01*
X43004492Y27972701D01*
X42993528Y27994220D01*
X42898220Y28089528D01*
X42376522Y28611226D01*
X42343037Y28672549D01*
X42348021Y28742241D01*
X42389893Y28798174D01*
X42445226Y28819660D01*
X42444958Y28821011D01*
X42450926Y28822200D01*
X42450934Y28822200D01*
X42648954Y28882268D01*
X42831450Y28979815D01*
X42991410Y29111090D01*
X43122685Y29271050D01*
X43220232Y29453546D01*
X43280300Y29651566D01*
X43300583Y29857500D01*
X43280300Y30063434D01*
X43220232Y30261454D01*
X43122685Y30443950D01*
X43070702Y30507291D01*
X42991410Y30603911D01*
X42831454Y30735182D01*
X42831453Y30735183D01*
X42831450Y30735185D01*
X42736043Y30786182D01*
X42686201Y30835144D01*
X42670499Y30895536D01*
X42670499Y34099448D01*
X42690184Y34166486D01*
X42742988Y34212241D01*
X42812146Y34222185D01*
X42875702Y34193160D01*
X42882180Y34187128D01*
X44323181Y32746127D01*
X44356666Y32684804D01*
X44359500Y32658446D01*
X44359500Y31032000D01*
X44339815Y30964961D01*
X44287011Y30919206D01*
X44235500Y30908000D01*
X43960323Y30908000D01*
X43887264Y30893468D01*
X43887260Y30893467D01*
X43804399Y30838101D01*
X43749033Y30755240D01*
X43749032Y30755236D01*
X43734500Y30682179D01*
X43734500Y29032822D01*
X43749032Y28959765D01*
X43749033Y28959761D01*
X43761994Y28940363D01*
X43804399Y28876899D01*
X43865517Y28836062D01*
X43887260Y28821534D01*
X43887264Y28821533D01*
X43960321Y28807001D01*
X43960324Y28807000D01*
X43960326Y28807000D01*
X45609676Y28807000D01*
X45609677Y28807001D01*
X45682740Y28821534D01*
X45765601Y28876899D01*
X45820966Y28959760D01*
X45835500Y29032826D01*
X45835500Y30682174D01*
X45835499Y30682175D01*
X45835500Y30682177D01*
X45835499Y30682179D01*
X45820967Y30755236D01*
X45820966Y30755240D01*
X45811937Y30768753D01*
X45765601Y30838101D01*
X45698702Y30882801D01*
X45682739Y30893467D01*
X45682735Y30893468D01*
X45609677Y30908000D01*
X45609674Y30908000D01*
X45334500Y30908000D01*
X45267461Y30927685D01*
X45221706Y30980489D01*
X45210500Y31032000D01*
X45210500Y32953450D01*
X45210499Y32953455D01*
X45203039Y32976413D01*
X45198495Y32995337D01*
X45196445Y33008283D01*
X45194719Y33019182D01*
X45183757Y33040694D01*
X45176309Y33058677D01*
X45168850Y33081636D01*
X45168850Y33081637D01*
X45154653Y33101178D01*
X45144491Y33117760D01*
X45133528Y33139276D01*
X45038220Y33234584D01*
X35279691Y42993113D01*
X35279687Y42993119D01*
X35238277Y43034527D01*
X35238276Y43034528D01*
X35216752Y43045495D01*
X35200168Y43055659D01*
X35187321Y43064993D01*
X35180636Y43069850D01*
X35157671Y43077312D01*
X35139697Y43084757D01*
X35118183Y43095719D01*
X35113066Y43096530D01*
X35094329Y43099497D01*
X35075414Y43104038D01*
X35052450Y43111500D01*
X35052449Y43111500D01*
X35018544Y43111500D01*
X22293393Y43111500D01*
X22158607Y43111500D01*
X22158604Y43111500D01*
X22135639Y43104038D01*
X22116722Y43099497D01*
X22092873Y43095720D01*
X22071358Y43084757D01*
X22053385Y43077312D01*
X22030417Y43069849D01*
X22030414Y43069848D01*
X22010878Y43055654D01*
X21994293Y43045490D01*
X21972780Y43034529D01*
X21960793Y43022542D01*
X21948806Y43010554D01*
X20122647Y41184395D01*
X18317071Y39378819D01*
X18255748Y39345334D01*
X18229390Y39342500D01*
X18153014Y39342500D01*
X17999634Y39304697D01*
X17859761Y39231285D01*
X17859759Y39231283D01*
X17778375Y39159184D01*
X17715142Y39129463D01*
X17696149Y39128000D01*
X16944500Y39128000D01*
X16877461Y39147685D01*
X16831706Y39200489D01*
X16820500Y39252000D01*
X16820500Y40046673D01*
X16820500Y40842174D01*
X16805966Y40915240D01*
X16750601Y40998101D01*
X16667740Y41053466D01*
X16667739Y41053467D01*
X16667735Y41053468D01*
X16594677Y41068000D01*
X16594674Y41068000D01*
X14945326Y41068000D01*
X14945323Y41068000D01*
X14872264Y41053468D01*
X14872260Y41053467D01*
X14789399Y40998101D01*
X14734033Y40915240D01*
X14734032Y40915236D01*
X14719500Y40842179D01*
X14719500Y39252000D01*
X14699815Y39184961D01*
X14647011Y39139206D01*
X14595500Y39128000D01*
X14111104Y39128000D01*
X14088139Y39120538D01*
X14069222Y39115997D01*
X14045373Y39112220D01*
X14023858Y39101257D01*
X14005886Y39093812D01*
X13982918Y39086349D01*
X13982916Y39086348D01*
X13963384Y39072157D01*
X13946799Y39061994D01*
X13925282Y39051031D01*
X13925280Y39051029D01*
X13901305Y39027053D01*
X9538196Y34663947D01*
X9538192Y34663941D01*
X9501472Y34627222D01*
X9490510Y34605707D01*
X9480346Y34589122D01*
X9466152Y34569586D01*
X9466151Y34569583D01*
X9458688Y34546615D01*
X9451243Y34528642D01*
X9440280Y34507127D01*
X9436503Y34483278D01*
X9431962Y34464361D01*
X9424500Y34441396D01*
X9424500Y31022000D01*
X9404815Y30954961D01*
X9352011Y30909206D01*
X9300500Y30898000D01*
X9025323Y30898000D01*
X8952264Y30883468D01*
X8952260Y30883467D01*
X8869399Y30828101D01*
X8814033Y30745240D01*
X8814032Y30745236D01*
X8799500Y30672179D01*
X8799500Y29259110D01*
X8779815Y29192071D01*
X8727011Y29146316D01*
X8657853Y29136372D01*
X8594297Y29165397D01*
X8587819Y29171429D01*
X8344877Y29414371D01*
X8311392Y29475694D01*
X8313898Y29538048D01*
X8335559Y29609455D01*
X8345300Y29641566D01*
X8365583Y29847500D01*
X8345300Y30053434D01*
X8285232Y30251454D01*
X8187685Y30433950D01*
X8056701Y30593556D01*
X8056410Y30593911D01*
X7896452Y30725183D01*
X7896453Y30725183D01*
X7896450Y30725185D01*
X7713954Y30822732D01*
X7515934Y30882800D01*
X7515932Y30882801D01*
X7515934Y30882801D01*
X7310000Y30903083D01*
X7104067Y30882801D01*
X6906043Y30822731D01*
X6858163Y30797138D01*
X6723550Y30725185D01*
X6723548Y30725184D01*
X6723547Y30725183D01*
X6563589Y30593911D01*
X6440295Y30443674D01*
X6432315Y30433950D01*
X6432164Y30433667D01*
X6334769Y30251457D01*
X6334768Y30251455D01*
X6334768Y30251454D01*
X6327898Y30228808D01*
X6274699Y30053433D01*
X6254417Y29847501D01*
X6274699Y29641568D01*
X6286046Y29604163D01*
X6334768Y29443546D01*
X6432315Y29261050D01*
X6432317Y29261048D01*
X6563589Y29101090D01*
X6650409Y29029840D01*
X6689744Y28972094D01*
X6691615Y28902250D01*
X6655428Y28842481D01*
X6592672Y28811765D01*
X6571745Y28809986D01*
X6460624Y28809986D01*
X6393585Y28829671D01*
X6372943Y28846305D01*
X5804877Y29414371D01*
X5771392Y29475694D01*
X5773898Y29538048D01*
X5795559Y29609455D01*
X5805300Y29641566D01*
X5825583Y29847500D01*
X5805300Y30053434D01*
X5745232Y30251454D01*
X5647685Y30433950D01*
X5516701Y30593556D01*
X5516410Y30593911D01*
X5356452Y30725183D01*
X5356453Y30725183D01*
X5356450Y30725185D01*
X5173954Y30822732D01*
X4975934Y30882800D01*
X4975932Y30882801D01*
X4975934Y30882801D01*
X4770000Y30903083D01*
X4564067Y30882801D01*
X4366043Y30822731D01*
X4318163Y30797138D01*
X4183550Y30725185D01*
X4183548Y30725184D01*
X4183547Y30725183D01*
X4023589Y30593911D01*
X3900295Y30443674D01*
X3892315Y30433950D01*
X3892164Y30433667D01*
X3794769Y30251457D01*
X3794768Y30251455D01*
X3794768Y30251454D01*
X3787898Y30228808D01*
X3734699Y30053433D01*
X3714417Y29847500D01*
X2634986Y29847500D01*
X2615188Y29972500D01*
X3272770Y29972500D01*
X3264808Y30053335D01*
X3204766Y30251267D01*
X3107271Y30433667D01*
X3107267Y30433674D01*
X2976055Y30593556D01*
X2816173Y30724768D01*
X2816166Y30724772D01*
X2633766Y30822267D01*
X2435834Y30882309D01*
X2354999Y30890271D01*
X2354999Y30232689D01*
X2261481Y30247500D01*
X2198519Y30247500D01*
X2105000Y30232689D01*
X2105000Y30890271D01*
X2024165Y30882309D01*
X1826233Y30822267D01*
X1643833Y30724772D01*
X1643826Y30724768D01*
X1483944Y30593556D01*
X1352732Y30433674D01*
X1352728Y30433667D01*
X1255233Y30251267D01*
X1195191Y30053335D01*
X1187229Y29972500D01*
X300500Y29972500D01*
X300500Y40767000D01*
X6154571Y40767000D01*
X6174244Y40554690D01*
X6232596Y40349608D01*
X6232596Y40349606D01*
X6327632Y40158747D01*
X6456127Y39988594D01*
X6456128Y39988593D01*
X6613698Y39844948D01*
X6794981Y39732702D01*
X6805289Y39728709D01*
X6860692Y39686138D01*
X6884284Y39620372D01*
X6884499Y39613081D01*
X6884500Y39219455D01*
X6864816Y39152416D01*
X6848188Y39131780D01*
X6847452Y39131045D01*
X6761206Y39015836D01*
X6761202Y39015829D01*
X6710908Y38880983D01*
X6704501Y38821384D01*
X6704501Y38821377D01*
X6704500Y38821365D01*
X6704500Y37775630D01*
X6704501Y37775624D01*
X6710908Y37716017D01*
X6761202Y37581172D01*
X6761203Y37581171D01*
X6761204Y37581169D01*
X6826135Y37494432D01*
X6847456Y37465951D01*
X6848181Y37465226D01*
X6848671Y37464328D01*
X6852769Y37458854D01*
X6851982Y37458265D01*
X6881666Y37403903D01*
X6884500Y37377545D01*
X6884500Y36687408D01*
X6864815Y36620369D01*
X6842728Y36594593D01*
X6819517Y36574031D01*
X6819515Y36574028D01*
X6729781Y36444025D01*
X6729780Y36444024D01*
X6673762Y36296319D01*
X6654722Y36139501D01*
X6654722Y36139500D01*
X6673762Y35982682D01*
X6710948Y35884632D01*
X6729780Y35834977D01*
X6819517Y35704970D01*
X6937760Y35600217D01*
X6937762Y35600216D01*
X7077634Y35526804D01*
X7231014Y35489000D01*
X7231015Y35489000D01*
X7388985Y35489000D01*
X7542365Y35526804D01*
X7556716Y35534336D01*
X7682240Y35600217D01*
X7800483Y35704970D01*
X7890220Y35834977D01*
X7946237Y35982682D01*
X7965278Y36139500D01*
X7946237Y36296318D01*
X7890220Y36444023D01*
X7800483Y36574030D01*
X7777271Y36594594D01*
X7740146Y36653783D01*
X7735500Y36687408D01*
X7735500Y37199001D01*
X7755185Y37266040D01*
X7807989Y37311795D01*
X7859500Y37323001D01*
X7927871Y37323001D01*
X7927872Y37323001D01*
X7987483Y37329409D01*
X8122331Y37379704D01*
X8237546Y37465954D01*
X8323796Y37581169D01*
X8374091Y37716017D01*
X8380500Y37775627D01*
X8380499Y38173500D01*
X8780000Y38173500D01*
X8780000Y37775656D01*
X8786401Y37716128D01*
X8786403Y37716121D01*
X8836645Y37581414D01*
X8836649Y37581407D01*
X8922809Y37466313D01*
X8922812Y37466310D01*
X9037906Y37380150D01*
X9037913Y37380146D01*
X9172620Y37329904D01*
X9172627Y37329902D01*
X9232155Y37323501D01*
X9232172Y37323500D01*
X9492500Y37323500D01*
X9492500Y38173500D01*
X9742500Y38173500D01*
X9742500Y37323500D01*
X10002828Y37323500D01*
X10002844Y37323501D01*
X10062372Y37329902D01*
X10062379Y37329904D01*
X10197086Y37380146D01*
X10197093Y37380150D01*
X10312187Y37466310D01*
X10312190Y37466313D01*
X10398350Y37581407D01*
X10398354Y37581414D01*
X10448596Y37716121D01*
X10448598Y37716128D01*
X10454999Y37775656D01*
X10455000Y37775673D01*
X10455000Y38173500D01*
X9742500Y38173500D01*
X9492500Y38173500D01*
X8780000Y38173500D01*
X8380499Y38173500D01*
X8380499Y38423500D01*
X8780000Y38423500D01*
X9492500Y38423500D01*
X9492500Y39273500D01*
X9742500Y39273500D01*
X9742500Y38423500D01*
X10455000Y38423500D01*
X10455000Y38821328D01*
X10454999Y38821345D01*
X10448598Y38880873D01*
X10448596Y38880880D01*
X10398354Y39015587D01*
X10398350Y39015594D01*
X10312190Y39130688D01*
X10312187Y39130691D01*
X10197093Y39216851D01*
X10197086Y39216855D01*
X10062379Y39267097D01*
X10062372Y39267099D01*
X10002844Y39273500D01*
X9742500Y39273500D01*
X9492500Y39273500D01*
X9232155Y39273500D01*
X9172627Y39267099D01*
X9172620Y39267097D01*
X9037913Y39216855D01*
X9037906Y39216851D01*
X8922812Y39130691D01*
X8922809Y39130688D01*
X8836649Y39015594D01*
X8836645Y39015587D01*
X8786403Y38880880D01*
X8786401Y38880873D01*
X8780000Y38821345D01*
X8780000Y38423500D01*
X8380499Y38423500D01*
X8380499Y38821372D01*
X8374091Y38880983D01*
X8343904Y38961918D01*
X8323797Y39015829D01*
X8323793Y39015836D01*
X8237547Y39131045D01*
X8237544Y39131048D01*
X8122335Y39217294D01*
X8122328Y39217298D01*
X7987482Y39267592D01*
X7987483Y39267592D01*
X7927883Y39273999D01*
X7927881Y39274000D01*
X7927873Y39274000D01*
X7927865Y39274000D01*
X7859500Y39274000D01*
X7792461Y39293685D01*
X7746706Y39346489D01*
X7735500Y39398000D01*
X7735500Y39613081D01*
X7755185Y39680120D01*
X7807989Y39725875D01*
X7814687Y39728700D01*
X7825019Y39732702D01*
X8006302Y39844948D01*
X8163872Y39988593D01*
X8292366Y40158745D01*
X8292502Y40159019D01*
X8387403Y40349606D01*
X8387403Y40349607D01*
X8387405Y40349611D01*
X8445756Y40554690D01*
X8456780Y40673663D01*
X8482566Y40738599D01*
X8521508Y40766496D01*
X8637582Y40766496D01*
X8669754Y40748042D01*
X8701944Y40686029D01*
X8703722Y40673662D01*
X8714737Y40554784D01*
X8714738Y40554781D01*
X8773058Y40349804D01*
X8773066Y40349784D01*
X8868059Y40159011D01*
X8952895Y40046672D01*
X9453010Y40546789D01*
X9455887Y40539459D01*
X9540465Y40433401D01*
X9631267Y40371493D01*
X9128432Y39868658D01*
X9128432Y39868657D01*
X9153998Y39845350D01*
X9335201Y39733154D01*
X9335210Y39733150D01*
X9533936Y39656164D01*
X9533941Y39656163D01*
X9743439Y39617000D01*
X9956561Y39617000D01*
X10166058Y39656163D01*
X10166063Y39656164D01*
X10364789Y39733150D01*
X10364798Y39733154D01*
X10545998Y39845348D01*
X10546004Y39845352D01*
X10571566Y39868657D01*
X10571567Y39868658D01*
X10067799Y40372425D01*
X10106357Y40390993D01*
X10205798Y40483260D01*
X10244127Y40549650D01*
X10747103Y40046673D01*
X10831937Y40159007D01*
X10831944Y40159019D01*
X10926933Y40349784D01*
X10926941Y40349804D01*
X10985261Y40554781D01*
X10985262Y40554784D01*
X10992029Y40627810D01*
X11017815Y40692748D01*
X11074616Y40733435D01*
X11144397Y40736955D01*
X11205003Y40702190D01*
X11237193Y40640177D01*
X11239500Y40616369D01*
X11239500Y40067686D01*
X11245889Y40008261D01*
X11245889Y40008259D01*
X11245890Y40008258D01*
X11296021Y39873847D01*
X11296022Y39873845D01*
X11296023Y39873844D01*
X11381997Y39758997D01*
X11479325Y39686138D01*
X11496844Y39673023D01*
X11496846Y39673022D01*
X11541649Y39656312D01*
X11631261Y39622889D01*
X11690686Y39616500D01*
X11690696Y39616500D01*
X13089304Y39616500D01*
X13089314Y39616500D01*
X13148739Y39622889D01*
X13283156Y39673023D01*
X13398003Y39758997D01*
X13483977Y39873844D01*
X13534111Y40008261D01*
X13540500Y40067686D01*
X13540500Y41466314D01*
X13534111Y41525739D01*
X13483977Y41660156D01*
X13398003Y41775003D01*
X13283156Y41860977D01*
X13283155Y41860978D01*
X13283153Y41860979D01*
X13148742Y41911110D01*
X13148741Y41911111D01*
X13148739Y41911111D01*
X13089314Y41917500D01*
X11690686Y41917500D01*
X11631261Y41911111D01*
X11631258Y41911111D01*
X11631257Y41911110D01*
X11496846Y41860979D01*
X11496844Y41860978D01*
X11381997Y41775003D01*
X11296022Y41660156D01*
X11296021Y41660154D01*
X11245890Y41525743D01*
X11245889Y41525739D01*
X11239500Y41466314D01*
X11239500Y41466307D01*
X11239500Y41466306D01*
X11239500Y40917632D01*
X11219815Y40850593D01*
X11167011Y40804838D01*
X11097853Y40794894D01*
X11034297Y40823919D01*
X10996523Y40882697D01*
X10992029Y40906191D01*
X10985262Y40979217D01*
X10985261Y40979220D01*
X10926941Y41184197D01*
X10926933Y41184217D01*
X10831940Y41374990D01*
X10747103Y41487330D01*
X10246988Y40987215D01*
X10244113Y40994541D01*
X10159535Y41100599D01*
X10068730Y41162509D01*
X10571566Y41665344D01*
X10571566Y41665345D01*
X10546001Y41688651D01*
X10364798Y41800847D01*
X10364789Y41800851D01*
X10166063Y41877837D01*
X10166058Y41877838D01*
X9956561Y41917000D01*
X9743439Y41917000D01*
X9533941Y41877838D01*
X9533936Y41877837D01*
X9335210Y41800851D01*
X9335201Y41800847D01*
X9154004Y41688655D01*
X9153999Y41688652D01*
X9128432Y41665345D01*
X9128431Y41665344D01*
X9632200Y41161576D01*
X9593643Y41143007D01*
X9494202Y41050740D01*
X9455872Y40984353D01*
X8952895Y41487330D01*
X8868059Y41374990D01*
X8773066Y41184217D01*
X8773058Y41184197D01*
X8714738Y40979220D01*
X8714738Y40979218D01*
X8703722Y40860338D01*
X8677936Y40795401D01*
X8637582Y40766496D01*
X8521508Y40766496D01*
X8522918Y40767506D01*
X8490748Y40785959D01*
X8458558Y40847972D01*
X8456780Y40860339D01*
X8451693Y40915236D01*
X8445756Y40979310D01*
X8387405Y41184389D01*
X8387403Y41184394D01*
X8387403Y41184395D01*
X8292367Y41375254D01*
X8163872Y41545407D01*
X8117138Y41588011D01*
X8006302Y41689052D01*
X7825019Y41801298D01*
X7825017Y41801299D01*
X7627447Y41877837D01*
X7626198Y41878321D01*
X7416610Y41917500D01*
X7203390Y41917500D01*
X6993802Y41878321D01*
X6993799Y41878321D01*
X6993799Y41878320D01*
X6794982Y41801299D01*
X6794980Y41801298D01*
X6613699Y41689053D01*
X6456127Y41545407D01*
X6327632Y41375254D01*
X6232596Y41184395D01*
X6232596Y41184393D01*
X6174244Y40979311D01*
X6154571Y40767001D01*
X6154571Y40767000D01*
X300500Y40767000D01*
X300500Y44575500D01*
X320185Y44642539D01*
X372989Y44688294D01*
X424500Y44699500D01*
X46575500Y44699500D01*
X46642539Y44679815D01*
G37*
%TD.AperFunction*%
%TD*%
%TA.AperFunction,NonConductor*%
G36*
X23485429Y42240815D02*
G01*
X23531184Y42188011D01*
X23541128Y42118853D01*
X23512103Y42055297D01*
X23506071Y42048819D01*
X19820071Y38362819D01*
X19758748Y38329334D01*
X19732390Y38326500D01*
X19677014Y38326500D01*
X19523634Y38288697D01*
X19383762Y38215285D01*
X19265516Y38110529D01*
X19175781Y37980525D01*
X19175780Y37980524D01*
X19119763Y37832820D01*
X19101384Y37681453D01*
X19073762Y37617276D01*
X19065969Y37608719D01*
X18081571Y36624319D01*
X18020248Y36590834D01*
X17993890Y36588000D01*
X16661155Y36588000D01*
X16594116Y36607685D01*
X16548361Y36660489D01*
X16538417Y36729647D01*
X16565302Y36790665D01*
X16597845Y36830321D01*
X16647685Y36891050D01*
X16745232Y37073546D01*
X16805300Y37271566D01*
X16825583Y37477500D01*
X16805300Y37683434D01*
X16745232Y37881454D01*
X16647685Y38063950D01*
X16647682Y38063954D01*
X16639162Y38074336D01*
X16611850Y38138647D01*
X16623642Y38207514D01*
X16670795Y38259074D01*
X16735016Y38277000D01*
X17672445Y38277000D01*
X17739484Y38257315D01*
X17754670Y38245818D01*
X17859760Y38152717D01*
X17859762Y38152716D01*
X17999634Y38079304D01*
X18153014Y38041500D01*
X18153015Y38041500D01*
X18310985Y38041500D01*
X18464365Y38079304D01*
X18464365Y38079305D01*
X18604240Y38152717D01*
X18722483Y38257470D01*
X18812220Y38387477D01*
X18868237Y38535182D01*
X18887278Y38692000D01*
X18887278Y38694169D01*
X18887727Y38695699D01*
X18888182Y38699445D01*
X18888805Y38699370D01*
X18906963Y38761208D01*
X18923597Y38781850D01*
X22365929Y42224181D01*
X22427252Y42257666D01*
X22453610Y42260500D01*
X23418390Y42260500D01*
X23485429Y42240815D01*
G37*
%TD.AperFunction*%
%TA.AperFunction,NonConductor*%
G36*
X25425429Y41640815D02*
G01*
X25471184Y41588011D01*
X25481128Y41518853D01*
X25452103Y41455297D01*
X25446071Y41448819D01*
X20201071Y36203819D01*
X20139748Y36170334D01*
X20113390Y36167500D01*
X20058014Y36167500D01*
X19904634Y36129697D01*
X19764762Y36056285D01*
X19646516Y35951529D01*
X19556781Y35821525D01*
X19556780Y35821524D01*
X19500763Y35673820D01*
X19482384Y35522453D01*
X19454762Y35458276D01*
X19446969Y35449719D01*
X18081571Y34084319D01*
X18020248Y34050834D01*
X17993890Y34048000D01*
X16661155Y34048000D01*
X16594116Y34067685D01*
X16548361Y34120489D01*
X16538417Y34189647D01*
X16565302Y34250665D01*
X16597845Y34290321D01*
X16647685Y34351050D01*
X16745232Y34533546D01*
X16805300Y34731566D01*
X16825583Y34937500D01*
X16805300Y35143434D01*
X16745232Y35341454D01*
X16647685Y35523950D01*
X16645343Y35526804D01*
X16639162Y35534336D01*
X16611850Y35598647D01*
X16623642Y35667514D01*
X16670795Y35719074D01*
X16735016Y35737000D01*
X18288892Y35737000D01*
X18288893Y35737000D01*
X18311860Y35744464D01*
X18330776Y35749005D01*
X18354626Y35752781D01*
X18376136Y35763743D01*
X18394114Y35771190D01*
X18417081Y35778651D01*
X18436618Y35792847D01*
X18453206Y35803012D01*
X18474720Y35813972D01*
X18570028Y35909280D01*
X18628587Y35967839D01*
X18628599Y35967853D01*
X19649928Y36989181D01*
X19711252Y37022666D01*
X19737610Y37025500D01*
X19834985Y37025500D01*
X19988365Y37063304D01*
X20008237Y37073734D01*
X20128240Y37136717D01*
X20246483Y37241470D01*
X20336220Y37371477D01*
X20392237Y37519182D01*
X20411278Y37676000D01*
X20410486Y37682523D01*
X20421944Y37751446D01*
X20445897Y37785151D01*
X24284928Y41624181D01*
X24346252Y41657666D01*
X24372610Y41660500D01*
X25358390Y41660500D01*
X25425429Y41640815D01*
G37*
%TD.AperFunction*%
%TA.AperFunction,NonConductor*%
G36*
X14872023Y35717315D02*
G01*
X14917778Y35664511D01*
X14927722Y35595353D01*
X14900838Y35534336D01*
X14892317Y35523954D01*
X14794769Y35341457D01*
X14734699Y35143433D01*
X14714417Y34937500D01*
X14734699Y34731568D01*
X14764733Y34632557D01*
X14794768Y34533546D01*
X14878831Y34376276D01*
X14892317Y34351047D01*
X14974698Y34250665D01*
X15002011Y34186355D01*
X14990220Y34117487D01*
X14943067Y34065927D01*
X14878845Y34048000D01*
X13991893Y34048000D01*
X13857107Y34048000D01*
X13857105Y34048000D01*
X13857101Y34047999D01*
X13834142Y34040539D01*
X13815224Y34035997D01*
X13791378Y34032221D01*
X13791370Y34032218D01*
X13769852Y34021255D01*
X13751889Y34013814D01*
X13728918Y34006350D01*
X13709387Y33992159D01*
X13692801Y33981995D01*
X13671282Y33971031D01*
X13671279Y33971028D01*
X13588745Y33888498D01*
X13588719Y33888468D01*
X12011181Y32310929D01*
X11949858Y32277444D01*
X11880166Y32282428D01*
X11824233Y32324300D01*
X11799816Y32389764D01*
X11799500Y32398610D01*
X11799500Y32876391D01*
X11819185Y32943430D01*
X11835819Y32964072D01*
X14572428Y35700681D01*
X14633751Y35734166D01*
X14660109Y35737000D01*
X14804984Y35737000D01*
X14872023Y35717315D01*
G37*
%TD.AperFunction*%
%TA.AperFunction,NonConductor*%
G36*
X14872023Y38257315D02*
G01*
X14917778Y38204511D01*
X14927722Y38135353D01*
X14900838Y38074336D01*
X14892317Y38063954D01*
X14794769Y37881457D01*
X14734699Y37683433D01*
X14718522Y37519182D01*
X14714417Y37477500D01*
X14716312Y37458265D01*
X14734699Y37271568D01*
X14794769Y37073544D01*
X14805992Y37052548D01*
X14892163Y36891334D01*
X14892317Y36891047D01*
X14974698Y36790665D01*
X15002011Y36726355D01*
X14990220Y36657487D01*
X14943067Y36605927D01*
X14878845Y36588000D01*
X14365104Y36588000D01*
X14342139Y36580538D01*
X14323222Y36575997D01*
X14299373Y36572220D01*
X14277858Y36561257D01*
X14259885Y36553812D01*
X14236918Y36546350D01*
X14236916Y36546349D01*
X14217383Y36532157D01*
X14200801Y36521995D01*
X14179282Y36511030D01*
X14091041Y36422790D01*
X11025472Y33357222D01*
X11014510Y33335707D01*
X11004346Y33319122D01*
X10990152Y33299586D01*
X10990151Y33299583D01*
X10982688Y33276615D01*
X10975243Y33258642D01*
X10964280Y33237127D01*
X10960503Y33213278D01*
X10955962Y33194361D01*
X10948500Y33171396D01*
X10948500Y30981311D01*
X10928815Y30914272D01*
X10876011Y30868517D01*
X10806853Y30858573D01*
X10755613Y30878206D01*
X10747741Y30883466D01*
X10747735Y30883468D01*
X10674677Y30898000D01*
X10674674Y30898000D01*
X10399500Y30898000D01*
X10332461Y30917685D01*
X10286706Y30970489D01*
X10275500Y31022000D01*
X10275500Y34146391D01*
X10295185Y34213430D01*
X10311819Y34234072D01*
X14318429Y38240681D01*
X14379752Y38274166D01*
X14406110Y38277000D01*
X14804984Y38277000D01*
X14872023Y38257315D01*
G37*
%TD.AperFunction*%
%TA.AperFunction,NonConductor*%
G36*
X40335703Y35884632D02*
G01*
X40342166Y35878614D01*
X41077346Y35143434D01*
X41783181Y34437599D01*
X41816666Y34376276D01*
X41819500Y34349918D01*
X41819500Y30895539D01*
X41799815Y30828500D01*
X41753955Y30786182D01*
X41658548Y30735185D01*
X41498589Y30603911D01*
X41377614Y30456500D01*
X41367315Y30443950D01*
X41361819Y30433667D01*
X41269769Y30261457D01*
X41269768Y30261455D01*
X41269768Y30261454D01*
X41262898Y30238808D01*
X41209699Y30063433D01*
X41189417Y29857501D01*
X41209699Y29651568D01*
X41222474Y29609455D01*
X41269768Y29453546D01*
X41367315Y29271050D01*
X41412290Y29216248D01*
X41458316Y29160164D01*
X41485628Y29095854D01*
X41473837Y29026987D01*
X41426684Y28975427D01*
X41362462Y28957500D01*
X40587538Y28957500D01*
X40520499Y28977185D01*
X40474744Y29029989D01*
X40464800Y29099147D01*
X40491684Y29160164D01*
X40537710Y29216248D01*
X40582685Y29271050D01*
X40680232Y29453546D01*
X40740300Y29651566D01*
X40760583Y29857500D01*
X40740300Y30063434D01*
X40680232Y30261454D01*
X40582685Y30443950D01*
X40530702Y30507291D01*
X40451410Y30603911D01*
X40291451Y30735185D01*
X40196045Y30786182D01*
X40146202Y30835145D01*
X40130500Y30895539D01*
X40130500Y35790919D01*
X40150185Y35857958D01*
X40202989Y35903713D01*
X40272147Y35913657D01*
X40335703Y35884632D01*
G37*
%TD.AperFunction*%
%TA.AperFunction,NonConductor*%
G36*
X39781367Y23692515D02*
G01*
X39795575Y23673536D01*
X39795888Y23673769D01*
X39887452Y23551456D01*
X39887455Y23551453D01*
X39956912Y23499457D01*
X39998783Y23443523D01*
X40003767Y23373832D01*
X39970281Y23312509D01*
X39908958Y23279025D01*
X39870447Y23276788D01*
X39705000Y23293083D01*
X39495340Y23272434D01*
X39426694Y23285453D01*
X39375984Y23333518D01*
X39359309Y23401369D01*
X39381965Y23467464D01*
X39408870Y23495100D01*
X39517546Y23576454D01*
X39594422Y23679148D01*
X39650353Y23721016D01*
X39720044Y23726000D01*
X39781367Y23692515D01*
G37*
%TD.AperFunction*%
%TA.AperFunction,NonConductor*%
G36*
X4846367Y23649515D02*
G01*
X4860575Y23630536D01*
X4860888Y23630769D01*
X4952452Y23508456D01*
X4952453Y23508456D01*
X4952454Y23508454D01*
X4971151Y23494458D01*
X5013022Y23438526D01*
X5018007Y23368834D01*
X4984523Y23307511D01*
X4923200Y23274025D01*
X4884688Y23271788D01*
X4770001Y23283083D01*
X4770000Y23283083D01*
X4611100Y23267433D01*
X4542454Y23280452D01*
X4491744Y23328517D01*
X4475069Y23396368D01*
X4497725Y23462462D01*
X4524630Y23490099D01*
X4582546Y23533454D01*
X4659422Y23636148D01*
X4715353Y23678016D01*
X4785044Y23683000D01*
X4846367Y23649515D01*
G37*
%TD.AperFunction*%
%TA.AperFunction,NonConductor*%
G36*
X3770972Y18239815D02*
G01*
X3816727Y18187011D01*
X3826671Y18117853D01*
X3820115Y18092168D01*
X3810910Y18067489D01*
X3810910Y18067487D01*
X3810909Y18067483D01*
X3804500Y18007873D01*
X3804500Y18007866D01*
X3804500Y18007865D01*
X3804500Y17237130D01*
X3804501Y17237124D01*
X3810908Y17177517D01*
X3861202Y17042672D01*
X3861206Y17042665D01*
X3947452Y16927456D01*
X3947455Y16927453D01*
X4062664Y16841207D01*
X4062671Y16841203D01*
X4130928Y16815745D01*
X4197517Y16790909D01*
X4198196Y16790656D01*
X4254129Y16748785D01*
X4278547Y16683321D01*
X4263696Y16615048D01*
X4242544Y16586793D01*
X3441472Y15785722D01*
X3430510Y15764207D01*
X3420346Y15747622D01*
X3406152Y15728086D01*
X3406151Y15728083D01*
X3398688Y15705115D01*
X3391243Y15687142D01*
X3380280Y15665627D01*
X3376503Y15641777D01*
X3371962Y15622861D01*
X3364499Y15599893D01*
X3364498Y15541332D01*
X3364499Y15541323D01*
X3364500Y12734500D01*
X3344815Y12667461D01*
X3292012Y12621706D01*
X3240500Y12610500D01*
X2815321Y12610500D01*
X2813683Y12610174D01*
X2812808Y12610253D01*
X2809261Y12609903D01*
X2809194Y12610576D01*
X2744092Y12616406D01*
X2688918Y12659273D01*
X2665677Y12725164D01*
X2665500Y12731793D01*
X2665500Y16662649D01*
X2685185Y16729688D01*
X2737989Y16775443D01*
X2776247Y16785939D01*
X2822483Y16790909D01*
X2957331Y16841204D01*
X3072546Y16927454D01*
X3158796Y17042669D01*
X3209091Y17177517D01*
X3215500Y17237127D01*
X3215499Y18007872D01*
X3209091Y18067483D01*
X3209089Y18067489D01*
X3199885Y18092168D01*
X3194901Y18161860D01*
X3228387Y18223182D01*
X3289711Y18256667D01*
X3316067Y18259500D01*
X3703933Y18259500D01*
X3770972Y18239815D01*
G37*
%TD.AperFunction*%
%TA.AperFunction,NonConductor*%
G36*
X38705972Y18249815D02*
G01*
X38751727Y18197011D01*
X38761671Y18127853D01*
X38755115Y18102168D01*
X38745910Y18077489D01*
X38745910Y18077487D01*
X38745909Y18077483D01*
X38739500Y18017873D01*
X38739500Y18017866D01*
X38739500Y18017865D01*
X38739500Y17247130D01*
X38739501Y17247124D01*
X38745908Y17187517D01*
X38796202Y17052672D01*
X38796206Y17052665D01*
X38882452Y16937456D01*
X38882455Y16937453D01*
X38997664Y16851207D01*
X38997671Y16851203D01*
X39024472Y16841207D01*
X39132517Y16800909D01*
X39168757Y16797013D01*
X39233306Y16770276D01*
X39273154Y16712884D01*
X39279500Y16673724D01*
X39279500Y13915106D01*
X39286962Y13892142D01*
X39291503Y13873227D01*
X39291842Y13871090D01*
X39295281Y13849373D01*
X39306243Y13827859D01*
X39313688Y13809885D01*
X39321150Y13786920D01*
X39335340Y13767390D01*
X39345508Y13750797D01*
X39356470Y13729282D01*
X39893180Y13192572D01*
X39926665Y13131249D01*
X39929499Y13104891D01*
X39929499Y9386611D01*
X39909814Y9319572D01*
X39857010Y9273817D01*
X39787852Y9263873D01*
X39724296Y9292898D01*
X39717818Y9298930D01*
X39018929Y9997819D01*
X38985444Y10059142D01*
X38990428Y10128834D01*
X39032300Y10184767D01*
X39097764Y10209184D01*
X39106610Y10209500D01*
X39424676Y10209500D01*
X39424677Y10209501D01*
X39497740Y10224034D01*
X39580601Y10279399D01*
X39635966Y10362260D01*
X39650500Y10435326D01*
X39650500Y12384674D01*
X39650500Y12384677D01*
X39650499Y12384679D01*
X39635967Y12457736D01*
X39635966Y12457740D01*
X39615213Y12488799D01*
X39580601Y12540601D01*
X39497740Y12595966D01*
X39497739Y12595967D01*
X39497735Y12595968D01*
X39424677Y12610500D01*
X39424674Y12610500D01*
X37475326Y12610500D01*
X37475323Y12610500D01*
X37402264Y12595968D01*
X37402260Y12595967D01*
X37319399Y12540601D01*
X37264033Y12457740D01*
X37264032Y12457736D01*
X37249500Y12384679D01*
X37249500Y10435322D01*
X37264032Y10362265D01*
X37264033Y10362261D01*
X37264034Y10362260D01*
X37319399Y10279399D01*
X37402260Y10224034D01*
X37402264Y10224033D01*
X37475321Y10209501D01*
X37475324Y10209500D01*
X37475326Y10209500D01*
X37900500Y10209500D01*
X37967539Y10189815D01*
X38013294Y10137011D01*
X38024500Y10085500D01*
X38024500Y9897606D01*
X38031962Y9874642D01*
X38036503Y9855727D01*
X38039470Y9836990D01*
X38040281Y9831873D01*
X38051243Y9810359D01*
X38058688Y9792385D01*
X38066150Y9769421D01*
X38066151Y9769419D01*
X38080341Y9749889D01*
X38090508Y9733297D01*
X38101469Y9711784D01*
X38101471Y9711781D01*
X38101472Y9711780D01*
X38125446Y9687807D01*
X38125446Y9687806D01*
X38679038Y9134214D01*
X39233181Y8580071D01*
X39266666Y8518748D01*
X39269500Y8492390D01*
X39269500Y3867611D01*
X39249815Y3800572D01*
X39233179Y3779928D01*
X39211958Y3758708D01*
X39150634Y3725224D01*
X39080943Y3730210D01*
X39025010Y3772083D01*
X39000595Y3837548D01*
X39000807Y3857820D01*
X39005643Y3910000D01*
X38985115Y4131536D01*
X38924229Y4345528D01*
X38924224Y4345539D01*
X38825061Y4544684D01*
X38825056Y4544692D01*
X38690979Y4722239D01*
X38526562Y4872124D01*
X38526560Y4872126D01*
X38337404Y4989246D01*
X38337398Y4989248D01*
X38129940Y5069618D01*
X37911243Y5110500D01*
X37688757Y5110500D01*
X37594702Y5092918D01*
X37470052Y5069617D01*
X37381113Y5035162D01*
X37311490Y5029301D01*
X37249750Y5062011D01*
X37248640Y5063108D01*
X36991819Y5319929D01*
X36958334Y5381252D01*
X36955500Y5407610D01*
X36955500Y7366067D01*
X37445668Y7366067D01*
X37461058Y7278790D01*
X37476135Y7193289D01*
X37545623Y7032196D01*
X37545624Y7032194D01*
X37545626Y7032191D01*
X37571453Y6997500D01*
X37650390Y6891470D01*
X37784786Y6778698D01*
X37862488Y6739675D01*
X37941562Y6699962D01*
X37941563Y6699962D01*
X37941567Y6699960D01*
X38112279Y6659500D01*
X38112282Y6659500D01*
X38243701Y6659500D01*
X38243709Y6659500D01*
X38374255Y6674759D01*
X38539117Y6734763D01*
X38685696Y6831170D01*
X38806092Y6958782D01*
X38893812Y7110719D01*
X38944130Y7278790D01*
X38954331Y7453935D01*
X38923865Y7626711D01*
X38854377Y7787804D01*
X38749610Y7928530D01*
X38696933Y7972731D01*
X38615214Y8041302D01*
X38615212Y8041303D01*
X38458437Y8120039D01*
X38458433Y8120040D01*
X38287721Y8160500D01*
X38156291Y8160500D01*
X38051854Y8148293D01*
X38025743Y8145241D01*
X38025740Y8145240D01*
X37860884Y8085238D01*
X37860880Y8085236D01*
X37714306Y7988833D01*
X37714305Y7988832D01*
X37593910Y7861222D01*
X37506188Y7709282D01*
X37455870Y7541211D01*
X37455869Y7541206D01*
X37445668Y7366067D01*
X36955500Y7366067D01*
X36955500Y15659890D01*
X36975185Y15726929D01*
X36991819Y15747571D01*
X37527232Y16282984D01*
X37530776Y16293506D01*
X37534495Y16300806D01*
X37544650Y16317375D01*
X37558850Y16336919D01*
X37566311Y16359886D01*
X37573760Y16377867D01*
X37584718Y16399371D01*
X37584718Y16399372D01*
X37584718Y16399373D01*
X37584719Y16399374D01*
X37588496Y16423227D01*
X37593035Y16442134D01*
X37600500Y16465107D01*
X37600500Y16599893D01*
X37600500Y16672649D01*
X37620185Y16739688D01*
X37672989Y16785443D01*
X37711247Y16795939D01*
X37757483Y16800909D01*
X37892331Y16851204D01*
X38007546Y16937454D01*
X38093796Y17052669D01*
X38144091Y17187517D01*
X38150500Y17247127D01*
X38150499Y18017872D01*
X38144091Y18077483D01*
X38144089Y18077489D01*
X38134885Y18102168D01*
X38129901Y18171860D01*
X38163387Y18233182D01*
X38224711Y18266667D01*
X38251067Y18269500D01*
X38638933Y18269500D01*
X38705972Y18249815D01*
G37*
%TD.AperFunction*%
M02*
