M48
; DRILL file {KiCad 7.0.5} date Mon Jan 22 14:11:32 2024
; FORMAT={-:-/ absolute / inch / decimal}
; #@! TF.CreationDate,2024-01-22T14:11:32+01:00
; #@! TF.GenerationSoftware,Kicad,Pcbnew,7.0.5
; #@! TF.FileFunction,Plated,1,2,PTH
FMAT,2
INCH
; #@! TA.AperFunction,Plated,PTH,ViaDrill
T1C0.0157
; #@! TA.AperFunction,Plated,PTH,ComponentDrill
T2C0.0315
; #@! TA.AperFunction,Plated,PTH,ComponentDrill
T3C0.0354
; #@! TA.AperFunction,Plated,PTH,ComponentDrill
T4C0.0394
; #@! TA.AperFunction,Plated,PTH,ComponentDrill
T5C0.0472
%
G90
G05
T1
X0.2878Y1.4228
X0.3778Y1.4478
X0.4278Y0.9683
X0.4328Y1.5078
X0.4878Y1.0233
X0.5478Y0.8833
X0.7178Y1.5233
X0.7778Y1.4833
X0.7928Y1.3983
X0.8628Y1.2433
X0.9128Y1.2783
X0.9728Y1.2883
X1.3628Y1.2483
T2
X0.0878Y1.1751
X0.0878Y0.8751
X0.1878Y1.1751
X0.1878Y0.8751
X0.2878Y1.1751
X0.2878Y0.8751
X0.3878Y1.1751
X0.3878Y0.8751
X1.4632Y1.1755
X1.4632Y0.8755
X1.5632Y1.1755
X1.5632Y0.8755
X1.6632Y1.1755
X1.6632Y0.8755
X1.7632Y1.1755
X1.7632Y0.8755
T3
X0.2878Y1.605
X0.3878Y1.605
X0.4878Y1.605
T4
X0.6209Y1.5755
X0.6209Y1.4755
X0.6209Y1.3755
X0.6209Y1.2755
X0.6209Y1.1755
X0.6209Y1.0755
X0.6209Y0.9755
X0.6209Y0.8755
X0.6209Y0.7755
X0.6209Y0.6755
X0.6209Y0.5755
X0.6209Y0.4755
X0.6209Y0.3755
X0.6209Y0.2755
X0.6209Y0.1755
X1.2209Y1.5755
X1.2209Y1.4755
X1.2209Y1.3755
X1.2209Y1.2755
X1.2209Y1.1755
X1.2209Y1.0755
X1.2209Y0.9755
X1.2209Y0.8755
X1.2209Y0.7755
X1.2209Y0.6755
X1.2209Y0.5755
X1.2209Y0.4755
X1.2209Y0.3755
X1.2209Y0.2755
X1.2209Y0.1755
T5
X0.1236Y0.1539
X0.1492Y0.4492
X0.3264Y0.4492
X0.352Y0.1539
X1.4882Y0.1539
X1.5138Y0.4492
X1.6909Y0.4492
X1.7165Y0.1539
T0
M30
